<?xml version="1.0" standalone="no"?>
<!DOCTYPE svg PUBLIC "-//W3C//DTD SVG 1.1//EN" "http://www.w3.org/Graphics/SVG/1.1/DTD/svg11.dtd" >
<svg xmlns="http://www.w3.org/2000/svg" xmlns:xlink="http://www.w3.org/1999/xlink" version="1.1">
<metadata>
Created by FontForge 20230101 at Tue Nov  3 10:06:34 2020
 By Unknown
</metadata>
<defs>
<font id="TAN-PEARL-Regular" horiz-adv-x="330" >
  <font-face 
    font-family="TAN - PEARL"
    font-weight="400"
    font-stretch="normal"
    units-per-em="1000"
    panose-1="0 0 0 0 0 0 0 0 0 0"
    ascent="800"
    descent="-200"
    x-height="708"
    cap-height="1000"
    bbox="-133 -436 1786 1209"
    underline-thickness="50"
    underline-position="-175"
    unicode-range="U+000D-FB02"
  />
<missing-glyph horiz-adv-x="250" 
 />
    <glyph glyph-name="fi" unicode="fi" horiz-adv-x="660" 
d="M122 278v511q0 45 21.5 87t57.5 74t83 51.5t99 19.5q48 0 81 -13.5t53.5 -35.5t30 -51t9.5 -60q0 -45 -21.5 -67.5t-49.5 -22.5t-47.5 19.5t-19.5 47.5t15.5 47.5t46.5 19.5q14 0 26 -6q6 -3 10 -7q0 21 -10 41.5t-30 37t-48.5 26.5t-66.5 10q-53 0 -84 -24t-46.5 -57.5
t-19.5 -70t-4 -61.5v-86h330v-430q0 -74 2.5 -125t11.5 -83t27.5 -46t50.5 -14v-10h-270v10q32 0 50.5 14t27.5 46t11.5 83t2.5 125v152q0 70 -2 119.5t-10 81.5t-23.5 47.5t-43.5 18.5h-165v-419q0 -74 2.5 -125t11.5 -83t27.5 -46t50.5 -14v-10h-270v10q32 0 50.5 14
t27.5 46t11.5 83t2.5 125z" />
    <glyph glyph-name="fl" unicode="fl" horiz-adv-x="663" 
d="M30 0v10q32 0 50.5 14t27.5 46t11.5 83t2.5 125v511q0 45 20.5 87t57 74t85.5 51.5t106 19.5q47 0 85 -7.5t65 -15.5v-498v-222q0 -74 2.5 -125t11.5 -83t27.5 -46t50.5 -14v-10h-270v10q32 0 50.5 14t27.5 46t11.5 83t2.5 125v444q0 74 -2.5 127t-12.5 87.5t-30.5 51
t-57.5 16.5q-53 0 -82.5 -23.5t-43 -56.5t-16 -69t-2.5 -61v-143q8 26 29 45t48 19q15 0 25.5 -3.5t21 -7.5t23.5 -7.5t31 -3.5q10 0 21 4.5t13 15.5h2q5 -32 -13 -53.5t-43 -19.5q-22 2 -35 7t-23 10t-19.5 9.5t-24.5 4.5q-20 0 -38 -15t-18 -48v-330q0 -74 2.5 -125
t11.5 -83t27.5 -46t50.5 -14v-10h-270z" />
    <glyph glyph-name=".notdef" horiz-adv-x="250" 
 />
    <glyph glyph-name=".null" horiz-adv-x="0" 
 />
    <glyph glyph-name="uni000D" unicode="&#xd;" horiz-adv-x="250" 
 />
    <glyph glyph-name="space" unicode=" " horiz-adv-x="350" 
 />
    <glyph glyph-name="exclam" unicode="!" horiz-adv-x="254" 
d="M127 1020q27 0 38.5 -32t12 -86t-5.5 -124t-14 -146q-6 -55 -10.5 -113t-7.5 -113.5t-5 -106.5t-2 -93h-12q0 87 -7 200.5t-18 225.5q-7 76 -13.5 146t-5.5 124t12 86t38 32zM127 114q28 0 47.5 -19.5t19.5 -47.5t-19.5 -47.5t-47.5 -19.5t-47.5 19.5t-19.5 47.5
t19.5 47.5t47.5 19.5z" />
    <glyph glyph-name="quotedbl" unicode="&#x22;" horiz-adv-x="440" 
d="M60 953q0 28 19.5 47.5t47.5 19.5t50 -22.5t22 -67.5q0 -51 -15 -82t-34 -49q-22 -20 -49 -29l-1 10q16 4 29.5 17t21.5 30t10.5 36.5t-3.5 35.5q-3 -4 -7 -6q-9 -7 -24 -7q-28 0 -47.5 19.5t-19.5 47.5zM308 1020q28 0 50 -22.5t22 -67.5q0 -51 -15 -82t-34 -49
q-22 -20 -49 -29l-1 10q16 4 29.5 17t21.5 30t10.5 36.5t-3.5 35.5q-3 -4 -7 -6q-9 -7 -24 -7q-28 0 -47.5 19.5t-19.5 47.5t19.5 47.5t47.5 19.5z" />
    <glyph glyph-name="numbersign" unicode="#" horiz-adv-x="643" 
d="M395 261l-81 -261h-11l81 261h-186l-81 -261h-11l81 261h-127v10h130l65 206h-135v10h138l75 241h11l-75 -241h185l76 241h11l-76 -241h118v-10h-121l-64 -206h124v-10h-127zM387 271l64 206h-185l-64 -206h185z" />
    <glyph glyph-name="dollar" unicode="$" horiz-adv-x="822" 
d="M396 1020q-6 32 -12 60.5t-6 47.5q0 20 7.5 34t22.5 14q16 0 23.5 -14t7.5 -34q0 -18 -6.5 -47t-11.5 -61q91 0 158 -13t124 -33v-134h-10q-20 47 -57 84q-32 32 -84.5 58t-133.5 26q-5 -33 -5 -60v-398q63 -23 125.5 -47.5t112 -57.5t80.5 -78.5t31 -109.5
q0 -49 -23.5 -96.5t-67.5 -86t-107 -63.5t-142 -30q6 -29 11.5 -55t5.5 -43q0 -20 -7.5 -34t-23.5 -14q-15 0 -22.5 14t-7.5 34q0 17 5.5 42.5t10.5 54.5q-93 0 -175 34t-155 88v134h10q35 -59 83 -107q42 -42 102 -79.5t138 -48.5q6 32 6 62v419q-63 24 -124.5 49
t-110 56.5t-78.5 73t-30 99.5q0 50 22 96t64.5 81.5t105.5 57.5t144 25zM413 478v-415q0 -16 2 -32l4 -32q6 -1 12 -1h12q55 0 102.5 18.5t83 49t55.5 69.5t20 81q0 53 -24.5 92.5t-65 70t-93 54t-108.5 45.5zM130 784q0 -47 22.5 -81.5t60.5 -61.5t87.5 -47.5t102.5 -40.5
v395q0 27 -5 60q-65 -3 -115 -23.5t-84 -51.5t-51.5 -70t-17.5 -79z" />
    <glyph glyph-name="percent" unicode="%" horiz-adv-x="926" 
d="M60 750q0 59 15 108.5t41 85.5t61.5 56t77.5 20q128 0 204 -68.5t76 -201.5q0 -78 -18 -143.5t-39.5 -124.5t-39.5 -115t-18 -117q0 -98 43 -166.5t136 -85.5q-55 28 -89 94.5t-34 156.5q0 59 15 108.5t41 85.5t61.5 56t77.5 20t77.5 -20t61.5 -56t41 -85.5t15 -108.5
q0 -58 -15 -107.5t-41 -85.5t-61.5 -56t-77.5 -20q-34 0 -82.5 10.5t-93 40.5t-75.5 82.5t-31 136.5q0 78 18 143.5t39.5 124.5t39.5 115t18 117q0 48 -10.5 90t-32 75t-55 55.5t-78.5 31.5q55 -29 88.5 -95.5t33.5 -156.5q0 -58 -15 -107.5t-41 -85.5t-61.5 -56t-77.5 -20
t-77.5 20t-61.5 56t-41 85.5t-15 107.5zM549 250q0 -27 4 -71t17 -86t37 -72.5t63 -30.5q25 0 47.5 19t39 53.5t26 82t9.5 105.5t-9.5 106t-26 82t-39 52.5t-47.5 18.5t-47.5 -18.5t-38.5 -52.5t-25.5 -82t-9.5 -106zM133 751q0 -58 9.5 -105.5t25.5 -82t38.5 -53.5
t47.5 -19t47.5 19t39 53.5t26 82t9.5 105.5q0 25 -5 68.5t-18.5 86t-37.5 73.5t-61 31q-25 0 -47.5 -18.5t-38.5 -52.5t-25.5 -82t-9.5 -106z" />
    <glyph glyph-name="ampersand" unicode="&#x26;" horiz-adv-x="904" 
d="M60 314q0 56 24.5 107.5t67.5 91t101.5 63t125.5 23.5q35 0 51 5.5t16 22.5q0 14 -12.5 18.5t-34.5 4.5q-25 0 -43 -4.5t-44 -4.5q-38 0 -74.5 8.5t-65.5 28t-47 51.5t-18 79q0 36 18 73.5t57 68.5t100.5 50.5t148.5 19.5q46 0 98 -12t95.5 -36.5t72 -61.5t28.5 -87
q0 -36 -10.5 -63t-28 -45t-40 -27t-46.5 -9q-33 0 -58 17t-25 50q0 19 13 25q9 -16 21.5 -22t28.5 -6q18 0 30.5 10t20.5 25t11.5 32t3.5 31q0 28 -11 57.5t-36 54t-66 40t-102 15.5q-70 0 -115.5 -22t-72.5 -53.5t-38 -65t-11 -56.5q0 -54 21.5 -84.5t53 -45.5t67 -18
t63.5 -3q26 0 41.5 -7.5t15.5 -24.5q0 -23 -16 -30.5t-39 -7.5q-55 0 -102 -23t-81 -63.5t-53 -96t-19 -120.5q0 -56 19.5 -109t55.5 -94.5t87.5 -66.5t115.5 -25q70 0 123 24.5t89 62.5t54.5 83.5t18.5 87.5q0 54 -25.5 93t-79.5 39q-30 0 -52.5 -8.5t-43 -19t-41 -19.5
t-46.5 -9q-32 0 -51.5 23t-19.5 55q0 33 20 64.5t53 56t74.5 40t84.5 15.5q33 0 58.5 -4.5t47.5 -9.5t43 -9.5t45 -4.5q23 0 36.5 6.5t26.5 22.5q6 -6 5.5 -21t-10.5 -31t-32 -28t-60 -12q-33 0 -55 4t-42 9.5t-43.5 9.5t-60.5 4q-29 0 -61 -7.5t-58.5 -22t-44 -35.5
t-17.5 -47q0 -23 15.5 -45.5t45.5 -22.5q29 0 55 13t53.5 28.5t58.5 28.5t70 13q19 0 44 -7t47 -25t37.5 -48t15.5 -76q0 -75 -37.5 -129t-94 -88t-122.5 -50t-123 -16q-97 0 -166 26.5t-113 71.5t-65 106t-21 130z" />
    <glyph glyph-name="quotesingle" unicode="'" horiz-adv-x="259" 
d="M127 1020q28 0 50 -22.5t22 -67.5q0 -51 -15 -82t-34 -49q-22 -20 -49 -29l-1 10q16 4 29.5 17t21.5 30t10.5 36.5t-3.5 35.5q-3 -4 -7 -6q-9 -7 -24 -7q-28 0 -47.5 19.5t-19.5 47.5t19.5 47.5t47.5 19.5z" />
    <glyph glyph-name="parenleft" unicode="(" horiz-adv-x="496" 
d="M436 1171v-14q-54 0 -105.5 -53.5t-92 -143.5t-65.5 -209t-25 -250t25 -250t65.5 -209t92 -143.5t105.5 -53.5v-14q-57 0 -122.5 48t-122 136t-94 211.5t-37.5 274.5t37.5 274.5t94 211.5t122 136t122.5 48z" />
    <glyph glyph-name="parenright" unicode=")" horiz-adv-x="496" 
d="M60 -155q54 0 106 53.5t92.5 143.5t65 209t24.5 250t-24.5 250t-65 209t-92.5 143.5t-106 53.5v14q57 0 122.5 -48t122 -136t94 -211.5t37.5 -274.5t-37.5 -274.5t-94 -211.5t-122 -136t-122.5 -48v14z" />
    <glyph glyph-name="asterisk" unicode="*" horiz-adv-x="300" 
d="M61 935q2 7 8 8.5t13 -0.5q10 -3 30 -16.5t37 -18.5q0 18 -6.5 40.5t-6.5 33.5q0 7 3.5 12.5t10.5 5.5q8 0 11 -5.5t3 -12.5q0 -11 -6 -33.5t-6 -40.5q17 5 36 18.5t30 16.5q17 5 22 -8q2 -7 -2 -12t-11 -7q-10 -3 -33.5 -4.5t-40.5 -6.5q11 -15 28.5 -30t24.5 -23
q4 -5 4.5 -11.5t-4.5 -10.5q-6 -5 -12 -2.5t-10 8.5q-5 9 -14 31t-20 36q-11 -14 -19 -36t-14 -31q-5 -6 -11 -8t-11 2q-11 8 -1 22q6 8 24.5 23t29.5 30q-17 6 -41 7t-33 4q-7 2 -11 7t-2 12z" />
    <glyph glyph-name="plus" unicode="+" horiz-adv-x="620" 
d="M108 537q14 0 37.5 -5t51 -11.5t56 -12t53.5 -5.5q0 25 -5.5 53.5t-12 56t-11.5 51t-5 37.5q0 20 9.5 34t28.5 14t28.5 -14t9.5 -34q0 -14 -5 -37.5t-11.5 -51t-12 -56t-5.5 -53.5q25 0 53.5 5.5t56 12t51 11.5t37.5 5q20 0 34 -9.5t14 -28.5t-14 -28.5t-34 -9.5
q-14 0 -37.5 5t-51 11.5t-56 12t-53.5 5.5q0 -25 5.5 -53.5t12 -56t11.5 -51t5 -37.5q0 -20 -9.5 -34t-28.5 -14t-28.5 14t-9.5 34q0 14 5 37.5t11.5 51t12 56t5.5 53.5q-25 0 -53.5 -5.5t-56 -12t-51 -11.5t-37.5 -5q-20 0 -34 9.5t-14 28.5t14 28.5t34 9.5z" />
    <glyph glyph-name="comma" unicode="," horiz-adv-x="259" 
d="M127 134q28 0 50 -22.5t22 -67.5q0 -51 -15 -82.5t-34 -48.5q-22 -20 -49 -29l-1 10q16 4 29.5 17t21.5 30t10.5 36.5t-3.5 35.5q-3 -4 -7 -6q-9 -7 -24 -7q-28 0 -47.5 19.5t-19.5 47.5t19.5 47.5t47.5 19.5z" />
    <glyph glyph-name="hyphen" unicode="-" horiz-adv-x="545" 
d="M60 500h426v-20h-426v20z" />
    <glyph glyph-name="period" unicode="." horiz-adv-x="254" 
d="M60 67q0 28 19.5 47.5t47.5 19.5t47.5 -19.5t19.5 -47.5t-19.5 -47.5t-47.5 -19.5t-47.5 19.5t-19.5 47.5z" />
    <glyph glyph-name="slash" unicode="/" horiz-adv-x="454" 
d="M384 1020h10l-324 -1040h-10z" />
    <glyph glyph-name="zero" unicode="0" horiz-adv-x="923" 
d="M80 500q0 113 29 208t80 164.5t121 108.5t152 39q81 0 151 -39t121 -108.5t80 -164.5t29 -208q0 -112 -29 -207.5t-80 -165t-121 -108.5t-151 -39q-82 0 -152 39t-121 108.5t-80 165t-29 207.5zM606 217q0 -24 -2 -52t-8 -56t-17.5 -53.5t-31.5 -44.5q46 22 84.5 66
t66.5 107t44 143t16 173q0 114 -23 207.5t-63.5 160t-94 103.5t-115.5 37q-72 0 -96.5 -30.5t-24.5 -101.5q0 -54 19.5 -108t49 -108.5t64 -109.5t64 -110.5t49 -111t19.5 -111.5zM165 500q0 -114 23 -207.5t63 -160t94.5 -103.5t116.5 -37q35 0 57 11t34.5 30t17 44.5
t4.5 54.5q0 49 -19.5 100t-49.5 104.5t-64 109.5t-64 113.5t-49.5 116.5t-19.5 119q0 54 10 98.5t33 83.5q-40 -27 -74 -73t-59 -107.5t-39.5 -136.5t-14.5 -160z" />
    <glyph glyph-name="one" unicode="1" 
d="M30 0v10q32 0 50.5 14t27.5 46t11.5 83t2.5 125v472q0 39 -2.5 66t-11.5 43t-27.5 23t-50.5 7v10q25 3 52.5 17.5t51.5 33t42 38t22 32.5h10v-742q0 -74 2.5 -125t11.5 -83t27.5 -46t50.5 -14v-10h-270z" />
    <glyph glyph-name="two" unicode="2" horiz-adv-x="822" 
d="M656 741q0 50 -14.5 98t-44.5 85.5t-75 60.5t-106 23q-60 0 -104.5 -20.5t-74.5 -52t-45 -69.5t-15 -74q0 -26 8.5 -49.5t23 -41.5t33.5 -28.5t41 -10.5q20 0 40 9t20 31q17 -8 17 -32q0 -42 -30.5 -63.5t-71.5 -21.5q-29 0 -56.5 11.5t-48.5 34t-34 57.5t-13 81
q0 64 26.5 111.5t70 78.5t99.5 46t114 15q98 0 161.5 -29t100 -71t50.5 -88.5t14 -81.5q0 -72 -28 -127t-73.5 -98t-104 -77t-120 -63.5t-120 -56.5t-104 -57t-73.5 -65t-28 -80q0 -24 7.5 -40t20 -25.5t28 -13t31.5 -3.5q45 0 91.5 15t96 33.5t104.5 33.5t118 15
q27 0 52 -7t44.5 -20t31 -31t11.5 -39q0 -12 -3.5 -24t-13.5 -20q-15 26 -46 42t-68 14q-54 -2 -102.5 -14.5t-93.5 -26t-88.5 -24.5t-88.5 -11q-64 0 -103.5 39.5t-39.5 99.5q0 61 42.5 110.5t106.5 94.5t139 89t139 93t106.5 106t42.5 129z" />
    <glyph glyph-name="three" unicode="3" horiz-adv-x="846" 
d="M80 197q0 59 28 98.5t91 39.5q24 0 42 -11t27.5 -27t9.5 -33.5t-11 -30.5q-15 6 -29 6q-32 0 -50.5 -22.5t-18.5 -51.5q0 -43 19 -75t50 -54t70.5 -33t79.5 -11q61 0 113 21.5t90.5 63.5t60 105t21.5 147q0 47 -15.5 85.5t-41.5 66.5t-60.5 43.5t-73.5 15.5
q-61 0 -102 -15.5t-70 -33.5t-51 -33.5t-44 -15.5q-18 0 -31.5 15t-13.5 33q0 39 31 60t77.5 36t101 28.5t101 36.5t77.5 61t31 102q0 31 -9.5 65t-32.5 62.5t-61.5 47.5t-96.5 19q-61 0 -102 -15.5t-66 -40t-36 -54t-11 -57.5q0 -14 3.5 -31t11.5 -32t20.5 -25t30.5 -10
q16 0 28.5 6t21.5 22q13 -6 13 -25q0 -33 -26.5 -50t-56.5 -17q-24 0 -46.5 9t-40 27t-28 45t-10.5 63q0 50 28.5 87t72 61.5t95.5 36.5t98 12q54 0 106 -13t92 -39.5t64.5 -65.5t24.5 -91q0 -68 -34.5 -107.5t-86.5 -61.5t-113 -32.5t-113 -21.5t-86.5 -29t-34.5 -54
q0 -17 9.5 -23t18.5 -6q15 0 43 14t65.5 31.5t85 31.5t101.5 14q50 0 92.5 -16.5t74.5 -47t50 -75t18 -100.5q0 -74 -32 -137.5t-84.5 -110.5t-120.5 -73.5t-141 -26.5q-53 0 -108 13.5t-99.5 40.5t-72.5 67.5t-28 95.5z" />
    <glyph glyph-name="four" unicode="4" horiz-adv-x="736" 
d="M30 248q75 111 136.5 210t110.5 190.5t87 178t65 173.5h114q-67 -103 -122.5 -187.5t-109.5 -165.5t-109.5 -165.5t-122.5 -187.5q36 25 85 39t93 14q45 0 84 -14t75.5 -31.5t72 -31.5t72.5 -14q23 0 44.5 4t38 12.5t26.5 21t10 30.5q0 31 -23.5 41.5t-52 18t-52 21
t-23.5 50.5v377h85v-414q0 -18 12 -25.5t26.5 -14.5t26.5 -19t12 -40q0 -37 -22 -64t-55 -43q1 -55 5 -93.5t14 -62.5t27.5 -35t45.5 -11v-10h-270v10q54 0 71.5 41.5t19.5 141.5q-51 0 -90 15t-77 33t-80 32.5t-101 14.5q-48 0 -80.5 -12t-59.5 -28h-9z" />
    <glyph glyph-name="five" unicode="5" horiz-adv-x="860" 
d="M264 470q24 0 45.5 -7.5t37 -20.5t24.5 -31.5t7 -40.5q-16 13 -33.5 20t-40.5 7q-36 0 -60 -16t-39 -39.5t-21.5 -50t-6.5 -46.5q0 -52 17 -98t47.5 -80.5t72.5 -54.5t91 -20q73 0 127.5 34.5t90.5 90t53.5 126t17.5 142.5q0 69 -20 131.5t-58.5 110t-94.5 76t-129 28.5
q-71 0 -113.5 -24.5t-67.5 -54t-38 -54t-26 -24.5q-15 0 -15 47v36.5t0.5 52.5t0.5 54.5v42.5v139q0 32 29.5 53t67.5 21q53 0 97 -11.5t86.5 -26t86.5 -27.5t97 -15q19 -1 38.5 1t36.5 8t30 18.5t19 32.5q15 -23 13.5 -49t-16 -47.5t-40.5 -35.5t-61 -14q-64 0 -110.5 12.5
t-87 27.5t-82 27.5t-97.5 12.5q-15 0 -32 -4.5t-31.5 -13.5t-23.5 -22.5t-9 -31.5q0 -39 -0.5 -66t-1 -49t-1 -42t-0.5 -45v-8.5t1.5 -14t5.5 -13.5t12 -6q9 0 26 21.5t46 47.5t72.5 47.5t105.5 21.5q89 0 157.5 -28.5t116 -79t72 -118t24.5 -145.5q0 -81 -27.5 -154
t-77 -129t-118.5 -89t-152 -33q-62 0 -120.5 21.5t-104 59.5t-73 89.5t-27.5 111.5q0 40 11 77.5t33.5 66.5t57 46.5t82.5 17.5z" />
    <glyph glyph-name="six" unicode="6" horiz-adv-x="860" 
d="M492 1020q37 0 63.5 -6.5t43.5 -14.5q20 -9 34 -21l-6 -8q-10 11 -27 19q-15 8 -39.5 13.5t-61.5 5.5q-78 0 -139 -38.5t-102.5 -106t-63.5 -158.5t-22 -195q0 -106 19 -200.5t54.5 -165t87 -111.5t116.5 -41q61 0 107 31t76.5 85t46 128t15.5 159q0 66 -9.5 130
t-34.5 115t-68.5 82t-110.5 31q-24 0 -52 -8.5t-51.5 -25t-39.5 -40.5t-16 -56q0 -43 16.5 -74t41.5 -55.5t54 -46t54 -45.5t41.5 -53.5t16.5 -71.5q0 -35 -16 -62t-51 -27q-11 0 -20.5 3.5t-15.5 13.5q16 0 22 16.5t6 31.5q0 33 -14.5 59.5t-36.5 49.5t-47 45t-47 48
t-36.5 57t-14.5 71q0 26 13 58t40.5 59.5t70 46t102.5 18.5q69 0 123 -31t90.5 -83t56 -118.5t19.5 -137.5q0 -67 -18.5 -140.5t-58 -134.5t-102.5 -100.5t-152 -39.5q-71 0 -137.5 31t-118 95.5t-82.5 164.5t-31 239t39 236t99.5 158t133.5 88.5t140 27.5z" />
    <glyph glyph-name="seven" unicode="7" horiz-adv-x="770" 
d="M103 1000q0 -14 9 -25.5t23.5 -20t32 -13t34.5 -4.5q44 0 88.5 13t92 28.5t99.5 28.5t110 13q48 0 73 -22t25 -59q0 -47 -26 -96.5t-64.5 -104t-84 -114.5t-84 -128t-64.5 -145.5t-26 -166.5q0 -27 7 -55.5t20 -53.5t30 -44t38 -28q-5 -11 -16 -17t-25 -6q-30 0 -55.5 18
t-44 48t-29.5 70t-11 84q0 78 29 145.5t72.5 127.5t94 113t94 102.5t72.5 96.5t29 94q0 26 -19.5 42t-57.5 16q-47 0 -92.5 -14t-90 -31t-88 -30t-85.5 -12q-24 1 -47.5 9.5t-42.5 23.5t-31 35t-12 43q0 15 6 27t17 12z" />
    <glyph glyph-name="eight" unicode="8" horiz-adv-x="851" 
d="M466 577q33 13 64.5 31.5t56 45t39.5 62.5t15 83q0 51 -19 90t-50 66t-71.5 40.5t-84.5 13.5q-41 0 -80 -15.5t-69 -42.5t-48 -62.5t-18 -75.5q0 -42 15.5 -79t42 -64.5t62 -43.5t75.5 -16l4 -6q-7 -8 -21 -12t-30 -4q-42 0 -84 14.5t-75.5 42.5t-54 68t-20.5 91
q0 53 26 93.5t68.5 67.5t96.5 41t110 14t112 -13.5t100 -40.5t71.5 -68.5t27.5 -97.5q0 -50 -21.5 -85.5t-56.5 -62t-81 -46.5t-96 -38q-58 -21 -116 -44t-104.5 -55t-76 -76t-29.5 -108q0 -66 24 -120t64.5 -93t93.5 -60.5t110 -21.5q60 0 109 25.5t84.5 66.5t54.5 93.5
t19 107.5q0 44 -12.5 88t-35.5 79.5t-57 58.5t-76 26v8q53 0 101 -20t85 -55t59 -82t22 -102q0 -66 -28 -121.5t-76 -96t-112 -63.5t-137 -23q-75 0 -143.5 20t-120.5 57.5t-83 91t-31 120.5q0 58 18.5 98.5t50 69.5t72.5 48t86 34t91.5 28.5t87.5 29.5z" />
    <glyph glyph-name="nine" unicode="9" horiz-adv-x="860" 
d="M411 1020q71 0 137.5 -31t118 -95.5t82.5 -164.5t31 -239t-39 -236t-99.5 -158t-133.5 -88.5t-140 -27.5q-36 0 -63 6.5t-44 14.5q-20 9 -34 21l6 8q10 -11 27 -19q15 -7 39.5 -13t61.5 -6q78 0 139 39t102.5 106.5t63.5 158t22 194.5q0 106 -19 200.5t-54.5 165
t-87 111.5t-116.5 41q-61 0 -106.5 -31t-76.5 -85t-46.5 -127.5t-15.5 -159.5q0 -66 9.5 -130t34.5 -115t68.5 -82t110.5 -31q24 0 52 8.5t51.5 25t39.5 41t16 55.5q0 43 -16.5 74t-41.5 55.5t-54 46t-54 45.5t-41.5 54t-16.5 71q0 35 16 62t51 27q11 0 20.5 -3.5
t15.5 -13.5q-16 0 -22 -16.5t-6 -31.5q0 -33 14.5 -59t36.5 -49.5t47 -45.5t47 -47.5t36.5 -56.5t14.5 -72q0 -26 -13 -58t-40.5 -59.5t-70 -46t-102.5 -18.5q-69 0 -123 31t-90.5 83t-56 118.5t-19.5 137.5q0 68 18.5 141.5t58 134t102.5 100t152 39.5z" />
    <glyph glyph-name="colon" unicode=":" horiz-adv-x="254" 
d="M60 67q0 28 19.5 47.5t47.5 19.5t47.5 -19.5t19.5 -47.5t-19.5 -47.5t-47.5 -19.5t-47.5 19.5t-19.5 47.5zM60 424q0 28 19.5 47.5t47.5 19.5t47.5 -19.5t19.5 -47.5t-19.5 -47.5t-47.5 -19.5t-47.5 19.5t-19.5 47.5z" />
    <glyph glyph-name="semicolon" unicode=";" horiz-adv-x="259" 
d="M60 67q0 28 19.5 47.5t47.5 19.5t50 -22.5t22 -67.5q0 -51 -15 -82.5t-34 -48.5q-22 -20 -49 -29l-1 10q16 4 29.5 17t21.5 30t10.5 36.5t-3.5 35.5q-3 -4 -7 -6q-9 -7 -24 -7q-28 0 -47.5 19.5t-19.5 47.5zM60 424q0 28 19.5 47.5t47.5 19.5t47.5 -19.5t19.5 -47.5
t-19.5 -47.5t-47.5 -19.5t-47.5 19.5t-19.5 47.5z" />
    <glyph glyph-name="less" unicode="&#x3c;" horiz-adv-x="585" 
d="M77 511q73 28 135 60.5t113 60.5t91 47t68 19q25 0 33 -10.5t8 -19.5q0 -12 -5.5 -20.5t-12.5 -13.5q-9 -6 -19 -9l-411 -125l411 -125q10 -3 19 -9q7 -5 12.5 -13t5.5 -21q0 -10 -8 -20t-33 -10q-28 0 -68 19t-91 47t-113 60.5t-135 60.5q-6 2 -11.5 4.5t-5.5 6.5
t5.5 6.5t11.5 4.5z" />
    <glyph glyph-name="equal" unicode="=" horiz-adv-x="620" 
d="M108 615q14 0 38 -5.5t52.5 -11.5t57.5 -11.5t54 -5.5t54 5.5t57.5 11.5t52.5 11.5t38 5.5q20 0 34 -9.5t14 -28.5t-14 -28.5t-34 -9.5q-14 0 -38 5.5t-52.5 11.5t-57.5 11.5t-54 5.5t-54 -5.5t-57.5 -11.5t-52.5 -11.5t-38 -5.5q-20 0 -34 9.5t-14 28.5t14 28.5t34 9.5z
M108 463q14 0 38 -5.5t52.5 -11.5t57.5 -11.5t54 -5.5t54 5.5t57.5 11.5t52.5 11.5t38 5.5q20 0 34 -9.5t14 -28.5t-14 -28.5t-34 -9.5q-14 0 -38 5.5t-52.5 11.5t-57.5 11.5t-54 5.5t-54 -5.5t-57.5 -11.5t-52.5 -11.5t-38 -5.5q-20 0 -34 9.5t-14 28.5t14 28.5t34 9.5z
" />
    <glyph glyph-name="greater" unicode="&#x3e;" horiz-adv-x="585" 
d="M97 375l411 125l-411 125q-10 3 -18 9q-8 5 -13.5 13.5t-5.5 20.5q0 9 8 19.5t33 10.5q29 0 69 -18.5t91 -46.5t113 -60.5t134 -61.5q6 -2 11.5 -4.5t5.5 -6.5t-5.5 -6.5t-11.5 -4.5q-73 -27 -135 -60t-113 -61t-90.5 -47t-68.5 -19q-25 0 -33 10t-8 20q0 13 5.5 21
t13.5 13q8 6 18 9z" />
    <glyph glyph-name="question" unicode="?" horiz-adv-x="775" 
d="M373 1020q72 0 134.5 -22t108.5 -61.5t72.5 -93.5t26.5 -118q0 -81 -33 -131t-82 -83t-106.5 -55t-106.5 -47t-82 -60.5t-33 -93.5q0 -23 7.5 -37t25.5 -31q-3 -8 -17.5 -15.5t-27.5 -7.5q-16 0 -29 8t-22.5 21.5t-14.5 30.5t-5 35q0 68 71 128q38 32 84 56.5t86 53.5
t67.5 67t27.5 96q0 23 -14.5 40t-39.5 17q-29 0 -52 -21t-49 -46.5t-59.5 -46.5t-82.5 -21q-40 0 -71.5 15.5t-53 42t-32.5 60t-11 69.5q0 52 22 97.5t63 79.5t99 54t129 20zM111 824q0 -37 11.5 -71t32.5 -60t50.5 -41t66.5 -15q38 0 61.5 14.5t43 32.5t41 32.5t54.5 14.5
q31 0 47.5 -20t16.5 -48q0 -45 -17 -80.5t-44.5 -62.5t-61.5 -48t-67 -38q53 19 107 29.5t97.5 32t71 63t27.5 122.5q0 59 -21.5 117t-61 103.5t-94.5 74t-123 28.5q-111 0 -174.5 -50t-63.5 -130zM261 -20q-28 0 -47.5 19.5t-19.5 47.5t19.5 47.5t47.5 19.5t47.5 -19.5
t19.5 -47.5t-19.5 -47.5t-47.5 -19.5z" />
    <glyph glyph-name="at" unicode="@" horiz-adv-x="1099" 
d="M549 1020q108 0 202.5 -41t165 -111.5t111.5 -165t41 -202.5q0 -47 -12 -100.5t-37.5 -99.5t-65.5 -76t-97 -30q-42 0 -73.5 13.5t-52.5 34.5t-31.5 45.5t-10.5 46.5v131q-10 -49 -25.5 -93t-40.5 -77t-60.5 -52t-85.5 -19q-37 0 -68 12.5t-53.5 35t-35.5 54t-13 68.5
q0 67 28.5 107.5t71.5 64t93.5 35.5t93.5 24t71.5 28t28.5 48q0 23 -12 40t-31.5 27.5t-43.5 15.5t-47 5q-27 0 -53 -5t-46 -16t-32 -27.5t-12 -40.5q0 -22 12.5 -31t17.5 -4q6 -17 -8.5 -31t-33.5 -14q-25 0 -40.5 18.5t-15.5 43.5q0 28 16 49.5t44.5 35.5t67 21.5
t83.5 7.5q33 0 68 -6.5t64 -19t48 -30t19 -40.5q0 -31 -28.5 -45t-71.5 -23.5t-92.5 -21t-92.5 -35.5t-71.5 -67.5t-28.5 -118.5q0 -60 34.5 -100t91.5 -40q31 0 64 17t60.5 53.5t45 95t17.5 142.5q0 13 -2 24t-11 13q0 4 6 7.5t15 3.5q21 0 33.5 -10t19 -26.5t8.5 -38.5
t2 -45v-176q0 -52 31 -75.5t67 -23.5q59 0 98 30t62.5 74t33 94.5t9.5 91.5q0 105 -40.5 198t-110 162t-162 109.5t-196.5 40.5q-103 0 -195.5 -40.5t-162.5 -109.5t-110.5 -162t-40.5 -198t40.5 -197.5t110 -162t162 -110t195.5 -40.5q94 0 181.5 33.5t156.5 94.5l7 -7
q-69 -61 -157 -96t-188 -35q-107 0 -201.5 41t-165 111.5t-111.5 165t-41 202.5t41 202.5t111.5 165t165 111.5t201.5 41z" />
    <glyph glyph-name="A" unicode="A" horiz-adv-x="876" 
d="M30 175q0 62 29.5 111.5t74 90t96.5 74t96.5 62t74 54.5t29.5 52q0 14 -7 20.5t-17 6.5q-18 0 -33.5 -16.5t-31 -36t-32.5 -36t-38 -16.5t-26 16.5t3 36.5q23 60 42.5 111t38 100t37.5 101t43 114h10l320 -845q33 -83 62 -124t75 -41v-10h-328v10q53 0 80 14t36 39
t2.5 58t-20.5 71l-124 327q6 -48 6 -120q0 -91 -21.5 -168t-62 -132.5t-99 -87t-133.5 -31.5q-43 0 -77 16t-57.5 42.5t-35.5 62t-12 74.5zM115 194q0 -71 41.5 -118.5t115.5 -47.5q63 0 109 34.5t76.5 88.5t45.5 119.5t15 126.5q0 56 -3.5 99.5t-17.5 88.5l-121 319
l-115 -306q-10 -26 -5.5 -36.5t16.5 -10.5q17 0 33 16.5t32.5 36t33.5 36t37 16.5q14 0 23.5 -9.5t9.5 -29.5q0 -33 -24 -60.5t-60.5 -54t-78.5 -54.5t-78.5 -64t-60.5 -82t-24 -108z" />
    <glyph glyph-name="B" unicode="B" horiz-adv-x="839" 
d="M30 10q32 0 50.5 14t27.5 46t11.5 83t2.5 125v444q0 74 -2.5 125t-11.5 83t-27.5 46t-50.5 14v10h116q33 0 71.5 3t78.5 7t78.5 7t71.5 3q53 0 101.5 -9t86 -30.5t60 -56.5t22.5 -88q0 -65 -33.5 -109t-83.5 -73.5t-109 -49.5t-109 -37.5t-83.5 -36t-33.5 -46.5
q0 -17 10 -21.5t19 -4.5q16 0 37 9.5t47 21t57 21t67 9.5q57 0 108 -17.5t88.5 -50.5t59.5 -79t22 -103q0 -65 -22 -118t-64 -91t-104 -59t-142 -21q-43 0 -79.5 3t-71 7t-70 7t-76.5 3h-120v10zM207 978v-952q46 -17 86.5 -24.5t96.5 -7.5q70 0 126 18.5t95.5 53t60.5 84.5
t21 112q0 45 -12.5 89t-37 79t-60.5 56.5t-83 21.5q-31 0 -60 -9.5t-55 -20.5t-50 -20.5t-46 -9.5q-14 0 -24.5 8t-10.5 26q0 33 28 57.5t69.5 47t90.5 45t90.5 50.5t69.5 65t28 87q0 47 -20.5 79.5t-54.5 53t-77.5 30t-89.5 9.5q-49 0 -93 -7t-88 -21z" />
    <glyph glyph-name="C" unicode="C" horiz-adv-x="832" 
d="M505 1020q86 0 144.5 -20t94.5 -51t52 -68t16 -71q0 -52 -21 -93.5t-52.5 -76.5t-68 -64t-68 -56.5t-52.5 -54t-21 -56.5q0 -23 7.5 -37.5t22.5 -27.5q-20 -4 -36 3.5t-27.5 21.5t-17.5 32.5t-6 35.5q0 44 21 79t52 65.5t67.5 57.5t67.5 54.5t52 58t21 66.5q0 90 -61 140
t-187 50q-78 0 -143 -38.5t-112 -106t-73.5 -160.5t-26.5 -203q0 -109 28.5 -202.5t77 -161t113 -106t136.5 -38.5q42 0 76 7t62 19t50 27t38 31q38 37 59 84h11v-134q-60 -19 -130 -32.5t-166 -13.5q-93 0 -174.5 39t-141.5 108.5t-94.5 165t-34.5 207.5q0 113 34.5 208
t94.5 164.5t141.5 108.5t174.5 39z" />
    <glyph glyph-name="D" unicode="D" horiz-adv-x="903" 
d="M30 10q32 0 50.5 14t27.5 46t11.5 83t2.5 125v444q0 74 -2.5 125t-11.5 83t-27.5 46t-50.5 14v10h80q79 0 146 10t133 10q116 0 201 -42.5t141.5 -114.5t84 -166t27.5 -197t-27.5 -197t-84 -166t-141.5 -114.5t-201 -42.5q-66 0 -133 10t-146 10h-80v10zM207 22
q44 -14 88 -21t93 -7q93 0 162 40.5t115 110t69 161.5t23 194t-23 194t-69 161.5t-115 110t-162 40.5q-49 0 -93 -7t-88 -21v-956z" />
    <glyph glyph-name="E" unicode="E" horiz-adv-x="776" 
d="M30 0v10q32 0 50.5 14t27.5 46t11.5 83t2.5 125v444q0 74 -2.5 125t-11.5 83t-27.5 46t-50.5 14v10h716v-135h-10v4q0 51 -94 86t-268 35h-166v-430q23 22 52 34t64 12q37 0 67 -9.5t58 -21.5t56 -21.5t61 -9.5q29 0 51.5 15.5t22.5 41.5h10q0 -45 -34 -77.5t-94 -32.5
q-46 0 -79.5 13.5t-61.5 29.5t-52 30t-51 15q-22 1 -40 -9t-30 -26v-534h128q24 0 62.5 1.5t83 6.5t90 15.5t82 27.5t59.5 42.5t23 61.5h10v-165h-716z" />
    <glyph glyph-name="F" unicode="F" horiz-adv-x="775" 
d="M30 990v10h715v-135h-10v4q0 51 -94 86t-268 35h-165v-443q9 20 40 39.5t76 19.5q37 0 67 -9.5t58 -21.5t56 -21.5t61 -9.5q29 0 51.5 15.5t22.5 41.5h10q0 -45 -34 -77.5t-94 -32.5q-46 0 -79.5 14t-61.5 30.5t-52 30t-51 13.5q-39 0 -54.5 -26.5t-15.5 -61.5v-213
q0 -74 2.5 -125t11.5 -83t27.5 -46t50.5 -14v-10h-270v10q32 0 50.5 14t27.5 46t11.5 83t2.5 125v444q0 74 -2.5 125t-11.5 83t-27.5 46t-50.5 14z" />
    <glyph glyph-name="G" unicode="G" horiz-adv-x="921" 
d="M60 500q0 113 34.5 208t94.5 164.5t141.5 108.5t174.5 39t160 -13t125 -33v-134h-10q-20 47 -57 84q-32 32 -84.5 58t-133.5 26q-78 0 -143 -38.5t-112 -106t-73.5 -160.5t-26.5 -203q0 -109 28.5 -202.5t77 -161t113 -106t136.5 -38.5q66 0 113.5 24.5t78.5 56.5
t45.5 63.5t14.5 44.5v141q0 56 -19.5 89.5t-51 51t-72 22.5t-82.5 5q-43 0 -84 -1.5t-73 3t-51.5 19t-19.5 45.5q0 32 15.5 55.5t38 39.5t49.5 23.5t49 7.5q56 0 101 -14t86.5 -31.5t83 -31.5t89.5 -14q26 0 40.5 5t22.5 10q8 7 10 15q6 -24 -0.5 -42t-21 -30.5t-35.5 -19
t-44 -6.5q-45 0 -92 15t-93 33t-89 33t-80 15q-23 0 -44.5 -4t-38 -12.5t-26.5 -21t-10 -30.5q0 -34 38 -43.5t96 -9.5q59 0 127.5 1.5t128 -12t99 -51t39.5 -114.5v-144q-57 -95 -143.5 -146.5t-194.5 -51.5q-93 0 -174.5 39t-141.5 108.5t-94.5 165t-34.5 207.5z" />
    <glyph glyph-name="H" unicode="H" horiz-adv-x="916" 
d="M300 1000v-10q-32 0 -50.5 -14t-27.5 -46t-11.5 -83t-2.5 -125v-175q9 20 40 39.5t76 19.5q37 0 71.5 -9.5t67.5 -21.5t65.5 -21.5t65.5 -9.5q29 0 51.5 15.5t22.5 41.5h10q0 -45 -34 -77.5t-94 -32.5q-46 0 -84 14t-71 30.5t-61.5 30t-55.5 13.5q-39 0 -54.5 -26.5
t-15.5 -61.5v-213q0 -74 2.5 -125t11.5 -83t27.5 -46t50.5 -14v-10h-270v10q32 0 50.5 14t27.5 46t11.5 83t2.5 125v444q0 74 -2.5 125t-11.5 83t-27.5 46t-50.5 14v10h270zM616 10q32 0 50.5 14t27.5 46t11.5 83t2.5 125v444q0 74 -2.5 125t-11.5 83t-27.5 46t-50.5 14v10
h270v-10q-32 0 -50.5 -14t-27.5 -46t-11.5 -83t-2.5 -125v-444q0 -74 2.5 -125t11.5 -83t27.5 -46t50.5 -14v-10h-270v10z" />
    <glyph glyph-name="I" unicode="I" 
d="M30 10q32 0 50.5 14t27.5 46t11.5 83t2.5 125v444q0 74 -2.5 125t-11.5 83t-27.5 46t-50.5 14v10h270v-10q-32 0 -50.5 -14t-27.5 -46t-11.5 -83t-2.5 -125v-444q0 -74 2.5 -125t11.5 -83t27.5 -46t50.5 -14v-10h-270v10z" />
    <glyph glyph-name="J" unicode="J" horiz-adv-x="317" 
d="M-48 -196q3 0 6 -1h10q37 0 65 20t47 55t29 83.5t10 105.5v655q0 74 -2.5 125t-11.5 83t-27.5 46t-50.5 14v10h270v-10q-32 0 -50.5 -14t-27.5 -46t-11.5 -83t-2.5 -125v-653q0 -54 -16 -104t-45.5 -89t-70 -62.5t-88.5 -23.5q-12 0 -19 1t-16 3z" />
    <glyph glyph-name="K" unicode="K" horiz-adv-x="845" 
d="M247 500q0 23 29.5 42t74 40.5t96.5 48.5t96.5 64.5t74 88.5t29.5 121q0 28 -9 55.5t-26 39.5h99q14 -13 22 -39t8 -54q0 -77 -36 -133t-89.5 -95.5t-116.5 -66.5t-116.5 -46.5t-89.5 -34.5t-36 -31q0 -21 29.5 -30.5t72.5 -23t90.5 -39.5t83.5 -80q35 -52 70.5 -108.5
t73 -102.5t76.5 -76t82 -30v-10h-153q-17 0 -33.5 13.5t-40.5 47.5t-61.5 92t-96.5 147q-42 62 -78.5 93t-64.5 47.5t-44 27.5t-16 32zM30 1000h269v-10q-32 0 -50.5 -14t-27.5 -46t-11.5 -83t-2.5 -125v-444q0 -74 2.5 -125t11.5 -83t27.5 -46t50.5 -14v-10h-269v10
q32 0 50.5 14t27.5 46t11.5 83t2.5 125v444q0 74 -2.5 125t-11.5 83t-27.5 46t-50.5 14v10z" />
    <glyph glyph-name="L" unicode="L" horiz-adv-x="775" 
d="M30 10q32 0 50.5 14t27.5 46t11.5 83t2.5 125v444q0 74 -2.5 125t-11.5 83t-27.5 46t-50.5 14v10h270v-10q-32 0 -50.5 -14t-27.5 -46t-11.5 -83t-2.5 -125v-712h127q24 0 62.5 1.5t83 6.5t90 15.5t82 27.5t59.5 42.5t23 61.5h10v-165h-715v10z" />
    <glyph glyph-name="M" unicode="M" horiz-adv-x="1081" 
d="M30 990v10h161l384 -806l300 806h176v-10q-32 0 -50.5 -14t-27.5 -46t-11.5 -83t-2.5 -125v-444q0 -74 2.5 -125t11.5 -83t27.5 -46t50.5 -14v-10h-270v10q32 0 50.5 14t27.5 46t11.5 83t2.5 125v689q-40 -108 -80 -215t-80.5 -216.5t-83 -224t-88.5 -238.5h-9
q-59 126 -107.5 229.5t-94 202t-93 200.5t-104.5 224l-1 -429v-127q0 -109 14 -179.5t37.5 -111t54 -56.5t62.5 -16v-10h-270v10q32 0 50.5 14t27.5 46t11.5 83t2.5 125v444q0 74 -2.5 125t-11.5 83t-27.5 46t-50.5 14z" />
    <glyph glyph-name="N" unicode="N" horiz-adv-x="897" 
d="M205 1000l560 -854v436q0 109 -14 186.5t-37.5 126.5t-54 72t-62.5 23v10h270v-10q-32 0 -50.5 -14t-27.5 -46t-11.5 -83t-2.5 -125v-742h-10l-633 964v-526q0 -109 14 -186.5t37.5 -126.5t54 -72t62.5 -23v-10h-270v10q32 0 50.5 14t27.5 46t11.5 83t2.5 125v444
q0 74 -2.5 125t-11.5 83t-27.5 46t-50.5 14v10h175z" />
    <glyph glyph-name="O" unicode="O" horiz-adv-x="1010" 
d="M60 500q0 113 34.5 208t94.5 164.5t141.5 108.5t174.5 39t174.5 -39t141.5 -108.5t94.5 -164.5t34.5 -208q0 -112 -34.5 -207.5t-94.5 -165t-141.5 -108.5t-174.5 -39t-174.5 39t-141.5 108.5t-94.5 165t-34.5 207.5zM150 500q0 -109 28.5 -202.5t77 -161t113 -106
t136.5 -38.5t136.5 38.5t113 106t77 161t28.5 202.5q0 110 -26.5 203t-73.5 160.5t-112 106t-143 38.5t-143 -38.5t-112 -106t-73.5 -160.5t-26.5 -203z" />
    <glyph glyph-name="P" unicode="P" horiz-adv-x="839" 
d="M30 990v10h120q41 0 76.5 3t70 7t71 7t79.5 3q80 0 142 -23.5t104 -65.5t64 -99t22 -124q0 -61 -22 -118t-65.5 -100.5t-107.5 -70t-147 -26.5q-33 0 -67 4.5t-65 11.5t-56.5 15.5t-41.5 15.5v-162q0 -74 2.5 -125t11.5 -83t27.5 -46t50.5 -14v-10h-269v10q32 0 50.5 14
t27.5 46t11.5 83t2.5 125v444q0 74 -2.5 125t-11.5 83t-27.5 46t-50.5 14zM419 413q75 0 127 29t84.5 73t47.5 95.5t15 96.5q0 68 -21 123t-60.5 94t-95.5 60.5t-126 21.5q-56 0 -96.5 -7.5t-86.5 -24.5v-524q38 -16 92 -26.5t120 -10.5z" />
    <glyph glyph-name="Q" unicode="Q" horiz-adv-x="1014" 
d="M505 1019q93 0 174.5 -39t141.5 -108.5t94.5 -164.5t34.5 -208q0 -115 -31.5 -199t-81.5 -144.5t-111 -102t-121 -73.5q-39 -21 -77.5 -39t-66.5 -45q15 8 30.5 13.5t35.5 5.5q51 0 100 -18t105 -39t125 -39t161 -18q43 0 75.5 24.5t43.5 60.5q5 -3 7 -9.5t2 -11.5
q0 -33 -17.5 -60.5t-45.5 -47t-63.5 -30t-71.5 -10.5q-64 0 -117.5 29t-103 64t-100 64t-109.5 29q-40 0 -74 -29l-7 8q8 11 19 22q10 10 24 22t33 24q95 57 161 113.5t108 120.5t61 140t19 173q0 110 -26.5 203t-73.5 160.5t-112 106t-143 38.5t-143 -38.5t-112 -106
t-73.5 -160.5t-26.5 -203q0 -74 13.5 -154t45.5 -147t84.5 -110t130.5 -43q27 0 56 11.5t53 34t40 55t16 74.5q0 62 -19 113.5t-48 96t-62 85.5t-62 83t-48 87.5t-19 99.5q0 31 8.5 56.5t20 44t24.5 28.5t22 10l3 -6q-18 -8 -24 -28t-6 -37q0 -47 19.5 -91t49.5 -88
t64 -88.5t64 -91t49.5 -96.5t19.5 -105q0 -48 -16.5 -94.5t-46 -82.5t-70.5 -58.5t-90 -22.5q-88 0 -156 37t-114 100.5t-70 148t-24 180.5q0 113 34.5 208t94.5 164.5t141.5 108.5t174.5 39z" />
    <glyph glyph-name="R" unicode="R" horiz-adv-x="872" 
d="M30 990v10h120q41 0 76.5 3t70 7t71 7t79.5 3q80 0 142 -21t104 -58.5t64 -89t22 -112.5q0 -51 -20 -98.5t-57.5 -83.5t-90.5 -57.5t-118 -21.5q-35 0 -65 10t-54.5 22t-44.5 22t-36 10q-9 0 -19 -4.5t-10 -21.5q0 -24 34 -41.5t81 -38t96.5 -49.5t80.5 -76
q30 -46 62.5 -99t68 -98t74 -74.5t81.5 -29.5v-10h-153q-17 0 -33.5 13.5t-40.5 47.5t-61.5 92t-96.5 147q-36 55 -72.5 86t-65.5 52t-47 38t-18 42q0 18 10.5 26t24.5 8q22 0 42.5 -9t43.5 -19.5t50 -19.5t62 -9q47 0 85 21t65 55.5t41.5 78t14.5 88.5q0 62 -21 112
t-60.5 84.5t-95.5 53t-126 18.5q-56 0 -96.5 -7.5t-86.5 -24.5v-696q0 -74 2.5 -125t11.5 -83t27.5 -46t50.5 -14v-10h-269v10q32 0 50.5 14t27.5 46t11.5 83t2.5 125v444q0 74 -2.5 125t-11.5 83t-27.5 46t-50.5 14z" />
    <glyph glyph-name="S" unicode="S" horiz-adv-x="822" 
d="M60 760q0 52 23.5 99t69 83t112 57t153.5 21q93 0 160 -13t125 -33v-134h-10q-20 47 -57 84q-32 32 -84.5 58t-133.5 26q-70 0 -123.5 -19.5t-90 -51t-55.5 -71.5t-19 -82q0 -51 27 -87t71.5 -62t101.5 -46t116 -40t116 -43.5t101.5 -57t71.5 -79.5t27 -112
q0 -52 -26 -102t-75 -89t-118 -62.5t-156 -23.5q-49 0 -95.5 11.5t-87.5 29t-76.5 39t-63.5 42.5v134h10q40 -67 95 -119q24 -22 53 -43.5t63 -38t73.5 -27t84.5 -10.5q55 0 102.5 18.5t83 49t55.5 69.5t20 81q0 56 -27.5 96t-73 69.5t-103.5 52t-118 44t-118 45.5
t-103.5 56t-73 76t-27.5 105z" />
    <glyph glyph-name="T" unicode="T" horiz-adv-x="759" 
d="M30 865v135h699v-135h-10q0 2 0.5 1.5t0.5 2.5q0 25 -22.5 47t-62 38.5t-94 26t-119.5 9.5v-712q0 -74 1 -125t8.5 -83t25 -46t49.5 -14v-10h-261v10q32 0 50.5 14t27.5 46t11.5 83t2.5 125v712q-64 0 -119 -9.5t-94.5 -26t-62 -38.5t-22.5 -47q0 -3 0.5 -2.5t0.5 -1.5
h-10z" />
    <glyph glyph-name="U" unicode="U" horiz-adv-x="916" 
d="M30 1000h270v-10q-32 0 -50.5 -14t-27.5 -46t-11.5 -83t-2.5 -125v-444q0 -73 19.5 -127t53.5 -90t80 -53.5t99 -17.5t98.5 18t78.5 54t52 90t19 126v444q0 74 -2.5 125t-11.5 83t-27.5 46t-50.5 14v10h270v-10q-32 0 -50.5 -14t-27.5 -46t-11.5 -83t-2.5 -125v-444
q0 -75 -26.5 -131t-71.5 -93t-106 -55.5t-130 -18.5t-130.5 18t-107.5 55t-73 93t-27 132v444q0 74 -2.5 125t-11.5 83t-27.5 46t-50.5 14v10z" />
    <glyph glyph-name="V" unicode="V" horiz-adv-x="924" 
d="M0 990v10h328v-10q-53 0 -80 -14t-36 -39t-2.5 -58t20.5 -71l270 -712q63 178 130 354t124 355q10 30 13.5 62.5t-7 60t-38.5 45t-81 17.5v10h283v-10q-46 0 -75.5 -40.5t-61.5 -124.5l-320 -845h-10l-320 845q-33 83 -62 124t-75 41z" />
    <glyph glyph-name="W" unicode="W" horiz-adv-x="1340" 
d="M0 1000h328v-10q-53 0 -80 -14t-36 -39t-2.5 -58t20.5 -71l270 -712q39 111 80 220.5t82 221.5l-109 287q-33 83 -62 124t-75 41v10h508v-10q-46 0 -75.5 -40.5t-61.5 -124.5l-74 -195l203 -534q63 178 130 354t124 355q10 30 13.5 62.5t-7 60t-38.5 45t-81 17.5v10h283
v-10q-46 0 -75.5 -40.5t-61.5 -124.5l-320 -845h-10l-203 536l-203 -536h-10l-320 845q-33 83 -62 124t-75 41v10zM646 808l58 -152q13 37 25.5 74t24.5 75q8 26 15.5 58t4.5 60t-21.5 47t-62.5 19q-36 0 -52 -16t-18.5 -42t6 -58.5t20.5 -64.5z" />
    <glyph glyph-name="X" unicode="X" horiz-adv-x="859" 
d="M30 0v9q42 0 88 59t115 174q21 35 42.5 71.5t41.5 70.5t37 62.5t29 47.5l-3 6q-9 18 -24.5 45t-34.5 59.5t-40.5 69t-43.5 73.5q-71 122 -117.5 182.5t-88.5 60.5v10h295v-10h-22q-21 0 -37.5 -11.5t-16.5 -41.5q0 -21 23 -68.5t56.5 -107.5t71.5 -125t69 -119
q56 96 93 164t59.5 117t32.5 81t10 56q1 29 -17 42.5t-39 13.5h-27v9h247v-9q-42 0 -88 -59t-115 -174q-21 -35 -42.5 -71.5t-41.5 -70.5t-37 -62.5t-29 -47.5l3 -6q9 -18 24.5 -45t34.5 -59.5t40.5 -69t43.5 -73.5q71 -121 117.5 -182t88.5 -61v-10h-295v10h22
q21 0 37.5 11.5t16.5 41.5q0 21 -23 68.5t-56.5 107.5t-71.5 125t-69 120q-55 -96 -92.5 -164.5t-60 -117.5t-32.5 -81t-10 -56q-1 -29 17 -42.5t39 -13.5h27v-9h-247z" />
    <glyph glyph-name="Y" unicode="Y" horiz-adv-x="818" 
d="M0 990v10h278v-10h-22q-21 0 -37.5 -11.5t-16.5 -41.5q0 -17 14 -51.5t36.5 -79.5t50 -95.5t55 -100t52 -93t39.5 -73.5q17 33 41.5 78t50.5 95t52 101.5t46.5 96t33.5 78.5t13 51q0 27 -17.5 36.5t-38.5 9.5h-26v10h214v-10q-28 0 -49 -14.5t-41 -45t-43.5 -77.5
t-57.5 -112q-23 -43 -48.5 -89t-49.5 -88.5t-44 -79t-33 -61.5v-145q0 -74 2.5 -125t11.5 -83t27.5 -46t50.5 -14v-10h-270v10q32 0 50.5 14t27.5 46t11.5 83t2.5 125v145q-13 25 -33 61.5t-44 79t-49.5 88.5t-48.5 89q-34 65 -57.5 112t-43.5 77.5t-40.5 45t-49.5 14.5z
" />
    <glyph glyph-name="Z" unicode="Z" horiz-adv-x="789" 
d="M656 990h-285q-64 0 -118.5 -9.5t-94 -26t-61.5 -38.5t-22 -47v-4h-10v135h694l-626 -990h143q24 0 66 1.5t91.5 6.5t101 15.5t93 27.5t68 42.5t26.5 61.5h10v-165h-702z" />
    <glyph glyph-name="bracketleft" unicode="[" horiz-adv-x="453" 
d="M393 1169v-20h-252v-1298h252v-20h-333v1338h333z" />
    <glyph glyph-name="backslash" unicode="\" horiz-adv-x="454" 
d="M70 1020l324 -1040h-10l-324 1040h10z" />
    <glyph glyph-name="bracketright" unicode="]" horiz-adv-x="453" 
d="M393 1169v-1338h-333v20h252v1298h-252v20h333z" />
    <glyph glyph-name="grave" unicode="`" horiz-adv-x="313" 
d="M60 1148q0 11 7 19t21 8q18 0 28.5 -13.5t23 -29t31 -29t50.5 -13.5h32v-10h-76q-19 0 -39.5 5t-37.5 14t-28.5 21.5t-11.5 27.5z" />
    <glyph glyph-name="a" unicode="a" horiz-adv-x="746" 
d="M60 202q0 66 21.5 111.5t57.5 76.5t81.5 50.5t92.5 33t92.5 24t81.5 24t57.5 32.5t21.5 50q0 30 -16 52t-41 35.5t-56.5 20t-61.5 6.5q-36 0 -69.5 -6.5t-59.5 -20.5t-42 -36t-16 -53q0 -14 5 -24.5t11.5 -16.5t13.5 -7t10 2q4 -11 0 -21.5t-12 -18.5t-20 -13t-24 -5
q-32 0 -52 24t-20 56q0 37 21 65t57.5 47t87 28.5t109.5 9.5q42 0 88 -8.5t84.5 -25t63 -39.5t24.5 -53t-21.5 -47.5t-57 -29t-80.5 -20t-92.5 -20.5t-92.5 -31t-80.5 -52t-57 -83t-21.5 -123q0 -39 12 -72.5t33.5 -58t51.5 -38.5t67 -14q41 0 84 22t79 70t59 124.5
t23 185.5q0 17 -3 31.5t-14 17.5q0 5 7.5 9.5t19.5 4.5q27 0 43.5 -13t25 -35t11 -50t2.5 -58v-55.5t0.5 -43.5t0.5 -46v-65q0 -31 8 -51t20 -31.5t25 -15.5t23 -4v-10h-71q-40 0 -67.5 33.5t-27.5 90.5v171q-13 -64 -33.5 -121.5t-53 -100.5t-78.5 -68t-112 -25
q-48 0 -89 16.5t-71 46t-46.5 70.5t-16.5 89z" />
    <glyph glyph-name="b" unicode="b" horiz-adv-x="804" 
d="M30 0v10q32 0 50.5 14t27.5 46t11.5 83t2.5 125v444q0 74 -2.5 125t-11.5 83t-27.5 46t-50.5 14v10h178v-409q45 68 106.5 102.5t136.5 34.5q63 0 116.5 -21.5t92.5 -61.5t61.5 -97.5t22.5 -129.5q0 -100 -30 -177.5t-83.5 -131t-127 -81.5t-160.5 -28h-313zM208 37
q26 -12 55.5 -19.5t67.5 -7.5q64 0 123 30t104.5 82t72.5 122.5t27 152.5q0 84 -22.5 142.5t-58.5 95t-80.5 53t-88.5 16.5q-39 0 -75 -14t-63.5 -45.5t-44.5 -82.5t-17 -125v-400z" />
    <glyph glyph-name="c" unicode="c" horiz-adv-x="733" 
d="M403 728q64 0 115 -10.5t87 -24.5q42 -15 75 -35v-118h-4q-21 41 -51.5 74t-67 55.5t-77 34.5t-79.5 12q-76 0 -125.5 -36.5t-78.5 -90.5t-40.5 -116.5t-10.5 -115.5q1 -69 21 -131.5t57.5 -109.5t91.5 -74.5t123 -27.5q30 0 67.5 8.5t74 29t68.5 53.5t50 81l14 -6
q-39 -90 -118.5 -145t-191.5 -55q-81 0 -144.5 29.5t-107.5 80.5t-67.5 119t-23.5 145t23.5 145t67.5 119t107.5 80.5t144.5 29.5z" />
    <glyph glyph-name="d" unicode="d" horiz-adv-x="834" 
d="M403 728q79 0 132 -15t101 -45v54q0 74 -2.5 125t-11.5 83t-27.5 46t-50.5 14v10h178v-722q0 -74 2.5 -125t11.5 -83t27.5 -46t50.5 -14v-10h-178v79q-36 -43 -98 -71t-135 -28q-81 0 -144.5 29.5t-107.5 80.5t-67.5 119t-23.5 145t23.5 145t67.5 119t107.5 80.5
t144.5 29.5zM145 354q0 -82 18.5 -149t52.5 -114.5t81.5 -73t105.5 -25.5q41 0 82 14.5t75 39.5t55 59t21 74v410q-11 17 -30 39t-47.5 41.5t-67 33t-88.5 13.5q-58 0 -105.5 -25.5t-81.5 -73t-52.5 -114t-18.5 -149.5z" />
    <glyph glyph-name="e" unicode="e" horiz-adv-x="773" 
d="M60 354q0 77 23.5 145t67.5 119t107.5 80.5t144.5 29.5t138.5 -21.5t95 -55t55 -73.5t17.5 -78q0 -85 -47 -133t-134 -48q-60 0 -102 14t-75.5 30.5t-63.5 30.5t-67 14q-18 0 -32.5 -9.5t-16.5 -15.5l-4 1q0 31 26.5 55.5t78.5 24.5q39 0 74 -21t67 -45.5t62 -45.5
t60 -21q37 0 61.5 28.5t33.5 71.5t1 92.5t-35 92.5t-75 71.5t-120 28.5q-76 0 -125.5 -36.5t-78.5 -90.5t-40.5 -116.5t-10.5 -115.5q1 -69 21 -131.5t57.5 -109.5t91.5 -74.5t123 -27.5q30 0 67.5 8.5t74 29t68.5 53.5t50 81l14 -6q-39 -90 -118.5 -145t-191.5 -55
q-81 0 -144.5 29.5t-107.5 80.5t-67.5 119t-23.5 145z" />
    <glyph glyph-name="f" unicode="f" horiz-adv-x="541" 
d="M30 10q32 0 50.5 14t27.5 46t11.5 83t2.5 125v511q0 45 20.5 87t57 74t85.5 51.5t106 19.5q47 0 85 -7.5t65 -15.5v-112h-10q-8 50 -50.5 84t-128.5 34q-53 0 -82.5 -23.5t-43 -56.5t-16 -69t-2.5 -61v-143q10 26 33 45t57 19q20 0 35.5 -3.5t31.5 -7.5t34.5 -7.5
t44.5 -3.5q12 0 22.5 4.5t13.5 15.5h3q7 -32 -14.5 -53.5t-53.5 -19.5q-19 1 -36.5 6t-35.5 10.5t-37 10t-39 4.5q-26 0 -42.5 -15t-16.5 -48v-330q0 -74 2.5 -125t11.5 -83t27.5 -46t50.5 -14v-10h-270v10z" />
    <glyph glyph-name="g" unicode="g" horiz-adv-x="729" 
d="M175 -64q35 0 60.5 -7t50 -15t50.5 -15t61 -7q9 0 21 2.5t22 8.5t15.5 15.5t1.5 23.5l4 1q14 -18 15 -41t-10.5 -44t-34 -35t-54.5 -14q-28 0 -50.5 7t-45 15t-48.5 15t-60 7q-17 0 -33.5 -6t-30 -17t-22 -26.5t-8.5 -33.5q0 -44 19 -80t53.5 -61.5t82 -39.5t104.5 -14
q58 0 111.5 22t94.5 61.5t65.5 93.5t24.5 118q0 39 -16 72t-45 57t-70.5 37.5t-91.5 13.5q-31 0 -52 -3t-39.5 -6t-38.5 -6t-49 -3q-30 0 -57 14t-27 44q0 37 31.5 54t78.5 28.5t102 25t102 41.5t78.5 79t31.5 137q0 51 -14.5 98t-42.5 83t-68 58t-91 22t-91.5 -22.5
t-68 -59t-42.5 -84t-15 -98.5t16.5 -93t44.5 -71.5t66 -46t80 -16.5v-9q-23 -4 -50 -4q-55 0 -99.5 19.5t-76.5 52.5t-49.5 76.5t-17.5 91.5q0 53 20.5 103t59.5 88.5t95.5 61.5t127.5 23h302v-32l-216 22q51 -13 91.5 -39.5t68 -62t42 -77.5t14.5 -87q0 -91 -37 -144.5
t-92.5 -83.5t-120 -42.5t-120 -22t-92.5 -23t-37 -44.5q0 -25 23.5 -37.5t49.5 -12.5q36 0 67 7.5t61 16.5t60.5 16.5t66.5 7.5q44 0 84.5 -16t71 -44.5t48.5 -67.5t18 -84q0 -65 -25.5 -122t-74 -99.5t-117.5 -67t-156 -24.5q-69 0 -127 14t-100 42.5t-65.5 70t-23.5 97.5
q0 33 13.5 60t35 46.5t49.5 30t57 10.5z" />
    <glyph glyph-name="h" unicode="h" horiz-adv-x="787" 
d="M30 0v10q32 0 50.5 14t27.5 46t11.5 83t2.5 125v444q0 74 -2.5 125t-11.5 83t-27.5 46t-50.5 14v10h178v-289q14 0 40.5 2.5t56.5 6t58.5 6t44.5 2.5q33 0 79 -5.5t88 -27.5t71 -66.5t29 -123.5v-227q0 -74 2.5 -125t11.5 -83t27.5 -46t50.5 -14v-10h-270v10
q32 0 50.5 14t27.5 46t11.5 83t2.5 125v114q-1 42 -1 92q0 84 -25.5 130.5t-61.5 68.5t-74 26.5t-64 4.5q-38 0 -78.5 -8t-76.5 -21v-407q0 -74 2.5 -125t11.5 -83t27.5 -46t50.5 -14v-10h-270z" />
    <glyph glyph-name="i" unicode="i" horiz-adv-x="320" 
d="M30 0v10q32 0 50.5 14t27.5 46t11.5 83t2.5 125v152q0 74 -2.5 125t-11.5 83t-27.5 46t-50.5 14v10h178v-430q0 -74 2.5 -125t11.5 -83t27.5 -46t50.5 -14v-10h-270zM160 906q28 0 47.5 -19.5t19.5 -47.5t-19.5 -47.5t-47.5 -19.5t-47.5 19.5t-19.5 47.5t19.5 47.5
t47.5 19.5z" />
    <glyph glyph-name="j" unicode="j" horiz-adv-x="287" 
d="M-43 -404q23 -18 58 -18q34 0 54.5 19.5t31 48t13.5 61.5t3 60v663q0 74 -2.5 125t-11.5 83t-27.5 46t-50.5 14v10h178v-926q0 -38 -11 -77t-33.5 -70.5t-55.5 -51t-77 -19.5q-26 0 -44 6t-32 16zM160 772q-28 0 -47.5 19.5t-19.5 47.5t19.5 47.5t47.5 19.5t47.5 -19.5
t19.5 -47.5t-19.5 -47.5t-47.5 -19.5z" />
    <glyph glyph-name="k" unicode="k" horiz-adv-x="700" 
d="M30 10q32 0 50.5 14t27.5 46t11.5 83t2.5 125v444q0 74 -2.5 125t-11.5 83t-27.5 46t-50.5 14v10h178v-722q0 -74 2.5 -125t11.5 -83t27.5 -46t50.5 -14v-10h-270v10zM435 248q-31 56 -66 84t-65 44.5t-50 28.5t-20 35t21.5 37t54 25t70 21.5t70 26.5t54 40t21.5 62
q0 20 -10.5 33t-36.5 13v10h120q11 0 14 -8t3 -18q0 -49 -27.5 -81.5t-68.5 -53.5t-89.5 -33.5t-89.5 -23t-68.5 -21.5t-27.5 -29q0 -22 28.5 -32t70.5 -25.5t89 -44t84 -88.5q15 -25 24 -48t15 -45.5t12.5 -46t16.5 -48.5q11 -25 30 -38.5t56 -13.5v-10h-115
q-18 0 -29.5 10.5t-20 26t-13.5 34.5t-10 36q-11 44 -22 79.5t-25 61.5z" />
    <glyph glyph-name="l" unicode="l" 
d="M30 1000h178v-722q0 -74 2.5 -125t11.5 -83t27.5 -46t50.5 -14v-10h-270v10q32 0 50.5 14t27.5 46t11.5 83t2.5 125v444q0 74 -2.5 125t-11.5 83t-27.5 46t-50.5 14v10z" />
    <glyph glyph-name="m" unicode="m" horiz-adv-x="1253" 
d="M144 708q31 0 68 3t73.5 7t69 7t53.5 3q36 0 86 -6.5t94 -34.5q12 0 36.5 6.5t60.5 14t83.5 14t105.5 6.5q33 0 79 -5.5t88 -27.5t71 -66.5t29 -123.5v-227q0 -74 2.5 -125t11.5 -83t27.5 -46t50.5 -14v-10h-270v10q32 0 50.5 14t27.5 46t11.5 83t2.5 125v114
q-1 42 -1 92q0 84 -25.5 130.5t-61.5 69t-74 27t-64 4.5q-55 0 -108 -12.5t-101 -40.5q25 -25 40 -63t15 -94v-227q0 -74 2.5 -125t11.5 -83t27.5 -46t50.5 -14v-10h-270v10q32 0 50.5 14t27.5 46t11.5 83t2.5 125v114q-1 42 -1 92q0 84 -25.5 130.5t-61.5 68.5t-74 26.5
t-64 4.5q-38 0 -78.5 -8t-76.5 -21v-407q0 -74 2.5 -125t11.5 -83t27.5 -46t50.5 -14v-10h-270v10q32 0 50.5 14t27.5 46t11.5 83t2.5 125v152q0 74 -2.5 125t-11.5 83t-27.5 46t-50.5 14v10h114z" />
    <glyph glyph-name="n" unicode="n" horiz-adv-x="787" 
d="M30 0v10q32 0 50.5 14t27.5 46t11.5 83t2.5 125v152q0 74 -2.5 125t-11.5 83t-27.5 46t-50.5 14v10h114q31 0 68 3t73.5 7t69 7t53.5 3q33 0 79 -5.5t88 -27.5t71 -66.5t29 -123.5v-227q0 -74 2.5 -125t11.5 -83t27.5 -46t50.5 -14v-10h-270v10q32 0 50.5 14t27.5 46
t11.5 83t2.5 125v114q-1 42 -1 92q0 84 -25.5 130.5t-61.5 68.5t-74 26.5t-64 4.5q-38 0 -78.5 -8t-76.5 -21v-407q0 -74 2.5 -125t11.5 -83t27.5 -46t50.5 -14v-10h-270z" />
    <glyph glyph-name="o" unicode="o" horiz-adv-x="808" 
d="M403 728q81 0 145 -29.5t108.5 -80.5t68 -119t23.5 -145t-23.5 -145t-68 -119t-108.5 -80.5t-145 -29.5t-144.5 29.5t-107.5 80.5t-67.5 119t-23.5 145t23.5 145t67.5 119t107.5 80.5t144.5 29.5zM145 354q0 -82 18.5 -149t52.5 -114.5t81.5 -73t105.5 -25.5t106 25.5
t82 73t53 114.5t19 149q0 83 -19 149.5t-53 114t-82 73t-106 25.5t-105.5 -25.5t-81.5 -73t-52.5 -114t-18.5 -149.5z" />
    <glyph glyph-name="p" unicode="p" horiz-adv-x="794" 
d="M112 -137v567q0 74 -2.5 125t-11.5 83t-27.5 46t-50.5 14v10h178v-117q45 68 106.5 102.5t136.5 34.5q63 0 116.5 -21.5t92.5 -61.5t61.5 -97.5t22.5 -129.5q0 -100 -30 -177.5t-83.5 -131t-127 -81.5t-160.5 -28q-19 0 -33 0.5t-28.5 2t-31.5 4.5t-42 9v-153
q0 -74 2.5 -125t11.5 -83t27.5 -46t50.5 -14v-10h-270v10q32 0 50.5 14t27.5 46t11.5 83t2.5 125zM198 39q24 -13 55.5 -21t67.5 -8q64 0 123 28.5t104 79.5t72 122.5t27 156.5q0 84 -22.5 142.5t-58 95t-80 53t-88.5 16.5q-39 0 -75 -14t-63.5 -45.5t-44.5 -82.5t-17 -125
v-398z" />
    <glyph glyph-name="q" unicode="q" horiz-adv-x="832" 
d="M403 728q39 0 69.5 -3t61 -7t66 -7t85.5 -3h127v-10q-32 0 -50.5 -14t-27.5 -46t-11.5 -83t-2.5 -125v-567q0 -74 2.5 -125t11.5 -83t27.5 -46t50.5 -14v-10h-270v10q32 0 50.5 14t27.5 46t11.5 83t2.5 125v212q-44 -42 -101 -68.5t-130 -26.5q-81 0 -144.5 29.5
t-107.5 80.5t-67.5 119t-23.5 145t23.5 145t67.5 119t107.5 80.5t144.5 29.5zM403 -8q41 0 82 14.5t75 39.5t55 59t21 74v54t-0.5 79t-0.5 92.5t-0.5 93t-0.5 82v58.5q-32 31 -89.5 54.5t-141.5 23.5q-58 0 -105.5 -25.5t-81.5 -73t-52.5 -114t-18.5 -149.5q0 -82 18.5 -149
t52.5 -114.5t81.5 -73t105.5 -25.5z" />
    <glyph glyph-name="r" unicode="r" horiz-adv-x="676" 
d="M146 708q87 0 179 10t176 10q67 0 111 -32t44 -90q0 -40 -21.5 -68.5t-64.5 -28.5q-21 0 -38 12.5t-17 33.5q21 1 37.5 22.5t16.5 52.5q0 35 -26.5 59.5t-80.5 24.5q-23 0 -57.5 -2t-71 -5.5t-70.5 -9t-55 -12.5v-407q0 -74 2.5 -125t11.5 -83t27.5 -46t50.5 -14v-10
h-270v10q32 0 50.5 14t27.5 46t11.5 83t2.5 125v152q0 74 -2.5 125t-11.5 83t-27.5 46t-50.5 14v10h116z" />
    <glyph glyph-name="s" unicode="s" horiz-adv-x="670" 
d="M70 163q0 -18 15.5 -47.5t46.5 -58t76 -48.5t104 -19q41 1 80 13t69.5 35t49 56.5t18.5 76.5q0 53 -33.5 82t-84.5 48.5t-109.5 35t-109.5 40.5t-84.5 66t-33.5 111q0 35 15.5 66.5t46.5 55.5t77 38t107 14q64 0 110.5 -10.5t76.5 -24.5q36 -15 61 -35v-118h-4
q-29 87 -91 132.5t-143 45.5q-47 0 -84 -12t-62.5 -32.5t-38.5 -46.5t-13 -54q0 -52 35.5 -81.5t88.5 -49.5t115 -37t115 -43t88.5 -67.5t35.5 -110.5q0 -55 -25 -94t-66 -63.5t-95 -35.5t-112 -11q-157 0 -252 61v122h10z" />
    <glyph glyph-name="t" unicode="t" horiz-adv-x="318" 
d="M20 708q42 0 70.5 13t47 34.5t29 48t15 53.5t5.5 51.5t1 41.5h10v-242h76v-10h-76v-480q0 -58 -0.5 -98.5t2 -65t9.5 -35.5t21 -11q12 0 22.5 7.5t18.5 16.5q9 10 17 23l10 -5q-20 -32 -46 -51t-64 -19q-43 0 -59.5 31t-16.5 81v606h-92v10z" />
    <glyph glyph-name="u" unicode="u" horiz-adv-x="777" 
d="M198 708v-29.5v-58.5t0.5 -78t0.5 -87v-231q0 -84 25.5 -130.5t61.5 -68.5t74.5 -26.5t63.5 -4.5q38 0 78.5 8t76.5 21v407q0 74 -2.5 125t-11.5 83t-27.5 46t-50.5 14v10h178v-430q0 -74 2.5 -125t11.5 -83t27.5 -46t50.5 -14v-10h-114q-31 0 -68 -3t-73.5 -7t-69 -7
t-53.5 -3q-33 0 -79 5.5t-88 27.5t-71 66.5t-29 123.5v227q0 74 -2.5 125t-11.5 83t-27.5 46t-50.5 14v10h178z" />
    <glyph glyph-name="v" unicode="v" horiz-adv-x="732" 
d="M123 708q34 0 54.5 -25.5t29.5 -54.5q20 -64 36.5 -120t33.5 -112t35.5 -116t42.5 -133q14 -42 32.5 -63t40.5 -24q38 121 70.5 223t60.5 198q9 30 15 67.5t1.5 71t-23.5 56t-61 22.5h-22v10h263v-10h-17q-26 0 -48 -22t-39.5 -52.5t-30 -64t-19.5 -56.5
q-37 -118 -75.5 -244t-87.5 -279q-26 -3 -53 14q-23 14 -48.5 48.5t-48.5 104.5q-19 62 -35.5 114.5t-31.5 101t-29.5 95t-29.5 97.5q-7 23 -16 48t-22 46t-31.5 35t-45.5 14h-24v10h123z" />
    <glyph glyph-name="w" unicode="w" horiz-adv-x="1123" 
d="M123 708q34 0 54.5 -25.5t29.5 -54.5q20 -64 36.5 -120t33.5 -112t35.5 -116t42.5 -133q14 -42 32.5 -63t40.5 -24q38 117 69.5 216.5t58.5 193.5q-9 27 -19 66t-25.5 75t-38.5 61.5t-58 25.5h-24v10h123q34 0 54.5 -25.5t29.5 -54.5q20 -64 36.5 -120t33.5 -112
t35.5 -116t42.5 -133q14 -42 32.5 -63t40.5 -24q38 121 70.5 223t60.5 198q9 30 15 67.5t1.5 71t-23.5 56t-61 22.5h-22v10h263v-10h-17q-26 0 -48 -22t-39.5 -52.5t-30 -64t-19.5 -56.5q-37 -118 -75.5 -244t-87.5 -279q-26 -3 -53 14q-23 14 -48.5 48.5t-48.5 104.5
q-29 90 -52 162.5t-43 141.5q-32 -106 -67.5 -220.5t-78.5 -250.5q-26 -3 -53 14q-23 14 -48.5 48.5t-48.5 104.5q-19 62 -35.5 114.5t-31.5 101t-29.5 95t-29.5 97.5q-7 23 -16 48t-22 46t-31.5 35t-45.5 14h-24v10h123z" />
    <glyph glyph-name="x" unicode="x" horiz-adv-x="625" 
d="M105 708q27 0 42 -12.5t22 -23.5l167 -274l77 132q19 33 28 63.5t7.5 53.5t-13.5 37t-33 14h-24v10h247v-10h-13q-29 0 -55.5 -15t-50 -39t-44 -54.5t-38.5 -61.5l-81 -140l192 -315q11 -19 27 -41t44 -22h19v-10h-107q-27 0 -41 12.5t-21 23.5l-167 274l-77 -132
q-19 -33 -27.5 -63.5t-7 -53.5t13 -37t32.5 -14h24v-10h-247v10h13q29 0 55.5 15t50 39t44 54.5t38.5 61.5l82 140l-193 315q-6 9 -12.5 20t-14.5 20.5t-19 16t-25 6.5h-19v10h105z" />
    <glyph glyph-name="y" unicode="y" horiz-adv-x="732" 
d="M123 708q34 0 54.5 -25.5t29.5 -54.5q20 -64 36.5 -120t33.5 -112t35.5 -116t42.5 -133q14 -42 32.5 -63t40.5 -24q38 121 70.5 223t60.5 198q9 30 15 67.5t1.5 71t-23.5 56t-61 22.5h-22v10h263v-10h-17q-26 0 -48 -22t-39.5 -52.5t-30 -64t-19.5 -56.5
q-37 -118 -75.5 -244t-87.5 -279q-7 -19 -20.5 -56t-31.5 -81t-39.5 -89.5t-45 -83t-47.5 -61.5t-46 -24h-135v10q46 0 99.5 37t104 94t90.5 125t59 129q-10 0 -26 6t-35.5 23.5t-39.5 50.5t-37 87q-19 62 -35.5 114.5t-31.5 101t-29.5 95t-29.5 97.5q-7 23 -16 48t-22 46
t-31.5 35t-45.5 14h-24v10h123z" />
    <glyph glyph-name="z" unicode="z" horiz-adv-x="619" 
d="M478 698h-139q-121 0 -190.5 -38.5t-83.5 -105.5h-10v154h534l-448 -698h155q121 0 190.5 38.5t83.5 105.5h10v-154h-550z" />
    <glyph glyph-name="braceleft" unicode="{" horiz-adv-x="340" 
d="M60 500q0 18 20 26.5t44 29t44 64t20 130.5q0 27 -6 50.5t-13.5 51t-13.5 62.5t-6 86q0 32 9.5 62.5t27 54t41.5 37.5t53 14v-10q-18 0 -30.5 -10t-20.5 -26.5t-12 -38t-4 -45.5q0 -32 7.5 -69t16.5 -75t16.5 -75t7.5 -69q0 -53 -14 -90t-35 -61.5t-46 -39.5t-46 -25
t-35 -17.5t-14 -16.5t14 -16.5t35 -17.5t46 -25t46 -39.5t35 -61.5t14 -90q0 -32 -7.5 -69t-16.5 -75t-16.5 -75t-7.5 -69q0 -24 4 -45.5t12 -38t20.5 -26.5t30.5 -10v-10q-29 0 -53 14t-41.5 37.5t-27 54t-9.5 62.5q0 51 6 86t13.5 62.5t13.5 51t6 50.5q0 87 -20 130.5
t-44 64t-44 29t-20 26.5z" />
    <glyph glyph-name="bar" unicode="|" horiz-adv-x="131" 
d="M60 1020h11v-1040h-11v1040z" />
    <glyph glyph-name="braceright" unicode="}" horiz-adv-x="340" 
d="M127 -38q0 32 -7.5 69t-16.5 75t-16.5 75t-7.5 69q0 53 14 90t35 61.5t46 39.5t46 25t35 17.5t14 16.5t-14 16.5t-35 17.5t-46 25t-46 39.5t-35 61.5t-14 90q0 32 7.5 69t16.5 75t16.5 75t7.5 69q0 24 -4 45.5t-12 38t-20.5 26.5t-30.5 10v10q29 0 53.5 -14t41.5 -37.5
t26.5 -54t9.5 -62.5q0 -51 -6 -86t-13.5 -62.5t-13.5 -51t-6 -50.5q0 -87 20 -130.5t44 -64t44 -29t20 -26.5t-20 -26.5t-44 -29t-44 -64t-20 -130.5q0 -27 6 -50.5t13.5 -51t13.5 -62.5t6 -86q0 -32 -9.5 -62.5t-26.5 -54t-41.5 -37.5t-53.5 -14v10q18 0 30.5 10t20.5 26.5
t12 38t4 45.5z" />
    <glyph glyph-name="asciitilde" unicode="~" horiz-adv-x="675" 
d="M222 566q46 0 79.5 -9.5t62.5 -20.5t58.5 -20.5t68.5 -9.5q50 0 76.5 18.5t39.5 39.5l8 -3q-3 -12 -15 -32t-33 -39.5t-51.5 -33.5t-71.5 -14q-50 0 -87 11.5t-68 25t-60 24.5t-62 11q-39 0 -62.5 -15.5t-36.5 -36.5l-8 3q3 12 16 29.5t34 33t49.5 27t62.5 11.5z" />
    <glyph glyph-name="exclamdown" unicode="&#xa1;" horiz-adv-x="254" 
d="M96 368q11 112 18 225.5t7 200.5h12q0 -42 2 -93t5.5 -106.5t8 -113t9.5 -113.5q7 -76 13.5 -146t5.5 -124t-12 -86t-38 -32t-38.5 32t-12 86t6 124t13.5 146zM127 1020q28 0 47.5 -19.5t19.5 -47.5t-19.5 -47.5t-47.5 -19.5t-47.5 19.5t-19.5 47.5t19.5 47.5t47.5 19.5z
" />
    <glyph glyph-name="cent" unicode="&#xa2;" horiz-adv-x="773" 
d="M390 874l1 78q0 25 -3.5 51t-8.5 50t-9 44.5t-4 34.5q0 20 7.5 34t22.5 14q16 0 23.5 -14t7.5 -34q0 -14 -4 -34.5t-8.5 -44.5t-9 -50t-4.5 -51l-1 -78q28 0 62.5 -3.5t69 -12t66 -21.5t53.5 -33v-118h-4q-45 73 -111 110.5t-135 46.5l-1 -657q29 -7 61 -7q30 0 64 6
t66.5 22.5t61 46.5t46.5 78l14 -6q-42 -97 -124 -149t-188 -51v-59q0 -25 4 -51t9 -50t9 -44.5t4 -34.5q0 -20 -7.5 -34t-23.5 -14q-15 0 -22.5 14t-7.5 34q0 14 4 34.5t9 44.5t8.5 50t3.5 51l-1 59q-78 3 -139 33t-103.5 80.5t-65 117.5t-22.5 143t22.5 143t65 117.5
t103.5 81t139 32.5zM103 597q0 -85 24 -154.5t64.5 -121.5t92.5 -85.5t107 -47.5v656q-8 1 -16 1h-16q-34 0 -78.5 -12t-84 -40.5t-66.5 -76.5t-27 -119z" />
    <glyph glyph-name="sterling" unicode="&#xa3;" horiz-adv-x="875" 
d="M60 37q0 16 14.5 24.5t35.5 16.5t45.5 19t44.5 32t32 55t8 89q-4 58 -17 104t-30.5 84.5t-36.5 72t-35 67t-26.5 69.5t-10.5 80q0 31 15 77t54 89t106.5 73.5t172.5 30.5q72 0 137 -15t114 -46t78 -78.5t29 -111.5q0 -46 -13 -81t-34 -57.5t-48.5 -34t-56.5 -11.5
q-41 0 -71.5 21.5t-30.5 63.5q0 24 17 32q0 -22 20 -31t40 -9q22 0 41 10.5t33.5 28.5t23 41.5t8.5 49.5q0 36 -17 74t-52.5 69.5t-89.5 52t-128 20.5q-60 0 -109 -19.5t-83.5 -52.5t-53 -77.5t-18.5 -94.5q0 -51 16 -95.5t37.5 -87.5t43 -87.5t32.5 -94.5q7 11 18.5 24
t28 23.5t37.5 17.5t45 7q39 0 66.5 -8t52 -18t49.5 -18t57 -8q42 0 63.5 16.5t32.5 35.5l8 -5q-3 -10 -13 -26.5t-27.5 -32.5t-43 -27.5t-59.5 -11.5q-37 0 -66.5 10t-56 22.5t-51.5 22.5t-53 10q-32 0 -52.5 -16t-32.5 -34q5 -30 5 -56q0 -62 -17.5 -104.5t-43.5 -71
t-56 -46t-56 -29t-43.5 -20t-17.5 -19.5q0 -18 24.5 -32.5t60.5 -14.5q43 0 83 13t78.5 32.5t77 42t79 42t84.5 32.5t93 13q35 0 64.5 -9t52 -25t35 -36.5t12.5 -43.5q0 -26 -14 -48.5t-43 -22.5q5 7 7.5 16t2.5 17q0 18 -11.5 31t-29.5 21.5t-40.5 12t-43.5 2.5
q-73 -3 -131 -19t-113 -34t-113 -32.5t-130 -14.5q-16 0 -33 3.5t-31 10.5t-23 18t-9 25zM300 383q-1 4 -1.5 8t-1.5 8q-6 -9 -7 -15l8 -5z" />
    <glyph glyph-name="currency" unicode="&#xa4;" horiz-adv-x="661" 
d="M95 772l132 -133q47 35 103 35q57 0 103 -35l132 132l36 -35l-133 -132q35 -47 34 -104.5t-36 -102.5l2 2l133 -133l-36 -35l-132 133l2 2q-23 -18 -50 -27t-55 -9q-57 0 -104 35l2 -2l-133 -132l-35 35l133 133l1 -1q-35 45 -35.5 102.5t33.5 103.5l-132 132zM243 414
q18 -18 41 -27t47 -9q51 0 87 36q18 18 27 40.5t9 46.5t-9 46.5t-27 40.5q-36 36 -87 36q-23 0 -46 -9t-42 -27q-18 -18 -27 -40.5t-9 -46.5t9 -46.5t27 -40.5z" />
    <glyph glyph-name="yen" unicode="&#xa5;" horiz-adv-x="938" 
d="M60 1000h270v-10h-22q-21 0 -37.5 -11.5t-16.5 -41.5q0 -17 14 -51.5t36.5 -80t50.5 -97t56 -101.5t53 -94.5t41 -75.5q17 31 41 76t51 96t53.5 103t47.5 98t34.5 81.5t13.5 52.5q0 27 -17.5 36.5t-38.5 9.5h-26v10h214v-10q-28 0 -49 -14.5t-41 -45t-43.5 -77.5
t-57.5 -112q-23 -43 -48.5 -89t-49.5 -88.5t-44 -79t-33 -61.5v-4q20 -7 41 -12t47 -5q23 0 39.5 5.5t28.5 14.5t19.5 19t13.5 19h9q-3 -10 -13.5 -28.5t-29 -36.5t-45.5 -31.5t-63 -13.5q-28 0 -47 4v-35q20 -7 41 -12t47 -5q23 0 39.5 5.5t28.5 14.5t19.5 19t13.5 19h9
q-3 -10 -13.5 -28.5t-29 -36.5t-45.5 -31.5t-63 -13.5q-28 0 -47 4q0 -67 3 -113.5t12.5 -75.5t27.5 -42t49 -13v-10h-270v10q32 0 50.5 14t27.5 46t11.5 83t2.5 125v4q-29 14 -55.5 25.5t-57.5 11.5q-35 0 -55 -14.5t-31 -32.5l-9 -5q3 11 14.5 26t30 28.5t43.5 23.5t56 10
q18 0 34 -2t30 -5v34q-29 14 -55.5 25.5t-57.5 11.5q-35 0 -55 -14.5t-31 -32.5l-9 -5q3 11 14.5 26t30 28.5t43.5 23.5t56 10q29 0 49 -4q-15 27 -34 61.5t-40.5 72.5t-43.5 78t-42 78q-34 65 -57.5 112t-43.5 77.5t-40.5 45t-49.5 14.5v10z" />
    <glyph glyph-name="brokenbar" unicode="&#xa6;" horiz-adv-x="131" 
d="M60 431h11v-451h-11v451zM71 1020v-451h-11v451h11z" />
    <glyph glyph-name="section" unicode="&#xa7;" horiz-adv-x="670" 
d="M60 163h10q0 -18 15.5 -47.5t46.5 -58t76 -48.5t104 -19q41 1 80 13t69.5 35t49 56.5t18.5 76.5q0 53 -33.5 82t-84.5 48.5t-109.5 35t-109.5 40.5t-84.5 66t-33.5 111q0 41 20 76.5t62 59.5q-37 25 -59.5 62t-22.5 94q0 35 15.5 66.5t46.5 55.5t77 38t107 14
q64 0 110.5 -10.5t76.5 -24.5q36 -15 61 -35v-118h-4q-29 87 -91 132.5t-143 45.5q-47 0 -84 -12t-62.5 -32.5t-38.5 -46.5t-13 -54q0 -52 35.5 -81.5t88.5 -49.5t115 -37t115 -43t88.5 -67.5t35.5 -110.5q0 -49 -19.5 -84.5t-52.5 -60.5q32 -25 52 -60.5t20 -86.5
q0 -55 -25 -94t-66 -63.5t-95 -35.5t-112 -11q-157 0 -252 61v122zM492 359q17 21 27 47t10 57q0 54 -35 83.5t-87.5 49t-112.5 35t-111 42.5q-51 -42 -51 -100q0 -35 17 -59.5t45 -42t65 -31t77 -25.5t80.5 -25t75.5 -31z" />
    <glyph glyph-name="dieresis" unicode="&#xa8;" horiz-adv-x="283" 
d="M60 1110q0 12 8.5 20.5t21.5 8.5q12 0 20.5 -8.5t8.5 -20.5q0 -13 -8.5 -21.5t-20.5 -8.5q-13 0 -21.5 8.5t-8.5 21.5zM193 1139q13 0 21.5 -8.5t8.5 -20.5q0 -13 -8.5 -21.5t-21.5 -8.5q-12 0 -20.5 8.5t-8.5 21.5q0 12 8.5 20.5t20.5 8.5z" />
    <glyph glyph-name="copyright" unicode="&#xa9;" horiz-adv-x="1158" 
d="M60 500q0 108 41 202.5t111.5 165t165 111.5t201.5 41q108 0 202.5 -41t165 -111.5t111 -165t40.5 -202.5t-40.5 -202.5t-111 -165t-165 -111.5t-202.5 -41q-107 0 -201.5 41t-165 111.5t-111.5 165t-41 202.5zM70 500q0 -105 39.5 -198t108.5 -162t162 -109.5t199 -40.5
q104 0 197 40.5t162.5 109.5t110 162t40.5 198t-40.5 198t-110.5 162t-162 109.5t-196 40.5q-103 0 -196 -40.5t-162.5 -109.5t-110.5 -162t-41 -198zM592 876q64 0 110.5 -10.5t76.5 -24.5q36 -15 61 -35v-118h-4q-52 83 -130.5 121t-157.5 38q-34 0 -78.5 -12t-84 -40.5
t-66.5 -76.5t-27 -119q0 -99 32 -176.5t83.5 -131t115.5 -82t127 -28.5q30 0 64 6t66.5 22.5t61 46.5t46.5 78l14 -6q-39 -90 -118.5 -145t-191.5 -55q-81 0 -144.5 29.5t-107.5 80.5t-67.5 119t-23.5 145t23.5 145t67.5 119t107.5 80.5t144.5 29.5z" />
    <glyph glyph-name="ordfeminine" unicode="&#xaa;" horiz-adv-x="531" 
d="M30 648q0 62 26.5 99.5t66.5 59t86 33t86 22.5t66.5 26t26.5 44q0 22 -11.5 37.5t-29.5 25t-40 14t-43 4.5q-25 0 -49 -4.5t-42.5 -14.5t-29.5 -25.5t-11 -37.5q0 -20 11.5 -29t16.5 -4q5 -16 -8.5 -28.5t-30.5 -12.5q-23 0 -37 17t-14 40q0 26 14.5 46t40.5 33.5
t61.5 20t77.5 6.5q30 0 62.5 -6t59.5 -17.5t44.5 -28t17.5 -37.5q0 -28 -26.5 -41.5t-66 -22.5t-85.5 -19t-85.5 -32.5t-66 -62.5t-26.5 -109q0 -56 32 -93t84 -37q29 0 59.5 15.5t56 49.5t42 88.5t16.5 131.5q0 11 -2 21.5t-10 12.5q0 10 19 10t30.5 -9.5t17.5 -24.5t8 -35
t2 -41v-149q0 -22 6 -36t14 -22t17.5 -11t16.5 -3v-7h-50q-29 0 -48 24t-19 64v121q-10 -46 -24.5 -86.5t-37 -71t-55 -48t-79.5 -17.5q-69 0 -113.5 44t-44.5 113z" />
    <glyph glyph-name="guillemotleft" unicode="&#xab;" horiz-adv-x="378" 
d="M68 507q37 28 57.5 52.5t32.5 43t19.5 29.5t19.5 11q13 0 13 -15q0 -13 -18.5 -32.5t-42.5 -39t-48 -35.5t-35 -21q11 -5 35 -21t48 -35.5t42.5 -39t18.5 -32.5q0 -14 -13 -14q-12 0 -19.5 11t-19 29.5t-32 43t-58.5 51.5q-3 2 -5.5 3.5t-2.5 3.5t2.5 3.5t5.5 3.5z
M176 507q37 28 57.5 52.5t32.5 43t19.5 29.5t19.5 11q13 0 13 -15q0 -13 -18.5 -32.5t-42.5 -39t-48 -35.5t-35 -21q11 -5 35 -21t48 -35.5t42.5 -39t18.5 -32.5q0 -14 -13 -14q-12 0 -19.5 11t-19 29.5t-32 43t-58.5 51.5q-3 2 -5.5 3.5t-2.5 3.5t2.5 3.5t5.5 3.5z" />
    <glyph glyph-name="registered" unicode="&#xae;" horiz-adv-x="639" 
d="M60 760q0 54 20.5 101.5t55.5 82.5t82 55.5t101 20.5t101.5 -20.5t82.5 -55.5t55.5 -82.5t20.5 -101.5t-20.5 -101t-55.5 -82.5t-82.5 -56t-101.5 -20.5t-101 20.5t-82 56t-55.5 82.5t-20.5 101zM69 760q0 -51 19.5 -96.5t53 -79.5t79.5 -53.5t98 -19.5q51 0 96.5 19.5
t79 53.5t53.5 79.5t20 96.5t-20 96.5t-54 79.5t-79 54t-96 20t-96 -20t-79.5 -54t-54.5 -79.5t-20 -96.5zM175 582q24 0 29 22t5 76v162q0 54 -5 76t-29 22v4h44q30 0 53.5 3.5t55.5 3.5q59 0 90 -29t31 -74q0 -37 -28 -66t-76 -29q-26 0 -44 11.5t-29 11.5q-4 0 -7.5 -1
t-3.5 -8q0 -9 12.5 -15.5t30 -14t35.5 -18t29 -27.5t22.5 -36t24.5 -35.5t27 -27.5t30 -11v-4h-56q-6 0 -12 5t-15 17.5t-22.5 33.5t-35.5 54q-13 20 -26.5 31.5t-24 19t-17 14t-6.5 15.5q0 12 13 12q16 0 31 -10.5t41 -10.5q35 0 55.5 28t20.5 61q0 46 -30 72t-81 26
q-20 0 -35 -3t-32 -9v-254q0 -54 5 -76t29 -22v-4h-99v4z" />
    <glyph glyph-name="macron" unicode="&#xaf;" horiz-adv-x="335" 
d="M60 1102h215v-22h-215v22z" />
    <glyph glyph-name="degree" unicode="&#xb0;" horiz-adv-x="352" 
d="M176 1020q24 0 45 -9t37 -25t25 -37t9 -45t-9 -45t-25 -37t-37 -25t-45 -9t-45 9t-37 25t-25 37t-9 45t9 45t25 37t37 25t45 9zM93 904q0 -35 24.5 -59t59.5 -24t59 24t24 59t-24 59t-59 24t-59.5 -24t-24.5 -59z" />
    <glyph glyph-name="plusminus" unicode="&#xb1;" horiz-adv-x="620" 
d="M108 437q14 0 37.5 -5t51 -11.5t56 -12t53.5 -5.5q0 25 -5.5 53.5t-12 56t-11.5 51t-5 37.5q0 20 9.5 34t28.5 14t28.5 -14t9.5 -34q0 -14 -5 -37.5t-11.5 -51t-12 -56t-5.5 -53.5q25 0 53.5 5.5t56 12t51 11.5t37.5 5q20 0 34 -9.5t14 -28.5t-14 -28.5t-34 -9.5
q-14 0 -37.5 5t-51 11.5t-56 12t-53.5 5.5q0 -25 5.5 -53.5t12 -56t11.5 -51t5 -37.5q0 -20 -9.5 -34t-28.5 -14t-28.5 14t-9.5 34q0 14 5 37.5t11.5 51t12 56t5.5 53.5q-25 0 -53.5 -5.5t-56 -12t-51 -11.5t-37.5 -5q-20 0 -34 9.5t-14 28.5t14 28.5t34 9.5zM108 76
q14 0 38 -5.5t52.5 -11.5t57.5 -11.5t54 -5.5t54 5.5t57.5 11.5t52.5 11.5t38 5.5q20 0 34 -9.5t14 -28.5t-14 -28.5t-34 -9.5q-14 0 -38 5.5t-52.5 11.5t-57.5 11.5t-54 5.5t-54 -5.5t-57.5 -11.5t-52.5 -11.5t-38 -5.5q-20 0 -34 9.5t-14 28.5t14 28.5t34 9.5z" />
    <glyph glyph-name="twosuperior" unicode="&#xb2;" horiz-adv-x="481" 
d="M356 888q0 21 -6.5 43.5t-20.5 41t-36 30t-53 11.5t-53 -9.5t-36 -24t-20 -33t-6 -36.5q0 -10 3 -22.5t9.5 -23t16.5 -18t23 -7.5t24 6t11 17q11 -5 11 -20q0 -21 -18 -35.5t-44 -14.5q-40 0 -65 28t-25 76q0 31 14 54t37.5 38.5t54 23t63.5 7.5q53 0 87.5 -15t55.5 -36
t29.5 -44.5t8.5 -41.5q0 -48 -26 -82t-65 -59t-84 -44.5t-84 -38.5t-65 -40.5t-26 -52.5q0 -22 14.5 -27.5t31.5 -5.5q26 0 53 8.5t53 18t52 18t51 8.5q41 0 62 -20t21 -42q0 -6 -2 -12t-7 -10q-8 13 -24.5 21t-36.5 7q-29 -1 -54.5 -7.5t-49.5 -13.5t-47 -12.5t-47 -5.5
q-34 0 -57.5 20t-23.5 51t22 57t55 50t71 47.5t71 49.5t55 56t22 66z" />
    <glyph glyph-name="threesuperior" unicode="&#xb3;" horiz-adv-x="530" 
d="M60 608q0 30 19 51t56 21q17 0 28.5 -7t16.5 -16.5t4.5 -20t-7.5 -16.5q-8 4 -19 4q-16 0 -26.5 -11.5t-10.5 -27.5q0 -22 11 -38.5t29 -27.5t40.5 -16.5t45.5 -5.5q71 0 114 43t43 129q0 48 -29 77.5t-74 29.5q-35 0 -58.5 -8t-40.5 -17t-29.5 -17t-25.5 -8
q-10 0 -18 7.5t-8 17.5q0 20 17.5 31t43 19t56 15t56 19t43 30.5t17.5 49.5q0 16 -4 33.5t-16.5 32t-35 24t-59.5 9.5q-33 0 -53.5 -8t-32 -20.5t-15 -27.5t-3.5 -29q0 -17 9.5 -32t26.5 -15q18 0 25 11q8 -3 8 -12q0 -17 -15 -29t-39 -12q-35 0 -55.5 23.5t-20.5 56.5
q0 30 17.5 49.5t43 30.5t54 15.5t50.5 4.5q38 0 71 -6.5t57.5 -20t38.5 -33.5t14 -46q0 -35 -20.5 -55t-51.5 -31t-66.5 -16.5t-66.5 -11t-51.5 -14.5t-20.5 -28q0 -8 5.5 -11.5t10.5 -3.5q9 0 25 7.5t38 16t49 16t58 7.5q29 0 54.5 -8.5t44.5 -24t30.5 -38t11.5 -51.5
q0 -37 -19 -69.5t-50.5 -56.5t-71.5 -37.5t-82 -13.5q-33 0 -66.5 6.5t-60 20.5t-43.5 36.5t-17 53.5z" />
    <glyph glyph-name="acute" unicode="&#xb4;" horiz-adv-x="313" 
d="M60 1080v10h32q32 0 50.5 13.5t31 29t23 29t28.5 13.5q14 0 21 -8t7 -19q0 -15 -11 -27.5t-28.5 -21.5t-38 -14t-39.5 -5h-76z" />
    <glyph glyph-name="periodcentered" unicode="&#xb7;" horiz-adv-x="254" 
d="M60 501q0 28 19.5 47.5t47.5 19.5t47.5 -19.5t19.5 -47.5t-19.5 -47.5t-47.5 -19.5t-47.5 19.5t-19.5 47.5z" />
    <glyph glyph-name="cedilla" unicode="&#xb8;" horiz-adv-x="248" 
d="M60 -176l4 8q8 -6 23 -6q28 0 44 18t20 39.5t-5 39.5t-30 18q-11 0 -19.5 -4.5t-14.5 -9.5l-8 12l38 70h10l-38 -70q19 14 41 14q35 0 50.5 -22t12 -48t-27 -48t-67.5 -22q-20 0 -33 11z" />
    <glyph glyph-name="onesuperior" unicode="&#xb9;" horiz-adv-x="280" 
d="M60 500v8q33 0 40 30.5t7 106.5v232q0 41 -7 57t-40 16v8q13 2 30 9.5t32.5 17t27.5 19t15 16.5h8v-375q0 -76 7 -106.5t40 -30.5v-8h-160z" />
    <glyph glyph-name="ordmasculine" unicode="&#xba;" horiz-adv-x="547" 
d="M30 756q0 54 16.5 102t48 84t76.5 57t102 21t102.5 -21t77 -57t48 -84t16.5 -102q0 -55 -16.5 -103t-48 -84t-77 -57t-102.5 -21t-102 21t-76.5 57t-48 84t-16.5 103zM90 756q0 -58 13 -105.5t37 -81t58 -51.5t75 -18t75 18t58 51.5t37.5 81t13.5 105.5t-13.5 105.5
t-37.5 81t-58 51.5t-75 18t-75 -18t-58 -51.5t-37 -81t-13 -105.5zM284 637q0 27 -10.5 53t-23.5 53t-23.5 54t-10.5 55q0 38 19.5 67t57.5 40l2 -8q-11 0 -26 -14t-15 -41q0 -28 10.5 -54.5t23 -52.5t23 -53.5t10.5 -58.5q0 -35 -19.5 -63.5t-57.5 -38.5l-2 7q12 0 27 14
t15 41z" />
    <glyph glyph-name="guillemotright" unicode="&#xbb;" horiz-adv-x="378" 
d="M168 372q0 13 18.5 32.5t42.5 39t48 35.5t35 21q-11 5 -35 21t-48 35.5t-42.5 39t-18.5 32.5q0 15 13 15q12 0 19.5 -11t19.5 -29.5t32.5 -43t57.5 -52.5q2 -2 5 -3.5t3 -3.5t-3 -3.5t-5 -3.5q-33 -33 -53 -58t-32.5 -42.5t-22 -26t-21.5 -8.5q-13 0 -13 14zM60 372
q0 13 18.5 32.5t42.5 39t48 35.5t35 21q-11 5 -35 21t-48 35.5t-42.5 39t-18.5 32.5q0 15 13 15q12 0 19.5 -11t19 -29.5t32 -43.5t58.5 -52q2 -2 5 -3.5t3 -3.5t-3 -3.5t-5 -3.5q-33 -33 -53 -58t-32.5 -42.5t-22 -26t-21.5 -8.5q-13 0 -13 14z" />
    <glyph glyph-name="onequarter" unicode="&#xbc;" horiz-adv-x="686" 
d="M212 129q48 53 81 101.5t56 94t40.5 89t33.5 86.5h90q-39 -56 -71 -100t-63.5 -83.5t-65.5 -80t-77 -89.5q22 12 48.5 28.5t58.5 16.5q27 0 51.5 -7t48 -15.5t46 -15.5t44.5 -7q26 0 48.5 4.5t29.5 18.5t-8.5 19t-36.5 9.5t-40 12t-19 26.5v179h64v-198q0 -9 7 -12.5
t16 -7.5t16 -10t7 -20q0 -19 -13 -36.5t-33 -25.5q1 -56 11 -78.5t44 -22.5v-5h-175v5q32 0 42.5 20.5t12.5 70.5q-31 0 -54.5 7.5t-46.5 16.5t-48.5 16.5t-60.5 7.5q-29 0 -48 -6t-36 -14v5zM60 958q13 2 30 9.5t32.5 17t27.5 19t15 16.5h8v-375q0 -76 7 -106.5t40 -30.5
v-8h-160v8q33 0 40 30.5t7 106.5v232q0 41 -7 57t-40 16v8zM434 1020h10l-324 -1040h-10z" />
    <glyph glyph-name="onehalf" unicode="&#xbd;" horiz-adv-x="726" 
d="M601 377q0 22 -6.5 44.5t-20.5 40.5t-35.5 29.5t-52.5 11.5q-32 0 -54 -9.5t-36 -24t-20 -33t-6 -36.5q0 -10 2.5 -22.5t8.5 -23t16 -17.5t25 -7q14 0 25 5.5t11 16.5q11 -5 11 -20q0 -21 -18.5 -35t-44.5 -14q-39 0 -64.5 24.5t-25.5 72.5q0 35 14 59t37.5 40t54.5 23
t64 7q52 0 86.5 -15t55.5 -36t29.5 -44.5t8.5 -41.5q0 -48 -26 -82t-65 -59t-84 -44.5t-84 -38.5t-65 -41t-26 -52q0 -21 14.5 -27t31.5 -6q26 0 53 8.5t53 18t52 18t51 8.5q41 0 62 -20t21 -42q0 -6 -2 -12t-7 -10q-8 13 -24 21t-36 7q-29 -1 -54.5 -7t-49.5 -13
t-47.5 -12.5t-47.5 -5.5q-34 0 -57.5 20t-23.5 50q0 31 22 57t55 50t71 47.5t71 49.5t55 56t22 66zM60 958q13 2 30 9.5t32.5 17t27.5 19t15 16.5h8v-375q0 -76 7 -106.5t40 -30.5v-8h-160v8q33 0 40 30.5t7 106.5v232q0 41 -7 57t-40 16v8zM434 1020h10l-324 -1040h-10z
" />
    <glyph glyph-name="threequarters" unicode="&#xbe;" horiz-adv-x="918" 
d="M60 608q0 30 19 51t56 21q17 0 28.5 -7t16.5 -16.5t4.5 -20t-7.5 -16.5q-8 4 -19 4q-16 0 -26.5 -11.5t-10.5 -27.5q0 -22 11 -38.5t29 -27.5t40.5 -16.5t45.5 -5.5q71 0 114 43t43 129q0 48 -29 77.5t-74 29.5q-35 0 -58.5 -8t-40.5 -17t-29.5 -17t-25.5 -8
q-10 0 -18 7.5t-8 17.5q0 20 17.5 31t43 19t56 15t56 19t43 30.5t17.5 49.5q0 16 -4 33.5t-16.5 32t-35 24t-59.5 9.5q-33 0 -53.5 -8t-32 -20.5t-15 -27.5t-3.5 -29q0 -17 9.5 -32t26.5 -15q18 0 25 11q8 -3 8 -12q0 -17 -15 -29t-39 -12q-35 0 -55.5 23.5t-20.5 56.5
q0 30 17.5 49.5t43 30.5t54 15.5t50.5 4.5q38 0 71 -6.5t57.5 -20t38.5 -33.5t14 -46q0 -35 -20.5 -55t-51.5 -31t-66.5 -16.5t-66.5 -11t-51.5 -14.5t-20.5 -28q0 -8 5.5 -11.5t10.5 -3.5q9 0 25 7.5t38 16t49 16t58 7.5q29 0 54.5 -8.5t44.5 -24t30.5 -38t11.5 -51.5
q0 -37 -19 -69.5t-50.5 -56.5t-71.5 -37.5t-82 -13.5q-33 0 -66.5 6.5t-60 20.5t-43.5 36.5t-17 53.5zM443 129q48 53 81 101.5t56 94t40.5 89t33.5 86.5h90q-38 -56 -70 -100t-63.5 -83.5t-65.5 -80t-77 -89.5q22 13 48 29t59 16q27 0 51.5 -7t48 -15.5t45.5 -15.5t44 -7
q26 0 49 5t29 19t-9.5 19t-36.5 9.5t-39.5 11.5t-18.5 26v179h65v-198q0 -9 7 -12.5t16 -7.5t16 -10t7 -20q0 -18 -13 -36t-33 -26q1 -55 11 -78t44 -23v-5h-176v5q33 0 43 20.5t12 71.5q-31 0 -54 7.5t-46 16t-48.5 16t-60.5 7.5q-29 0 -48.5 -6t-35.5 -14zM655 1020h10
l-324 -1040h-10z" />
    <glyph glyph-name="questiondown" unicode="&#xbf;" horiz-adv-x="775" 
d="M60 275q0 81 33 131t82 83t106.5 55t106.5 47t82 60t33 94q0 23 -7.5 37t-25.5 31q3 8 17.5 15.5t27.5 7.5q16 0 29 -8t22.5 -21.5t14.5 -30.5t5 -35q0 -68 -71 -128q-37 -31 -83.5 -56t-86.5 -54t-67.5 -67t-27.5 -96q0 -23 14.5 -40t39.5 -17q29 0 52 21t49 46.5
t59.5 46.5t82.5 21q40 0 71.5 -15.5t53 -42t32.5 -60t11 -69.5q0 -52 -22 -97.5t-63 -79.5t-99 -54t-129 -20q-72 0 -134.5 22t-108.5 61.5t-72.5 93.5t-26.5 118zM426 -4q111 0 174.5 50t63.5 130q0 38 -11.5 71.5t-32.5 59.5t-50.5 41t-66.5 15t-61 -14.5t-43.5 -32.5
t-41 -32.5t-54.5 -14.5q-31 0 -47.5 20t-16.5 48q0 45 17 80.5t44.5 62.5t61.5 48t67 38q-53 -19 -107 -29.5t-97.5 -32t-71 -63t-27.5 -122.5q0 -59 21.5 -117t61 -103.5t95 -74t122.5 -28.5zM448 953q0 28 19.5 47.5t47.5 19.5t47.5 -19.5t19.5 -47.5t-19.5 -47.5
t-47.5 -19.5t-47.5 19.5t-19.5 47.5z" />
    <glyph glyph-name="Agrave" unicode="&#xc0;" horiz-adv-x="876" 
d="M30 175q0 62 29.5 111.5t74 90t96.5 74t96.5 62t74 54.5t29.5 52q0 14 -7 20.5t-17 6.5q-18 0 -33.5 -16.5t-31 -36t-32.5 -36t-38 -16.5t-26 16.5t3 36.5q23 60 42.5 111t38 100t37.5 101t43 114h10l320 -845q33 -83 62 -124t75 -41v-10h-328v10q53 0 80 14t36 39
t2.5 58t-20.5 71l-124 327q6 -48 6 -120q0 -91 -21.5 -168t-62 -132.5t-99 -87t-133.5 -31.5q-43 0 -77 16t-57.5 42.5t-35.5 62t-12 74.5zM115 194q0 -71 41.5 -118.5t115.5 -47.5q63 0 109 34.5t76.5 88.5t45.5 119.5t15 126.5q0 56 -3.5 99.5t-17.5 88.5l-121 319
l-115 -306q-10 -26 -5.5 -36.5t16.5 -10.5q17 0 33 16.5t32.5 36t33.5 36t37 16.5q14 0 23.5 -9.5t9.5 -29.5q0 -33 -24 -60.5t-60.5 -54t-78.5 -54.5t-78.5 -64t-60.5 -82t-24 -108zM316 1148q0 11 7 19t21 8q18 0 28.5 -13.5t23 -29t31 -29t50.5 -13.5h32v-10h-76
q-19 0 -39.5 5t-37.5 14t-28.5 21.5t-11.5 27.5z" />
    <glyph glyph-name="Aacute" unicode="&#xc1;" horiz-adv-x="876" 
d="M30 175q0 62 29.5 111.5t74 90t96.5 74t96.5 62t74 54.5t29.5 52q0 14 -7 20.5t-17 6.5q-18 0 -33.5 -16.5t-31 -36t-32.5 -36t-38 -16.5t-26 16.5t3 36.5q23 60 42.5 111t38 100t37.5 101t43 114h10l320 -845q33 -83 62 -124t75 -41v-10h-328v10q53 0 80 14t36 39
t2.5 58t-20.5 71l-124 327q6 -48 6 -120q0 -91 -21.5 -168t-62 -132.5t-99 -87t-133.5 -31.5q-43 0 -77 16t-57.5 42.5t-35.5 62t-12 74.5zM115 194q0 -71 41.5 -118.5t115.5 -47.5q63 0 109 34.5t76.5 88.5t45.5 119.5t15 126.5q0 56 -3.5 99.5t-17.5 88.5l-121 319
l-115 -306q-10 -26 -5.5 -36.5t16.5 -10.5q17 0 33 16.5t32.5 36t33.5 36t37 16.5q14 0 23.5 -9.5t9.5 -29.5q0 -33 -24 -60.5t-60.5 -54t-78.5 -54.5t-78.5 -64t-60.5 -82t-24 -108zM316 1080v10h32q32 0 50.5 13.5t31 29t23 29t28.5 13.5q14 0 21 -8t7 -19
q0 -15 -11 -27.5t-28.5 -21.5t-38 -14t-39.5 -5h-76z" />
    <glyph glyph-name="Acircumflex" unicode="&#xc2;" horiz-adv-x="876" 
d="M30 175q0 62 29.5 111.5t74 90t96.5 74t96.5 62t74 54.5t29.5 52q0 14 -7 20.5t-17 6.5q-18 0 -33.5 -16.5t-31 -36t-32.5 -36t-38 -16.5t-26 16.5t3 36.5q23 60 42.5 111t38 100t37.5 101t43 114h10l320 -845q33 -83 62 -124t75 -41v-10h-328v10q53 0 80 14t36 39
t2.5 58t-20.5 71l-124 327q6 -48 6 -120q0 -91 -21.5 -168t-62 -132.5t-99 -87t-133.5 -31.5q-43 0 -77 16t-57.5 42.5t-35.5 62t-12 74.5zM115 194q0 -71 41.5 -118.5t115.5 -47.5q63 0 109 34.5t76.5 88.5t45.5 119.5t15 126.5q0 56 -3.5 99.5t-17.5 88.5l-121 319
l-115 -306q-10 -26 -5.5 -36.5t16.5 -10.5q17 0 33 16.5t32.5 36t33.5 36t37 16.5q14 0 23.5 -9.5t9.5 -29.5q0 -33 -24 -60.5t-60.5 -54t-78.5 -54.5t-78.5 -64t-60.5 -82t-24 -108zM410 1176l116 -86l-6 -10l-107 46l-107 -46l-6 10z" />
    <glyph glyph-name="Atilde" unicode="&#xc3;" horiz-adv-x="876" 
d="M30 175q0 62 29.5 111.5t74 90t96.5 74t96.5 62t74 54.5t29.5 52q0 14 -7 20.5t-17 6.5q-18 0 -33.5 -16.5t-31 -36t-32.5 -36t-38 -16.5t-26 16.5t3 36.5q23 60 42.5 111t38 100t37.5 101t43 114h10l320 -845q33 -83 62 -124t75 -41v-10h-328v10q53 0 80 14t36 39
t2.5 58t-20.5 71l-124 327q6 -48 6 -120q0 -91 -21.5 -168t-62 -132.5t-99 -87t-133.5 -31.5q-43 0 -77 16t-57.5 42.5t-35.5 62t-12 74.5zM115 194q0 -71 41.5 -118.5t115.5 -47.5q63 0 109 34.5t76.5 88.5t45.5 119.5t15 126.5q0 56 -3.5 99.5t-17.5 88.5l-121 319
l-115 -306q-10 -26 -5.5 -36.5t16.5 -10.5q17 0 33 16.5t32.5 36t33.5 36t37 16.5q14 0 23.5 -9.5t9.5 -29.5q0 -33 -24 -60.5t-60.5 -54t-78.5 -54.5t-78.5 -64t-60.5 -82t-24 -108zM294 1095q3 11 19.5 27t46.5 16q18 0 32 -4.5t27.5 -9.5t27 -9.5t30.5 -4.5t26.5 3
t14.5 7q6 4 8 10l6 -3q-6 -21 -24.5 -34t-45.5 -13q-16 0 -29 4.5t-26.5 10t-28.5 10t-36 4.5q-31 0 -43 -17z" />
    <glyph glyph-name="Adieresis" unicode="&#xc4;" horiz-adv-x="876" 
d="M30 175q0 62 29.5 111.5t74 90t96.5 74t96.5 62t74 54.5t29.5 52q0 14 -7 20.5t-17 6.5q-18 0 -33.5 -16.5t-31 -36t-32.5 -36t-38 -16.5t-26 16.5t3 36.5q23 60 42.5 111t38 100t37.5 101t43 114h10l320 -845q33 -83 62 -124t75 -41v-10h-328v10q53 0 80 14t36 39
t2.5 58t-20.5 71l-124 327q6 -48 6 -120q0 -91 -21.5 -168t-62 -132.5t-99 -87t-133.5 -31.5q-43 0 -77 16t-57.5 42.5t-35.5 62t-12 74.5zM115 194q0 -71 41.5 -118.5t115.5 -47.5q63 0 109 34.5t76.5 88.5t45.5 119.5t15 126.5q0 56 -3.5 99.5t-17.5 88.5l-121 319
l-115 -306q-10 -26 -5.5 -36.5t16.5 -10.5q17 0 33 16.5t32.5 36t33.5 36t37 16.5q14 0 23.5 -9.5t9.5 -29.5q0 -33 -24 -60.5t-60.5 -54t-78.5 -54.5t-78.5 -64t-60.5 -82t-24 -108zM330 1110q0 12 8.5 20.5t21.5 8.5q12 0 20.5 -8.5t8.5 -20.5q0 -13 -8.5 -21.5
t-20.5 -8.5q-13 0 -21.5 8.5t-8.5 21.5zM463 1139q13 0 21.5 -8.5t8.5 -20.5q0 -13 -8.5 -21.5t-21.5 -8.5q-12 0 -20.5 8.5t-8.5 21.5q0 12 8.5 20.5t20.5 8.5z" />
    <glyph glyph-name="Aring" unicode="&#xc5;" horiz-adv-x="876" 
d="M30 175q0 62 29.5 111.5t74 90t96.5 74t96.5 62t74 54.5t29.5 52q0 14 -7 20.5t-17 6.5q-18 0 -33.5 -16.5t-31 -36t-32.5 -36t-38 -16.5t-26 16.5t3 36.5q23 60 42.5 111t38 100t37.5 101t43 114h10l320 -845q33 -83 62 -124t75 -41v-10h-328v10q53 0 80 14t36 39
t2.5 58t-20.5 71l-124 327q6 -48 6 -120q0 -91 -21.5 -168t-62 -132.5t-99 -87t-133.5 -31.5q-43 0 -77 16t-57.5 42.5t-35.5 62t-12 74.5zM115 194q0 -71 41.5 -118.5t115.5 -47.5q63 0 109 34.5t76.5 88.5t45.5 119.5t15 126.5q0 56 -3.5 99.5t-17.5 88.5l-121 319
l-115 -306q-10 -26 -5.5 -36.5t16.5 -10.5q17 0 33 16.5t32.5 36t33.5 36t37 16.5q14 0 23.5 -9.5t9.5 -29.5q0 -33 -24 -60.5t-60.5 -54t-78.5 -54.5t-78.5 -64t-60.5 -82t-24 -108zM414 1209q26 0 45 -19t19 -45q0 -27 -19 -46t-45 -19q-27 0 -46 19t-19 46q0 26 19 45
t46 19zM360 1145q0 -23 15.5 -38.5t38.5 -15.5t38.5 15.5t15.5 38.5q0 22 -15.5 37.5t-38.5 15.5t-38.5 -15.5t-15.5 -37.5z" />
    <glyph glyph-name="AE" unicode="&#xc6;" horiz-adv-x="1251" 
d="M430 619q0 14 -7 20.5t-17 6.5q-18 0 -33.5 -16.5t-31 -36t-32.5 -36t-38 -16.5t-29 18.5t6 34.5q53 62 98 113t86 98.5t81.5 94.5t83.5 100h624v-135h-10v4q0 51 -94 86t-268 35h-166v-430q22 22 51.5 34t64.5 12q37 0 67 -9.5t58 -21.5t56 -21.5t61 -9.5
q29 0 51.5 15.5t22.5 41.5h10q0 -45 -34 -77.5t-94 -32.5q-46 0 -79.5 13.5t-61.5 29.5t-52 30t-51 15q-22 1 -40 -9t-30 -26v-534h128q24 0 62.5 1.5t83 6.5t90 15.5t82 27.5t59.5 42.5t23 61.5h10v-165h-716v10q32 0 50.5 14t27.5 46t11.5 83t2.5 125v31
q-15 -73 -53 -133.5t-90 -104t-114.5 -67.5t-127.5 -24q-43 0 -77 16t-57.5 42.5t-35.5 62t-12 74.5q0 62 29.5 111.5t74 90t96.5 74t96.5 62t74 54.5t29.5 52zM272 28q63 0 121.5 34.5t103.5 88.5t72.5 119.5t27.5 126.5v577l-331 -376q-11 -12 -13 -21t0.5 -14.5t8 -8.5
t10.5 -3q17 0 33 16.5t32.5 36t33.5 36t37 16.5q14 0 23.5 -9.5t9.5 -29.5q0 -33 -24 -60.5t-60.5 -54t-78.5 -54.5t-78.5 -64t-60.5 -82t-24 -108q0 -71 41.5 -118.5t115.5 -47.5z" />
    <glyph glyph-name="Ccedilla" unicode="&#xc7;" horiz-adv-x="832" 
d="M505 1020q86 0 144.5 -20t94.5 -51t52 -68t16 -71q0 -52 -21 -93.5t-52.5 -76.5t-68 -64t-68 -56.5t-52.5 -54t-21 -56.5q0 -23 7.5 -37.5t22.5 -27.5q-20 -4 -36 3.5t-27.5 21.5t-17.5 32.5t-6 35.5q0 44 21 79t52 65.5t67.5 57.5t67.5 54.5t52 58t21 66.5q0 90 -61 140
t-187 50q-78 0 -143 -38.5t-112 -106t-73.5 -160.5t-26.5 -203q0 -109 28.5 -202.5t77 -161t113 -106t136.5 -38.5q42 0 76 7t62 19t50 27t38 31q38 37 59 84h11v-134q-60 -19 -130 -32.5t-166 -13.5q-93 0 -174.5 39t-141.5 108.5t-94.5 165t-34.5 207.5q0 113 34.5 208
t94.5 164.5t141.5 108.5t174.5 39zM436 -195l4 8q8 -6 23 -6q28 0 44 18t20 39.5t-5 39.5t-30 18q-11 0 -19.5 -4.5t-14.5 -9.5l-8 12l38 70h10l-38 -70q19 14 41 14q35 0 50.5 -22t12 -48t-27 -48t-67.5 -22q-20 0 -33 11z" />
    <glyph glyph-name="Egrave" unicode="&#xc8;" horiz-adv-x="776" 
d="M30 0v10q32 0 50.5 14t27.5 46t11.5 83t2.5 125v444q0 74 -2.5 125t-11.5 83t-27.5 46t-50.5 14v10h716v-135h-10v4q0 51 -94 86t-268 35h-166v-430q23 22 52 34t64 12q37 0 67 -9.5t58 -21.5t56 -21.5t61 -9.5q29 0 51.5 15.5t22.5 41.5h10q0 -45 -34 -77.5t-94 -32.5
q-46 0 -79.5 13.5t-61.5 29.5t-52 30t-51 15q-22 1 -40 -9t-30 -26v-534h128q24 0 62.5 1.5t83 6.5t90 15.5t82 27.5t59.5 42.5t23 61.5h10v-165h-716zM299 1148q0 11 7 19t21 8q18 0 28.5 -13.5t23 -29t31 -29t50.5 -13.5h32v-10h-76q-19 0 -39.5 5t-37.5 14t-28.5 21.5
t-11.5 27.5z" />
    <glyph glyph-name="Eacute" unicode="&#xc9;" horiz-adv-x="776" 
d="M30 0v10q32 0 50.5 14t27.5 46t11.5 83t2.5 125v444q0 74 -2.5 125t-11.5 83t-27.5 46t-50.5 14v10h716v-135h-10v4q0 51 -94 86t-268 35h-166v-430q23 22 52 34t64 12q37 0 67 -9.5t58 -21.5t56 -21.5t61 -9.5q29 0 51.5 15.5t22.5 41.5h10q0 -45 -34 -77.5t-94 -32.5
q-46 0 -79.5 13.5t-61.5 29.5t-52 30t-51 15q-22 1 -40 -9t-30 -26v-534h128q24 0 62.5 1.5t83 6.5t90 15.5t82 27.5t59.5 42.5t23 61.5h10v-165h-716zM299 1080v10h32q32 0 50.5 13.5t31 29t23 29t28.5 13.5q14 0 21 -8t7 -19q0 -15 -11 -27.5t-28.5 -21.5t-38 -14
t-39.5 -5h-76z" />
    <glyph glyph-name="Ecircumflex" unicode="&#xca;" horiz-adv-x="776" 
d="M30 0v10q32 0 50.5 14t27.5 46t11.5 83t2.5 125v444q0 74 -2.5 125t-11.5 83t-27.5 46t-50.5 14v10h716v-135h-10v4q0 51 -94 86t-268 35h-166v-430q23 22 52 34t64 12q37 0 67 -9.5t58 -21.5t56 -21.5t61 -9.5q29 0 51.5 15.5t22.5 41.5h10q0 -45 -34 -77.5t-94 -32.5
q-46 0 -79.5 13.5t-61.5 29.5t-52 30t-51 15q-22 1 -40 -9t-30 -26v-534h128q24 0 62.5 1.5t83 6.5t90 15.5t82 27.5t59.5 42.5t23 61.5h10v-165h-716zM393 1176l116 -86l-6 -10l-107 46l-107 -46l-6 10z" />
    <glyph glyph-name="Edieresis" unicode="&#xcb;" horiz-adv-x="776" 
d="M30 0v10q32 0 50.5 14t27.5 46t11.5 83t2.5 125v444q0 74 -2.5 125t-11.5 83t-27.5 46t-50.5 14v10h716v-135h-10v4q0 51 -94 86t-268 35h-166v-430q23 22 52 34t64 12q37 0 67 -9.5t58 -21.5t56 -21.5t61 -9.5q29 0 51.5 15.5t22.5 41.5h10q0 -45 -34 -77.5t-94 -32.5
q-46 0 -79.5 13.5t-61.5 29.5t-52 30t-51 15q-22 1 -40 -9t-30 -26v-534h128q24 0 62.5 1.5t83 6.5t90 15.5t82 27.5t59.5 42.5t23 61.5h10v-165h-716zM313 1110q0 12 8.5 20.5t21.5 8.5q12 0 20.5 -8.5t8.5 -20.5q0 -13 -8.5 -21.5t-20.5 -8.5q-13 0 -21.5 8.5t-8.5 21.5z
M446 1139q13 0 21.5 -8.5t8.5 -20.5q0 -13 -8.5 -21.5t-21.5 -8.5q-12 0 -20.5 8.5t-8.5 21.5q0 12 8.5 20.5t20.5 8.5z" />
    <glyph glyph-name="Igrave" unicode="&#xcc;" 
d="M30 10q32 0 50.5 14t27.5 46t11.5 83t2.5 125v444q0 74 -2.5 125t-11.5 83t-27.5 46t-50.5 14v10h270v-10q-32 0 -50.5 -14t-27.5 -46t-11.5 -83t-2.5 -125v-444q0 -74 2.5 -125t11.5 -83t27.5 -46t50.5 -14v-10h-270v10zM66 1148q0 11 7 19t21 8q18 0 28.5 -13.5t23 -29
t31 -29t50.5 -13.5h32v-10h-76q-19 0 -39.5 5t-37.5 14t-28.5 21.5t-11.5 27.5z" />
    <glyph glyph-name="Iacute" unicode="&#xcd;" 
d="M30 10q32 0 50.5 14t27.5 46t11.5 83t2.5 125v444q0 74 -2.5 125t-11.5 83t-27.5 46t-50.5 14v10h270v-10q-32 0 -50.5 -14t-27.5 -46t-11.5 -83t-2.5 -125v-444q0 -74 2.5 -125t11.5 -83t27.5 -46t50.5 -14v-10h-270v10zM66 1080v10h32q32 0 50.5 13.5t31 29t23 29
t28.5 13.5q14 0 21 -8t7 -19q0 -15 -11 -27.5t-28.5 -21.5t-38 -14t-39.5 -5h-76z" />
    <glyph glyph-name="Icircumflex" unicode="&#xce;" 
d="M30 10q32 0 50.5 14t27.5 46t11.5 83t2.5 125v444q0 74 -2.5 125t-11.5 83t-27.5 46t-50.5 14v10h270v-10q-32 0 -50.5 -14t-27.5 -46t-11.5 -83t-2.5 -125v-444q0 -74 2.5 -125t11.5 -83t27.5 -46t50.5 -14v-10h-270v10zM160 1176l116 -86l-6 -10l-107 46l-107 -46
l-6 10z" />
    <glyph glyph-name="Idieresis" unicode="&#xcf;" 
d="M30 10q32 0 50.5 14t27.5 46t11.5 83t2.5 125v444q0 74 -2.5 125t-11.5 83t-27.5 46t-50.5 14v10h270v-10q-32 0 -50.5 -14t-27.5 -46t-11.5 -83t-2.5 -125v-444q0 -74 2.5 -125t11.5 -83t27.5 -46t50.5 -14v-10h-270v10zM80 1110q0 12 8.5 20.5t21.5 8.5q12 0 20.5 -8.5
t8.5 -20.5q0 -13 -8.5 -21.5t-20.5 -8.5q-13 0 -21.5 8.5t-8.5 21.5zM213 1139q13 0 21.5 -8.5t8.5 -20.5q0 -13 -8.5 -21.5t-21.5 -8.5q-12 0 -20.5 8.5t-8.5 21.5q0 12 8.5 20.5t20.5 8.5z" />
    <glyph glyph-name="Eth" unicode="&#xd0;" horiz-adv-x="903" 
d="M30 10q32 0 50.5 14t27.5 46t11.5 83t2.5 125v444q0 74 -2.5 125t-11.5 83t-27.5 46t-50.5 14v10h80q79 0 146 10t133 10q116 0 201 -42.5t141.5 -114.5t84 -166t27.5 -197t-27.5 -197t-84 -166t-141.5 -114.5t-201 -42.5q-66 0 -133 10t-146 10h-80v10zM207 22
q44 -14 88 -21t93 -7q93 0 162 40.5t115 110t69 161.5t23 194t-23 194t-69 161.5t-115 110t-162 40.5q-49 0 -93 -7t-88 -21v-956zM-20 550h426v-20h-426v20z" />
    <glyph glyph-name="Ntilde" unicode="&#xd1;" horiz-adv-x="897" 
d="M205 1000l560 -854v436q0 109 -14 186.5t-37.5 126.5t-54 72t-62.5 23v10h270v-10q-32 0 -50.5 -14t-27.5 -46t-11.5 -83t-2.5 -125v-742h-10l-633 964v-526q0 -109 14 -186.5t37.5 -126.5t54 -72t62.5 -23v-10h-270v10q32 0 50.5 14t27.5 46t11.5 83t2.5 125v444
q0 74 -2.5 125t-11.5 83t-27.5 46t-50.5 14v10h175zM321 1095q3 11 19.5 27t46.5 16q18 0 32 -4.5t27.5 -9.5t27 -9.5t30.5 -4.5t26.5 3t14.5 7q6 4 8 10l6 -3q-6 -21 -24.5 -34t-45.5 -13q-16 0 -29 4.5t-26.5 10t-28.5 10t-36 4.5q-31 0 -43 -17z" />
    <glyph glyph-name="Ograve" unicode="&#xd2;" horiz-adv-x="1010" 
d="M60 500q0 113 34.5 208t94.5 164.5t141.5 108.5t174.5 39t174.5 -39t141.5 -108.5t94.5 -164.5t34.5 -208q0 -112 -34.5 -207.5t-94.5 -165t-141.5 -108.5t-174.5 -39t-174.5 39t-141.5 108.5t-94.5 165t-34.5 207.5zM150 500q0 -109 28.5 -202.5t77 -161t113 -106
t136.5 -38.5t136.5 38.5t113 106t77 161t28.5 202.5q0 110 -26.5 203t-73.5 160.5t-112 106t-143 38.5t-143 -38.5t-112 -106t-73.5 -160.5t-26.5 -203zM408 1148q0 11 7 19t21 8q18 0 28.5 -13.5t23 -29t31 -29t50.5 -13.5h32v-10h-76q-19 0 -39.5 5t-37.5 14t-28.5 21.5
t-11.5 27.5z" />
    <glyph glyph-name="Oacute" unicode="&#xd3;" horiz-adv-x="1010" 
d="M60 500q0 113 34.5 208t94.5 164.5t141.5 108.5t174.5 39t174.5 -39t141.5 -108.5t94.5 -164.5t34.5 -208q0 -112 -34.5 -207.5t-94.5 -165t-141.5 -108.5t-174.5 -39t-174.5 39t-141.5 108.5t-94.5 165t-34.5 207.5zM150 500q0 -109 28.5 -202.5t77 -161t113 -106
t136.5 -38.5t136.5 38.5t113 106t77 161t28.5 202.5q0 110 -26.5 203t-73.5 160.5t-112 106t-143 38.5t-143 -38.5t-112 -106t-73.5 -160.5t-26.5 -203zM408 1080v10h32q32 0 50.5 13.5t31 29t23 29t28.5 13.5q14 0 21 -8t7 -19q0 -15 -11 -27.5t-28.5 -21.5t-38 -14
t-39.5 -5h-76z" />
    <glyph glyph-name="Ocircumflex" unicode="&#xd4;" horiz-adv-x="1010" 
d="M60 500q0 113 34.5 208t94.5 164.5t141.5 108.5t174.5 39t174.5 -39t141.5 -108.5t94.5 -164.5t34.5 -208q0 -112 -34.5 -207.5t-94.5 -165t-141.5 -108.5t-174.5 -39t-174.5 39t-141.5 108.5t-94.5 165t-34.5 207.5zM150 500q0 -109 28.5 -202.5t77 -161t113 -106
t136.5 -38.5t136.5 38.5t113 106t77 161t28.5 202.5q0 110 -26.5 203t-73.5 160.5t-112 106t-143 38.5t-143 -38.5t-112 -106t-73.5 -160.5t-26.5 -203zM502 1176l116 -86l-6 -10l-107 46l-107 -46l-6 10z" />
    <glyph glyph-name="Otilde" unicode="&#xd5;" horiz-adv-x="1010" 
d="M60 500q0 113 34.5 208t94.5 164.5t141.5 108.5t174.5 39t174.5 -39t141.5 -108.5t94.5 -164.5t34.5 -208q0 -112 -34.5 -207.5t-94.5 -165t-141.5 -108.5t-174.5 -39t-174.5 39t-141.5 108.5t-94.5 165t-34.5 207.5zM150 500q0 -109 28.5 -202.5t77 -161t113 -106
t136.5 -38.5t136.5 38.5t113 106t77 161t28.5 202.5q0 110 -26.5 203t-73.5 160.5t-112 106t-143 38.5t-143 -38.5t-112 -106t-73.5 -160.5t-26.5 -203zM386 1095q3 11 19.5 27t46.5 16q18 0 32 -4.5t27.5 -9.5t27 -9.5t30.5 -4.5t26.5 3t14.5 7q6 4 8 10l6 -3
q-6 -21 -24.5 -34t-45.5 -13q-16 0 -29 4.5t-26.5 10t-28.5 10t-36 4.5q-31 0 -43 -17z" />
    <glyph glyph-name="Odieresis" unicode="&#xd6;" horiz-adv-x="1010" 
d="M60 500q0 113 34.5 208t94.5 164.5t141.5 108.5t174.5 39t174.5 -39t141.5 -108.5t94.5 -164.5t34.5 -208q0 -112 -34.5 -207.5t-94.5 -165t-141.5 -108.5t-174.5 -39t-174.5 39t-141.5 108.5t-94.5 165t-34.5 207.5zM150 500q0 -109 28.5 -202.5t77 -161t113 -106
t136.5 -38.5t136.5 38.5t113 106t77 161t28.5 202.5q0 110 -26.5 203t-73.5 160.5t-112 106t-143 38.5t-143 -38.5t-112 -106t-73.5 -160.5t-26.5 -203zM422 1110q0 12 8.5 20.5t21.5 8.5q12 0 20.5 -8.5t8.5 -20.5q0 -13 -8.5 -21.5t-20.5 -8.5q-13 0 -21.5 8.5t-8.5 21.5z
M555 1139q13 0 21.5 -8.5t8.5 -20.5q0 -13 -8.5 -21.5t-21.5 -8.5q-12 0 -20.5 8.5t-8.5 21.5q0 12 8.5 20.5t20.5 8.5z" />
    <glyph glyph-name="multiply" unicode="&#xd7;" horiz-adv-x="494" 
d="M78 383q10 10 30 23t44 28t48 31.5t42 33.5q-18 17 -42 34t-48 32l-44 27.5t-30 22.5q-14 14 -17.5 30.5t9.5 30.5q9 10 24 10q20 0 37 -17q10 -10 23 -30t28 -44t31.5 -48t33.5 -42q17 18 34 42t32 48l27.5 44t22.5 30q17 17 37 17q14 0 24 -10q14 -14 10.5 -30.5
t-17.5 -30.5q-9 -10 -29.5 -23t-44.5 -28t-48 -31.5t-42 -33.5q18 -17 42 -33.5t48 -31.5t44 -28t30 -23q14 -14 17.5 -30.5t-10.5 -29.5q-13 -11 -25 -11q-18 0 -36 18q-10 10 -22.5 30l-27.5 44t-32 48t-34 42q-17 -18 -33.5 -42t-31.5 -48t-28 -44t-23 -30
q-18 -18 -36 -18q-14 0 -25 11q-13 13 -9.5 29.5t17.5 30.5z" />
    <glyph glyph-name="Oslash" unicode="&#xd8;" horiz-adv-x="1010" 
d="M60 500q0 113 34.5 208t94.5 164.5t141.5 108.5t174.5 39t174.5 -39t141.5 -108.5t94.5 -164.5t34.5 -208q0 -112 -34.5 -207.5t-94.5 -165t-141.5 -108.5t-174.5 -39t-174.5 39t-141.5 108.5t-94.5 165t-34.5 207.5zM150 500q0 -109 28.5 -202.5t77 -161t113 -106
t136.5 -38.5t136.5 38.5t113 106t77 161t28.5 202.5q0 110 -26.5 203t-73.5 160.5t-112 106t-143 38.5t-143 -38.5t-112 -106t-73.5 -160.5t-26.5 -203zM662 1020h10l-324 -1040h-10z" />
    <glyph glyph-name="Ugrave" unicode="&#xd9;" horiz-adv-x="916" 
d="M30 1000h270v-10q-32 0 -50.5 -14t-27.5 -46t-11.5 -83t-2.5 -125v-444q0 -73 19.5 -127t53.5 -90t80 -53.5t99 -17.5t98.5 18t78.5 54t52 90t19 126v444q0 74 -2.5 125t-11.5 83t-27.5 46t-50.5 14v10h270v-10q-32 0 -50.5 -14t-27.5 -46t-11.5 -83t-2.5 -125v-444
q0 -75 -26.5 -131t-71.5 -93t-106 -55.5t-130 -18.5t-130.5 18t-107.5 55t-73 93t-27 132v444q0 74 -2.5 125t-11.5 83t-27.5 46t-50.5 14v10zM361 1148q0 11 7 19t21 8q18 0 28.5 -13.5t23 -29t31 -29t50.5 -13.5h32v-10h-76q-19 0 -39.5 5t-37.5 14t-28.5 21.5t-11.5 27.5
z" />
    <glyph glyph-name="Uacute" unicode="&#xda;" horiz-adv-x="916" 
d="M30 1000h270v-10q-32 0 -50.5 -14t-27.5 -46t-11.5 -83t-2.5 -125v-444q0 -73 19.5 -127t53.5 -90t80 -53.5t99 -17.5t98.5 18t78.5 54t52 90t19 126v444q0 74 -2.5 125t-11.5 83t-27.5 46t-50.5 14v10h270v-10q-32 0 -50.5 -14t-27.5 -46t-11.5 -83t-2.5 -125v-444
q0 -75 -26.5 -131t-71.5 -93t-106 -55.5t-130 -18.5t-130.5 18t-107.5 55t-73 93t-27 132v444q0 74 -2.5 125t-11.5 83t-27.5 46t-50.5 14v10zM361 1080v10h32q32 0 50.5 13.5t31 29t23 29t28.5 13.5q14 0 21 -8t7 -19q0 -15 -11 -27.5t-28.5 -21.5t-38 -14t-39.5 -5h-76z
" />
    <glyph glyph-name="Ucircumflex" unicode="&#xdb;" horiz-adv-x="916" 
d="M30 1000h270v-10q-32 0 -50.5 -14t-27.5 -46t-11.5 -83t-2.5 -125v-444q0 -73 19.5 -127t53.5 -90t80 -53.5t99 -17.5t98.5 18t78.5 54t52 90t19 126v444q0 74 -2.5 125t-11.5 83t-27.5 46t-50.5 14v10h270v-10q-32 0 -50.5 -14t-27.5 -46t-11.5 -83t-2.5 -125v-444
q0 -75 -26.5 -131t-71.5 -93t-106 -55.5t-130 -18.5t-130.5 18t-107.5 55t-73 93t-27 132v444q0 74 -2.5 125t-11.5 83t-27.5 46t-50.5 14v10zM456 1176l116 -86l-6 -10l-107 46l-107 -46l-6 10z" />
    <glyph glyph-name="Udieresis" unicode="&#xdc;" horiz-adv-x="916" 
d="M30 1000h270v-10q-32 0 -50.5 -14t-27.5 -46t-11.5 -83t-2.5 -125v-444q0 -73 19.5 -127t53.5 -90t80 -53.5t99 -17.5t98.5 18t78.5 54t52 90t19 126v444q0 74 -2.5 125t-11.5 83t-27.5 46t-50.5 14v10h270v-10q-32 0 -50.5 -14t-27.5 -46t-11.5 -83t-2.5 -125v-444
q0 -75 -26.5 -131t-71.5 -93t-106 -55.5t-130 -18.5t-130.5 18t-107.5 55t-73 93t-27 132v444q0 74 -2.5 125t-11.5 83t-27.5 46t-50.5 14v10zM376 1110q0 12 8.5 20.5t21.5 8.5q12 0 20.5 -8.5t8.5 -20.5q0 -13 -8.5 -21.5t-20.5 -8.5q-13 0 -21.5 8.5t-8.5 21.5zM509 1139
q13 0 21.5 -8.5t8.5 -20.5q0 -13 -8.5 -21.5t-21.5 -8.5q-12 0 -20.5 8.5t-8.5 21.5q0 12 8.5 20.5t20.5 8.5z" />
    <glyph glyph-name="Yacute" unicode="&#xdd;" horiz-adv-x="818" 
d="M0 990v10h278v-10h-22q-21 0 -37.5 -11.5t-16.5 -41.5q0 -17 14 -51.5t36.5 -79.5t50 -95.5t55 -100t52 -93t39.5 -73.5q17 33 41.5 78t50.5 95t52 101.5t46.5 96t33.5 78.5t13 51q0 27 -17.5 36.5t-38.5 9.5h-26v10h214v-10q-28 0 -49 -14.5t-41 -45t-43.5 -77.5
t-57.5 -112q-23 -43 -48.5 -89t-49.5 -88.5t-44 -79t-33 -61.5v-145q0 -74 2.5 -125t11.5 -83t27.5 -46t50.5 -14v-10h-270v10q32 0 50.5 14t27.5 46t11.5 83t2.5 125v145q-13 25 -33 61.5t-44 79t-49.5 88.5t-48.5 89q-34 65 -57.5 112t-43.5 77.5t-40.5 45t-49.5 14.5z
M347 1080v10h32q32 0 50.5 13.5t31 29t23 29t28.5 13.5q14 0 21 -8t7 -19q0 -15 -11 -27.5t-28.5 -21.5t-38 -14t-39.5 -5h-76z" />
    <glyph glyph-name="germandbls" unicode="&#xdf;" horiz-adv-x="806" 
d="M122 278v472q0 55 19.5 104t54 86t82 58.5t104.5 21.5q52 0 95 -12.5t74 -36t48 -58t17 -78.5q0 -59 -26.5 -102.5t-66 -75t-86 -53.5t-86 -40t-66 -34t-26.5 -35q0 -13 5 -19.5t12 -8.5q7 -3 16 -3q20 0 41 9.5t45.5 21.5t52.5 21.5t61 9.5q59 0 111 -17.5t90.5 -50.5
t60.5 -80t22 -107q0 -63 -24 -116.5t-65.5 -92t-96.5 -60.5t-118 -22q-41 0 -80.5 10t-70.5 30.5t-50 50t-19 68.5q0 11 0.5 16t2.5 13h9q-7 -40 6.5 -69.5t39 -48.5t60 -28t69.5 -9q51 0 97 17t80.5 48.5t54.5 75t20 97.5q0 47 -15 91.5t-42 79.5t-64.5 56.5t-81.5 21.5
q-43 0 -71 -7t-48.5 -15.5t-38 -15.5t-38.5 -8q-17 -1 -30 10t-13 26q0 21 21 40t52 40t68 45t68 55.5t52 72.5t21 95q0 33 -9 63.5t-28 54t-46.5 38t-65.5 14.5q-35 0 -66.5 -17.5t-55.5 -50.5t-38 -81t-14 -109v-750h-178v10q32 0 50.5 14t27.5 46t11.5 83t2.5 125z" />
    <glyph glyph-name="agrave" unicode="&#xe0;" horiz-adv-x="746" 
d="M60 202q0 66 21.5 111.5t57.5 76.5t81.5 50.5t92.5 33t92.5 24t81.5 24t57.5 32.5t21.5 50q0 30 -16 52t-41 35.5t-56.5 20t-61.5 6.5q-36 0 -69.5 -6.5t-59.5 -20.5t-42 -36t-16 -53q0 -14 5 -24.5t11.5 -16.5t13.5 -7t10 2q4 -11 0 -21.5t-12 -18.5t-20 -13t-24 -5
q-32 0 -52 24t-20 56q0 37 21 65t57.5 47t87 28.5t109.5 9.5q42 0 88 -8.5t84.5 -25t63 -39.5t24.5 -53t-21.5 -47.5t-57 -29t-80.5 -20t-92.5 -20.5t-92.5 -31t-80.5 -52t-57 -83t-21.5 -123q0 -39 12 -72.5t33.5 -58t51.5 -38.5t67 -14q41 0 84 22t79 70t59 124.5
t23 185.5q0 17 -3 31.5t-14 17.5q0 5 7.5 9.5t19.5 4.5q27 0 43.5 -13t25 -35t11 -50t2.5 -58v-55.5t0.5 -43.5t0.5 -46v-65q0 -31 8 -51t20 -31.5t25 -15.5t23 -4v-10h-71q-40 0 -67.5 33.5t-27.5 90.5v171q-13 -64 -33.5 -121.5t-53 -100.5t-78.5 -68t-112 -25
q-48 0 -89 16.5t-71 46t-46.5 70.5t-16.5 89zM294 856q0 11 7 19t21 8q18 0 28.5 -13.5t23 -29t31 -29t50.5 -13.5h32v-10h-76q-19 0 -39.5 5t-37.5 14t-28.5 21.5t-11.5 27.5z" />
    <glyph glyph-name="aacute" unicode="&#xe1;" horiz-adv-x="746" 
d="M60 202q0 66 21.5 111.5t57.5 76.5t81.5 50.5t92.5 33t92.5 24t81.5 24t57.5 32.5t21.5 50q0 30 -16 52t-41 35.5t-56.5 20t-61.5 6.5q-36 0 -69.5 -6.5t-59.5 -20.5t-42 -36t-16 -53q0 -14 5 -24.5t11.5 -16.5t13.5 -7t10 2q4 -11 0 -21.5t-12 -18.5t-20 -13t-24 -5
q-32 0 -52 24t-20 56q0 37 21 65t57.5 47t87 28.5t109.5 9.5q42 0 88 -8.5t84.5 -25t63 -39.5t24.5 -53t-21.5 -47.5t-57 -29t-80.5 -20t-92.5 -20.5t-92.5 -31t-80.5 -52t-57 -83t-21.5 -123q0 -39 12 -72.5t33.5 -58t51.5 -38.5t67 -14q41 0 84 22t79 70t59 124.5
t23 185.5q0 17 -3 31.5t-14 17.5q0 5 7.5 9.5t19.5 4.5q27 0 43.5 -13t25 -35t11 -50t2.5 -58v-55.5t0.5 -43.5t0.5 -46v-65q0 -31 8 -51t20 -31.5t25 -15.5t23 -4v-10h-71q-40 0 -67.5 33.5t-27.5 90.5v171q-13 -64 -33.5 -121.5t-53 -100.5t-78.5 -68t-112 -25
q-48 0 -89 16.5t-71 46t-46.5 70.5t-16.5 89zM294 788v10h32q32 0 50.5 13.5t31 29t23 29t28.5 13.5q14 0 21 -8t7 -19q0 -15 -11 -27.5t-28.5 -21.5t-38 -14t-39.5 -5h-76z" />
    <glyph glyph-name="acircumflex" unicode="&#xe2;" horiz-adv-x="746" 
d="M60 202q0 66 21.5 111.5t57.5 76.5t81.5 50.5t92.5 33t92.5 24t81.5 24t57.5 32.5t21.5 50q0 30 -16 52t-41 35.5t-56.5 20t-61.5 6.5q-36 0 -69.5 -6.5t-59.5 -20.5t-42 -36t-16 -53q0 -14 5 -24.5t11.5 -16.5t13.5 -7t10 2q4 -11 0 -21.5t-12 -18.5t-20 -13t-24 -5
q-32 0 -52 24t-20 56q0 37 21 65t57.5 47t87 28.5t109.5 9.5q42 0 88 -8.5t84.5 -25t63 -39.5t24.5 -53t-21.5 -47.5t-57 -29t-80.5 -20t-92.5 -20.5t-92.5 -31t-80.5 -52t-57 -83t-21.5 -123q0 -39 12 -72.5t33.5 -58t51.5 -38.5t67 -14q41 0 84 22t79 70t59 124.5
t23 185.5q0 17 -3 31.5t-14 17.5q0 5 7.5 9.5t19.5 4.5q27 0 43.5 -13t25 -35t11 -50t2.5 -58v-55.5t0.5 -43.5t0.5 -46v-65q0 -31 8 -51t20 -31.5t25 -15.5t23 -4v-10h-71q-40 0 -67.5 33.5t-27.5 90.5v171q-13 -64 -33.5 -121.5t-53 -100.5t-78.5 -68t-112 -25
q-48 0 -89 16.5t-71 46t-46.5 70.5t-16.5 89zM388 884l116 -86l-6 -10l-107 46l-107 -46l-6 10z" />
    <glyph glyph-name="atilde" unicode="&#xe3;" horiz-adv-x="746" 
d="M60 202q0 66 21.5 111.5t57.5 76.5t81.5 50.5t92.5 33t92.5 24t81.5 24t57.5 32.5t21.5 50q0 30 -16 52t-41 35.5t-56.5 20t-61.5 6.5q-36 0 -69.5 -6.5t-59.5 -20.5t-42 -36t-16 -53q0 -14 5 -24.5t11.5 -16.5t13.5 -7t10 2q4 -11 0 -21.5t-12 -18.5t-20 -13t-24 -5
q-32 0 -52 24t-20 56q0 37 21 65t57.5 47t87 28.5t109.5 9.5q42 0 88 -8.5t84.5 -25t63 -39.5t24.5 -53t-21.5 -47.5t-57 -29t-80.5 -20t-92.5 -20.5t-92.5 -31t-80.5 -52t-57 -83t-21.5 -123q0 -39 12 -72.5t33.5 -58t51.5 -38.5t67 -14q41 0 84 22t79 70t59 124.5
t23 185.5q0 17 -3 31.5t-14 17.5q0 5 7.5 9.5t19.5 4.5q27 0 43.5 -13t25 -35t11 -50t2.5 -58v-55.5t0.5 -43.5t0.5 -46v-65q0 -31 8 -51t20 -31.5t25 -15.5t23 -4v-10h-71q-40 0 -67.5 33.5t-27.5 90.5v171q-13 -64 -33.5 -121.5t-53 -100.5t-78.5 -68t-112 -25
q-48 0 -89 16.5t-71 46t-46.5 70.5t-16.5 89zM272 803q3 11 19.5 27t46.5 16q18 0 32 -4.5t27.5 -9.5t27 -9.5t30.5 -4.5t26.5 3t14.5 7q6 4 8 10l6 -3q-6 -21 -24.5 -34t-45.5 -13q-16 0 -29 4.5t-26.5 10t-28.5 10t-36 4.5q-31 0 -43 -17z" />
    <glyph glyph-name="adieresis" unicode="&#xe4;" horiz-adv-x="746" 
d="M60 202q0 66 21.5 111.5t57.5 76.5t81.5 50.5t92.5 33t92.5 24t81.5 24t57.5 32.5t21.5 50q0 30 -16 52t-41 35.5t-56.5 20t-61.5 6.5q-36 0 -69.5 -6.5t-59.5 -20.5t-42 -36t-16 -53q0 -14 5 -24.5t11.5 -16.5t13.5 -7t10 2q4 -11 0 -21.5t-12 -18.5t-20 -13t-24 -5
q-32 0 -52 24t-20 56q0 37 21 65t57.5 47t87 28.5t109.5 9.5q42 0 88 -8.5t84.5 -25t63 -39.5t24.5 -53t-21.5 -47.5t-57 -29t-80.5 -20t-92.5 -20.5t-92.5 -31t-80.5 -52t-57 -83t-21.5 -123q0 -39 12 -72.5t33.5 -58t51.5 -38.5t67 -14q41 0 84 22t79 70t59 124.5
t23 185.5q0 17 -3 31.5t-14 17.5q0 5 7.5 9.5t19.5 4.5q27 0 43.5 -13t25 -35t11 -50t2.5 -58v-55.5t0.5 -43.5t0.5 -46v-65q0 -31 8 -51t20 -31.5t25 -15.5t23 -4v-10h-71q-40 0 -67.5 33.5t-27.5 90.5v171q-13 -64 -33.5 -121.5t-53 -100.5t-78.5 -68t-112 -25
q-48 0 -89 16.5t-71 46t-46.5 70.5t-16.5 89zM308 818q0 12 8.5 20.5t21.5 8.5q12 0 20.5 -8.5t8.5 -20.5q0 -13 -8.5 -21.5t-20.5 -8.5q-13 0 -21.5 8.5t-8.5 21.5zM441 847q13 0 21.5 -8.5t8.5 -20.5q0 -13 -8.5 -21.5t-21.5 -8.5q-12 0 -20.5 8.5t-8.5 21.5
q0 12 8.5 20.5t20.5 8.5z" />
    <glyph glyph-name="aring" unicode="&#xe5;" horiz-adv-x="746" 
d="M60 202q0 66 21.5 111.5t57.5 76.5t81.5 50.5t92.5 33t92.5 24t81.5 24t57.5 32.5t21.5 50q0 30 -16 52t-41 35.5t-56.5 20t-61.5 6.5q-36 0 -69.5 -6.5t-59.5 -20.5t-42 -36t-16 -53q0 -14 5 -24.5t11.5 -16.5t13.5 -7t10 2q4 -11 0 -21.5t-12 -18.5t-20 -13t-24 -5
q-32 0 -52 24t-20 56q0 37 21 65t57.5 47t87 28.5t109.5 9.5q42 0 88 -8.5t84.5 -25t63 -39.5t24.5 -53t-21.5 -47.5t-57 -29t-80.5 -20t-92.5 -20.5t-92.5 -31t-80.5 -52t-57 -83t-21.5 -123q0 -39 12 -72.5t33.5 -58t51.5 -38.5t67 -14q41 0 84 22t79 70t59 124.5
t23 185.5q0 17 -3 31.5t-14 17.5q0 5 7.5 9.5t19.5 4.5q27 0 43.5 -13t25 -35t11 -50t2.5 -58v-55.5t0.5 -43.5t0.5 -46v-65q0 -31 8 -51t20 -31.5t25 -15.5t23 -4v-10h-71q-40 0 -67.5 33.5t-27.5 90.5v171q-13 -64 -33.5 -121.5t-53 -100.5t-78.5 -68t-112 -25
q-48 0 -89 16.5t-71 46t-46.5 70.5t-16.5 89zM391 917q26 0 45 -19t19 -45q0 -27 -19 -46t-45 -19q-27 0 -46 19t-19 46q0 26 19 45t46 19zM337 853q0 -23 15.5 -38.5t38.5 -15.5t38.5 15.5t15.5 38.5q0 22 -15.5 37.5t-38.5 15.5t-38.5 -15.5t-15.5 -37.5z" />
    <glyph glyph-name="ae" unicode="&#xe6;" horiz-adv-x="1285" 
d="M566 604q0 30 -16 52t-41 35.5t-56.5 20t-61.5 6.5q-36 0 -69.5 -6.5t-59.5 -20.5t-42 -36t-16 -53q0 -14 5 -24.5t11.5 -16.5t13.5 -7t10 2q4 -11 0 -21.5t-12 -18.5t-20 -13t-24 -5q-32 0 -52 24t-20 56q0 37 21 65t57.5 47t87 28.5t109.5 9.5q42 0 87.5 -8.5
t83.5 -24.5t63 -39t26 -52q45 57 111 90.5t153 33.5q81 0 136 -24.5t89.5 -61.5t49.5 -79t15 -78q0 -48 -19.5 -80t-49 -51t-65 -27t-68.5 -8q-42 0 -80.5 13t-73.5 29t-66.5 29t-60.5 13q-18 0 -27.5 -7t-11.5 -13l-4 1q0 31 27.5 51t62.5 20q31 0 62.5 -18.5t65.5 -40.5
t72 -40.5t83 -18.5q51 0 79.5 31t28.5 86q0 40 -17 83t-52.5 79t-90 59.5t-129.5 23.5q-57 0 -104.5 -19t-81 -52.5t-52 -79t-18.5 -97.5q0 -99 32 -176.5t83.5 -131t115.5 -82t127 -28.5q30 0 64 6t66.5 22.5t61 46.5t46.5 78l14 -6q-39 -90 -118.5 -145t-191.5 -55
q-79 0 -141.5 28t-106.5 76.5t-68 114t-27 139.5l-10 -43q-13 -54 -33.5 -110t-53 -101.5t-79.5 -74.5t-113 -29q-48 0 -89 16.5t-71 46t-46.5 70.5t-16.5 89q0 66 21.5 111.5t57.5 76.5t81.5 50.5t92.5 33t92.5 24t81.5 24t57.5 32.5t21.5 50zM148 196q0 -39 12 -72.5
t33.5 -58t51.5 -38.5t67 -14q41 0 80.5 22.5t74.5 70.5t63 123t45 179q9 72 38 135q-29 -17 -74.5 -26.5t-97.5 -21t-104 -29.5t-94 -51t-68.5 -85.5t-26.5 -133.5z" />
    <glyph glyph-name="ccedilla" unicode="&#xe7;" horiz-adv-x="733" 
d="M403 728q64 0 115 -10.5t87 -24.5q42 -15 75 -35v-118h-4q-21 41 -51.5 74t-67 55.5t-77 34.5t-79.5 12q-76 0 -125.5 -36.5t-78.5 -90.5t-40.5 -116.5t-10.5 -115.5q1 -69 21 -131.5t57.5 -109.5t91.5 -74.5t123 -27.5q30 0 67.5 8.5t74 29t68.5 53.5t50 81l14 -6
q-39 -90 -118.5 -145t-191.5 -55q-81 0 -144.5 29.5t-107.5 80.5t-67.5 119t-23.5 145t23.5 145t67.5 119t107.5 80.5t144.5 29.5zM349 -196l4 8q8 -6 23 -6q28 0 44 18t20 39.5t-5 39.5t-30 18q-11 0 -19.5 -4.5t-14.5 -9.5l-8 12l38 70h10l-38 -70q19 14 41 14
q35 0 50.5 -22t12 -48t-27 -48t-67.5 -22q-20 0 -33 11z" />
    <glyph glyph-name="egrave" unicode="&#xe8;" horiz-adv-x="773" 
d="M60 354q0 77 23.5 145t67.5 119t107.5 80.5t144.5 29.5t138.5 -21.5t95 -55t55 -73.5t17.5 -78q0 -85 -47 -133t-134 -48q-60 0 -102 14t-75.5 30.5t-63.5 30.5t-67 14q-18 0 -32.5 -9.5t-16.5 -15.5l-4 1q0 31 26.5 55.5t78.5 24.5q39 0 74 -21t67 -45.5t62 -45.5
t60 -21q37 0 61.5 28.5t33.5 71.5t1 92.5t-35 92.5t-75 71.5t-120 28.5q-76 0 -125.5 -36.5t-78.5 -90.5t-40.5 -116.5t-10.5 -115.5q1 -69 21 -131.5t57.5 -109.5t91.5 -74.5t123 -27.5q30 0 67.5 8.5t74 29t68.5 53.5t50 81l14 -6q-39 -90 -118.5 -145t-191.5 -55
q-81 0 -144.5 29.5t-107.5 80.5t-67.5 119t-23.5 145zM314 856q0 11 7 19t21 8q18 0 28.5 -13.5t23 -29t31 -29t50.5 -13.5h32v-10h-76q-19 0 -39.5 5t-37.5 14t-28.5 21.5t-11.5 27.5z" />
    <glyph glyph-name="eacute" unicode="&#xe9;" horiz-adv-x="773" 
d="M60 354q0 77 23.5 145t67.5 119t107.5 80.5t144.5 29.5t138.5 -21.5t95 -55t55 -73.5t17.5 -78q0 -85 -47 -133t-134 -48q-60 0 -102 14t-75.5 30.5t-63.5 30.5t-67 14q-18 0 -32.5 -9.5t-16.5 -15.5l-4 1q0 31 26.5 55.5t78.5 24.5q39 0 74 -21t67 -45.5t62 -45.5
t60 -21q37 0 61.5 28.5t33.5 71.5t1 92.5t-35 92.5t-75 71.5t-120 28.5q-76 0 -125.5 -36.5t-78.5 -90.5t-40.5 -116.5t-10.5 -115.5q1 -69 21 -131.5t57.5 -109.5t91.5 -74.5t123 -27.5q30 0 67.5 8.5t74 29t68.5 53.5t50 81l14 -6q-39 -90 -118.5 -145t-191.5 -55
q-81 0 -144.5 29.5t-107.5 80.5t-67.5 119t-23.5 145zM314 788v10h32q32 0 50.5 13.5t31 29t23 29t28.5 13.5q14 0 21 -8t7 -19q0 -15 -11 -27.5t-28.5 -21.5t-38 -14t-39.5 -5h-76z" />
    <glyph glyph-name="ecircumflex" unicode="&#xea;" horiz-adv-x="773" 
d="M60 354q0 77 23.5 145t67.5 119t107.5 80.5t144.5 29.5t138.5 -21.5t95 -55t55 -73.5t17.5 -78q0 -85 -47 -133t-134 -48q-60 0 -102 14t-75.5 30.5t-63.5 30.5t-67 14q-18 0 -32.5 -9.5t-16.5 -15.5l-4 1q0 31 26.5 55.5t78.5 24.5q39 0 74 -21t67 -45.5t62 -45.5
t60 -21q37 0 61.5 28.5t33.5 71.5t1 92.5t-35 92.5t-75 71.5t-120 28.5q-76 0 -125.5 -36.5t-78.5 -90.5t-40.5 -116.5t-10.5 -115.5q1 -69 21 -131.5t57.5 -109.5t91.5 -74.5t123 -27.5q30 0 67.5 8.5t74 29t68.5 53.5t50 81l14 -6q-39 -90 -118.5 -145t-191.5 -55
q-81 0 -144.5 29.5t-107.5 80.5t-67.5 119t-23.5 145zM408 884l116 -86l-6 -10l-107 46l-107 -46l-6 10z" />
    <glyph glyph-name="edieresis" unicode="&#xeb;" horiz-adv-x="773" 
d="M60 354q0 77 23.5 145t67.5 119t107.5 80.5t144.5 29.5t138.5 -21.5t95 -55t55 -73.5t17.5 -78q0 -85 -47 -133t-134 -48q-60 0 -102 14t-75.5 30.5t-63.5 30.5t-67 14q-18 0 -32.5 -9.5t-16.5 -15.5l-4 1q0 31 26.5 55.5t78.5 24.5q39 0 74 -21t67 -45.5t62 -45.5
t60 -21q37 0 61.5 28.5t33.5 71.5t1 92.5t-35 92.5t-75 71.5t-120 28.5q-76 0 -125.5 -36.5t-78.5 -90.5t-40.5 -116.5t-10.5 -115.5q1 -69 21 -131.5t57.5 -109.5t91.5 -74.5t123 -27.5q30 0 67.5 8.5t74 29t68.5 53.5t50 81l14 -6q-39 -90 -118.5 -145t-191.5 -55
q-81 0 -144.5 29.5t-107.5 80.5t-67.5 119t-23.5 145zM328 818q0 12 8.5 20.5t21.5 8.5q12 0 20.5 -8.5t8.5 -20.5q0 -13 -8.5 -21.5t-20.5 -8.5q-13 0 -21.5 8.5t-8.5 21.5zM461 847q13 0 21.5 -8.5t8.5 -20.5q0 -13 -8.5 -21.5t-21.5 -8.5q-12 0 -20.5 8.5t-8.5 21.5
q0 12 8.5 20.5t20.5 8.5z" />
    <glyph glyph-name="igrave" unicode="&#xec;" 
d="M30 708h178v-430q0 -74 2.5 -125t11.5 -83t27.5 -46t50.5 -14v-10h-270v10q32 0 50.5 14t27.5 46t11.5 83t2.5 125v152q0 74 -2.5 125t-11.5 83t-27.5 46t-50.5 14v10zM59 856q0 11 7 19t21 8q18 0 28.5 -13.5t23 -29t31 -29t50.5 -13.5h32v-10h-76q-19 0 -39.5 5
t-37.5 14t-28.5 21.5t-11.5 27.5z" />
    <glyph glyph-name="iacute" unicode="&#xed;" 
d="M30 708h178v-430q0 -74 2.5 -125t11.5 -83t27.5 -46t50.5 -14v-10h-270v10q32 0 50.5 14t27.5 46t11.5 83t2.5 125v152q0 74 -2.5 125t-11.5 83t-27.5 46t-50.5 14v10zM59 788v10h32q32 0 50.5 13.5t31 29t23 29t28.5 13.5q14 0 21 -8t7 -19q0 -15 -11 -27.5t-28.5 -21.5
t-38 -14t-39.5 -5h-76z" />
    <glyph glyph-name="icircumflex" unicode="&#xee;" 
d="M30 708h178v-430q0 -74 2.5 -125t11.5 -83t27.5 -46t50.5 -14v-10h-270v10q32 0 50.5 14t27.5 46t11.5 83t2.5 125v152q0 74 -2.5 125t-11.5 83t-27.5 46t-50.5 14v10zM153 884l116 -86l-6 -10l-107 46l-107 -46l-6 10z" />
    <glyph glyph-name="idieresis" unicode="&#xef;" 
d="M30 708h178v-430q0 -74 2.5 -125t11.5 -83t27.5 -46t50.5 -14v-10h-270v10q32 0 50.5 14t27.5 46t11.5 83t2.5 125v152q0 74 -2.5 125t-11.5 83t-27.5 46t-50.5 14v10zM73 818q0 12 8.5 20.5t21.5 8.5q12 0 20.5 -8.5t8.5 -20.5q0 -13 -8.5 -21.5t-20.5 -8.5
q-13 0 -21.5 8.5t-8.5 21.5zM206 847q13 0 21.5 -8.5t8.5 -20.5q0 -13 -8.5 -21.5t-21.5 -8.5q-12 0 -20.5 8.5t-8.5 21.5q0 12 8.5 20.5t20.5 8.5z" />
    <glyph glyph-name="eth" unicode="&#xf0;" horiz-adv-x="605" 
 />
    <glyph glyph-name="ntilde" unicode="&#xf1;" horiz-adv-x="787" 
d="M30 0v10q32 0 50.5 14t27.5 46t11.5 83t2.5 125v152q0 74 -2.5 125t-11.5 83t-27.5 46t-50.5 14v10h114q31 0 68 3t73.5 7t69 7t53.5 3q33 0 79 -5.5t88 -27.5t71 -66.5t29 -123.5v-227q0 -74 2.5 -125t11.5 -83t27.5 -46t50.5 -14v-10h-270v10q32 0 50.5 14t27.5 46
t11.5 83t2.5 125v114q-1 42 -1 92q0 84 -25.5 130.5t-61.5 68.5t-74 26.5t-64 4.5q-38 0 -78.5 -8t-76.5 -21v-407q0 -74 2.5 -125t11.5 -83t27.5 -46t50.5 -14v-10h-270zM257 803q3 11 19.5 27t46.5 16q18 0 32 -4.5t27.5 -9.5t27 -9.5t30.5 -4.5t26.5 3t14.5 7q6 4 8 10
l6 -3q-6 -21 -24.5 -34t-45.5 -13q-16 0 -29 4.5t-26.5 10t-28.5 10t-36 4.5q-31 0 -43 -17z" />
    <glyph glyph-name="ograve" unicode="&#xf2;" horiz-adv-x="808" 
d="M403 728q81 0 145 -29.5t108.5 -80.5t68 -119t23.5 -145t-23.5 -145t-68 -119t-108.5 -80.5t-145 -29.5t-144.5 29.5t-107.5 80.5t-67.5 119t-23.5 145t23.5 145t67.5 119t107.5 80.5t144.5 29.5zM145 354q0 -82 18.5 -149t52.5 -114.5t81.5 -73t105.5 -25.5t106 25.5
t82 73t53 114.5t19 149q0 83 -19 149.5t-53 114t-82 73t-106 25.5t-105.5 -25.5t-81.5 -73t-52.5 -114t-18.5 -149.5zM306 856q0 11 7 19t21 8q18 0 28.5 -13.5t23 -29t31 -29t50.5 -13.5h32v-10h-76q-19 0 -39.5 5t-37.5 14t-28.5 21.5t-11.5 27.5z" />
    <glyph glyph-name="oacute" unicode="&#xf3;" horiz-adv-x="808" 
d="M403 728q81 0 145 -29.5t108.5 -80.5t68 -119t23.5 -145t-23.5 -145t-68 -119t-108.5 -80.5t-145 -29.5t-144.5 29.5t-107.5 80.5t-67.5 119t-23.5 145t23.5 145t67.5 119t107.5 80.5t144.5 29.5zM145 354q0 -82 18.5 -149t52.5 -114.5t81.5 -73t105.5 -25.5t106 25.5
t82 73t53 114.5t19 149q0 83 -19 149.5t-53 114t-82 73t-106 25.5t-105.5 -25.5t-81.5 -73t-52.5 -114t-18.5 -149.5zM306 788v10h32q32 0 50.5 13.5t31 29t23 29t28.5 13.5q14 0 21 -8t7 -19q0 -15 -11 -27.5t-28.5 -21.5t-38 -14t-39.5 -5h-76z" />
    <glyph glyph-name="ocircumflex" unicode="&#xf4;" horiz-adv-x="808" 
d="M403 728q81 0 145 -29.5t108.5 -80.5t68 -119t23.5 -145t-23.5 -145t-68 -119t-108.5 -80.5t-145 -29.5t-144.5 29.5t-107.5 80.5t-67.5 119t-23.5 145t23.5 145t67.5 119t107.5 80.5t144.5 29.5zM145 354q0 -82 18.5 -149t52.5 -114.5t81.5 -73t105.5 -25.5t106 25.5
t82 73t53 114.5t19 149q0 83 -19 149.5t-53 114t-82 73t-106 25.5t-105.5 -25.5t-81.5 -73t-52.5 -114t-18.5 -149.5zM400 884l116 -86l-6 -10l-107 46l-107 -46l-6 10z" />
    <glyph glyph-name="otilde" unicode="&#xf5;" horiz-adv-x="808" 
d="M403 728q81 0 145 -29.5t108.5 -80.5t68 -119t23.5 -145t-23.5 -145t-68 -119t-108.5 -80.5t-145 -29.5t-144.5 29.5t-107.5 80.5t-67.5 119t-23.5 145t23.5 145t67.5 119t107.5 80.5t144.5 29.5zM145 354q0 -82 18.5 -149t52.5 -114.5t81.5 -73t105.5 -25.5t106 25.5
t82 73t53 114.5t19 149q0 83 -19 149.5t-53 114t-82 73t-106 25.5t-105.5 -25.5t-81.5 -73t-52.5 -114t-18.5 -149.5zM284 803q3 11 19.5 27t46.5 16q18 0 32 -4.5t27.5 -9.5t27 -9.5t30.5 -4.5t26.5 3t14.5 7q6 4 8 10l6 -3q-6 -21 -24.5 -34t-45.5 -13q-16 0 -29 4.5
t-26.5 10t-28.5 10t-36 4.5q-31 0 -43 -17z" />
    <glyph glyph-name="odieresis" unicode="&#xf6;" horiz-adv-x="808" 
d="M403 728q81 0 145 -29.5t108.5 -80.5t68 -119t23.5 -145t-23.5 -145t-68 -119t-108.5 -80.5t-145 -29.5t-144.5 29.5t-107.5 80.5t-67.5 119t-23.5 145t23.5 145t67.5 119t107.5 80.5t144.5 29.5zM145 354q0 -82 18.5 -149t52.5 -114.5t81.5 -73t105.5 -25.5t106 25.5
t82 73t53 114.5t19 149q0 83 -19 149.5t-53 114t-82 73t-106 25.5t-105.5 -25.5t-81.5 -73t-52.5 -114t-18.5 -149.5zM320 818q0 12 8.5 20.5t21.5 8.5q12 0 20.5 -8.5t8.5 -20.5q0 -13 -8.5 -21.5t-20.5 -8.5q-13 0 -21.5 8.5t-8.5 21.5zM453 847q13 0 21.5 -8.5t8.5 -20.5
q0 -13 -8.5 -21.5t-21.5 -8.5q-12 0 -20.5 8.5t-8.5 21.5q0 12 8.5 20.5t20.5 8.5z" />
    <glyph glyph-name="divide" unicode="&#xf7;" horiz-adv-x="620" 
d="M60 501q0 19 14 28.5t34 9.5q14 0 38 -5.5t52.5 -11.5t57.5 -11.5t54 -5.5t54 5.5t57.5 11.5t52.5 11.5t38 5.5q20 0 34 -9.5t14 -28.5t-14 -28.5t-34 -9.5q-14 0 -38 5.5t-52.5 11.5t-57.5 11.5t-54 5.5t-54 -5.5t-57.5 -11.5t-52.5 -11.5t-38 -5.5q-20 0 -34 9.5
t-14 28.5zM310 750q28 0 47.5 -19.5t19.5 -47.5t-19.5 -47.5t-47.5 -19.5t-47.5 19.5t-19.5 47.5t19.5 47.5t47.5 19.5zM243 326q0 28 19.5 47.5t47.5 19.5t47.5 -19.5t19.5 -47.5t-19.5 -47.5t-47.5 -19.5t-47.5 19.5t-19.5 47.5z" />
    <glyph glyph-name="oslash" unicode="&#xf8;" horiz-adv-x="808" 
d="M403 728q57 0 105.5 -15t88.5 -42l39 57h10l-43 -62q70 -51 107.5 -132.5t37.5 -179.5q0 -77 -23.5 -145t-68 -119t-108.5 -80.5t-145 -29.5q-66 0 -121 20t-97 56l-52 -76h-10l56 81q-58 52 -88.5 128t-30.5 165q0 77 23.5 145t67.5 119t107.5 80.5t144.5 29.5zM212 96
q34 -51 82.5 -77.5t108.5 -26.5q58 0 106 25.5t82 73t53 114.5t19 149q0 90 -22 160t-61 118zM574 639q-33 37 -76.5 57t-94.5 20q-58 0 -105.5 -25.5t-81.5 -73t-52.5 -114t-18.5 -149.5q0 -78 16 -141t46 -110z" />
    <glyph glyph-name="ugrave" unicode="&#xf9;" horiz-adv-x="777" 
d="M198 708v-29.5v-58.5t0.5 -78t0.5 -87v-231q0 -84 25.5 -130.5t61.5 -68.5t74.5 -26.5t63.5 -4.5q38 0 78.5 8t76.5 21v407q0 74 -2.5 125t-11.5 83t-27.5 46t-50.5 14v10h178v-430q0 -74 2.5 -125t11.5 -83t27.5 -46t50.5 -14v-10h-114q-31 0 -68 -3t-73.5 -7t-69 -7
t-53.5 -3q-33 0 -79 5.5t-88 27.5t-71 66.5t-29 123.5v227q0 74 -2.5 125t-11.5 83t-27.5 46t-50.5 14v10h178zM271 856q0 11 7 19t21 8q18 0 28.5 -13.5t23 -29t31 -29t50.5 -13.5h32v-10h-76q-19 0 -39.5 5t-37.5 14t-28.5 21.5t-11.5 27.5z" />
    <glyph glyph-name="uacute" unicode="&#xfa;" horiz-adv-x="777" 
d="M198 708v-29.5v-58.5t0.5 -78t0.5 -87v-231q0 -84 25.5 -130.5t61.5 -68.5t74.5 -26.5t63.5 -4.5q38 0 78.5 8t76.5 21v407q0 74 -2.5 125t-11.5 83t-27.5 46t-50.5 14v10h178v-430q0 -74 2.5 -125t11.5 -83t27.5 -46t50.5 -14v-10h-114q-31 0 -68 -3t-73.5 -7t-69 -7
t-53.5 -3q-33 0 -79 5.5t-88 27.5t-71 66.5t-29 123.5v227q0 74 -2.5 125t-11.5 83t-27.5 46t-50.5 14v10h178zM271 788v10h32q32 0 50.5 13.5t31 29t23 29t28.5 13.5q14 0 21 -8t7 -19q0 -15 -11 -27.5t-28.5 -21.5t-38 -14t-39.5 -5h-76z" />
    <glyph glyph-name="ucircumflex" unicode="&#xfb;" horiz-adv-x="777" 
d="M198 708v-29.5v-58.5t0.5 -78t0.5 -87v-231q0 -84 25.5 -130.5t61.5 -68.5t74.5 -26.5t63.5 -4.5q38 0 78.5 8t76.5 21v407q0 74 -2.5 125t-11.5 83t-27.5 46t-50.5 14v10h178v-430q0 -74 2.5 -125t11.5 -83t27.5 -46t50.5 -14v-10h-114q-31 0 -68 -3t-73.5 -7t-69 -7
t-53.5 -3q-33 0 -79 5.5t-88 27.5t-71 66.5t-29 123.5v227q0 74 -2.5 125t-11.5 83t-27.5 46t-50.5 14v10h178zM365 884l116 -86l-6 -10l-107 46l-107 -46l-6 10z" />
    <glyph glyph-name="udieresis" unicode="&#xfc;" horiz-adv-x="777" 
d="M198 708v-29.5v-58.5t0.5 -78t0.5 -87v-231q0 -84 25.5 -130.5t61.5 -68.5t74.5 -26.5t63.5 -4.5q38 0 78.5 8t76.5 21v407q0 74 -2.5 125t-11.5 83t-27.5 46t-50.5 14v10h178v-430q0 -74 2.5 -125t11.5 -83t27.5 -46t50.5 -14v-10h-114q-31 0 -68 -3t-73.5 -7t-69 -7
t-53.5 -3q-33 0 -79 5.5t-88 27.5t-71 66.5t-29 123.5v227q0 74 -2.5 125t-11.5 83t-27.5 46t-50.5 14v10h178zM285 818q0 12 8.5 20.5t21.5 8.5q12 0 20.5 -8.5t8.5 -20.5q0 -13 -8.5 -21.5t-20.5 -8.5q-13 0 -21.5 8.5t-8.5 21.5zM418 847q13 0 21.5 -8.5t8.5 -20.5
q0 -13 -8.5 -21.5t-21.5 -8.5q-12 0 -20.5 8.5t-8.5 21.5q0 12 8.5 20.5t20.5 8.5z" />
    <glyph glyph-name="yacute" unicode="&#xfd;" horiz-adv-x="732" 
d="M123 708q34 0 54.5 -25.5t29.5 -54.5q20 -64 36.5 -120t33.5 -112t35.5 -116t42.5 -133q14 -42 32.5 -63t40.5 -24q38 121 70.5 223t60.5 198q9 30 15 67.5t1.5 71t-23.5 56t-61 22.5h-22v10h263v-10h-17q-26 0 -48 -22t-39.5 -52.5t-30 -64t-19.5 -56.5
q-37 -118 -75.5 -244t-87.5 -279q-7 -19 -20.5 -56t-31.5 -81t-39.5 -89.5t-45 -83t-47.5 -61.5t-46 -24h-135v10q46 0 99.5 37t104 94t90.5 125t59 129q-10 0 -26 6t-35.5 23.5t-39.5 50.5t-37 87q-19 62 -35.5 114.5t-31.5 101t-29.5 95t-29.5 97.5q-7 23 -16 48t-22 46
t-31.5 35t-45.5 14h-24v10h123zM253 788v10h32q32 0 50.5 13.5t31 29t23 29t28.5 13.5q14 0 21 -8t7 -19q0 -15 -11 -27.5t-28.5 -21.5t-38 -14t-39.5 -5h-76z" />
    <glyph glyph-name="ydieresis" unicode="&#xff;" horiz-adv-x="732" 
d="M123 708q34 0 54.5 -25.5t29.5 -54.5q20 -64 36.5 -120t33.5 -112t35.5 -116t42.5 -133q14 -42 32.5 -63t40.5 -24q38 121 70.5 223t60.5 198q9 30 15 67.5t1.5 71t-23.5 56t-61 22.5h-22v10h263v-10h-17q-26 0 -48 -22t-39.5 -52.5t-30 -64t-19.5 -56.5
q-37 -118 -75.5 -244t-87.5 -279q-7 -19 -20.5 -56t-31.5 -81t-39.5 -89.5t-45 -83t-47.5 -61.5t-46 -24h-135v10q46 0 99.5 37t104 94t90.5 125t59 129q-10 0 -26 6t-35.5 23.5t-39.5 50.5t-37 87q-19 62 -35.5 114.5t-31.5 101t-29.5 95t-29.5 97.5q-7 23 -16 48t-22 46
t-31.5 35t-45.5 14h-24v10h123zM267 818q0 12 8.5 20.5t21.5 8.5q12 0 20.5 -8.5t8.5 -20.5q0 -13 -8.5 -21.5t-20.5 -8.5q-13 0 -21.5 8.5t-8.5 21.5zM400 847q13 0 21.5 -8.5t8.5 -20.5q0 -13 -8.5 -21.5t-21.5 -8.5q-12 0 -20.5 8.5t-8.5 21.5q0 12 8.5 20.5t20.5 8.5z
" />
    <glyph glyph-name="Amacron" unicode="&#x100;" horiz-adv-x="876" 
d="M30 175q0 62 29.5 111.5t74 90t96.5 74t96.5 62t74 54.5t29.5 52q0 14 -7 20.5t-17 6.5q-18 0 -33.5 -16.5t-31 -36t-32.5 -36t-38 -16.5t-26 16.5t3 36.5q23 60 42.5 111t38 100t37.5 101t43 114h10l320 -845q33 -83 62 -124t75 -41v-10h-328v10q53 0 80 14t36 39
t2.5 58t-20.5 71l-124 327q6 -48 6 -120q0 -91 -21.5 -168t-62 -132.5t-99 -87t-133.5 -31.5q-43 0 -77 16t-57.5 42.5t-35.5 62t-12 74.5zM115 194q0 -71 41.5 -118.5t115.5 -47.5q63 0 109 34.5t76.5 88.5t45.5 119.5t15 126.5q0 56 -3.5 99.5t-17.5 88.5l-121 319
l-115 -306q-10 -26 -5.5 -36.5t16.5 -10.5q17 0 33 16.5t32.5 36t33.5 36t37 16.5q14 0 23.5 -9.5t9.5 -29.5q0 -33 -24 -60.5t-60.5 -54t-78.5 -54.5t-78.5 -64t-60.5 -82t-24 -108zM306 1102h215v-22h-215v22z" />
    <glyph glyph-name="amacron" unicode="&#x101;" horiz-adv-x="746" 
d="M60 202q0 66 21.5 111.5t57.5 76.5t81.5 50.5t92.5 33t92.5 24t81.5 24t57.5 32.5t21.5 50q0 30 -16 52t-41 35.5t-56.5 20t-61.5 6.5q-36 0 -69.5 -6.5t-59.5 -20.5t-42 -36t-16 -53q0 -14 5 -24.5t11.5 -16.5t13.5 -7t10 2q4 -11 0 -21.5t-12 -18.5t-20 -13t-24 -5
q-32 0 -52 24t-20 56q0 37 21 65t57.5 47t87 28.5t109.5 9.5q42 0 88 -8.5t84.5 -25t63 -39.5t24.5 -53t-21.5 -47.5t-57 -29t-80.5 -20t-92.5 -20.5t-92.5 -31t-80.5 -52t-57 -83t-21.5 -123q0 -39 12 -72.5t33.5 -58t51.5 -38.5t67 -14q41 0 84 22t79 70t59 124.5
t23 185.5q0 17 -3 31.5t-14 17.5q0 5 7.5 9.5t19.5 4.5q27 0 43.5 -13t25 -35t11 -50t2.5 -58v-55.5t0.5 -43.5t0.5 -46v-65q0 -31 8 -51t20 -31.5t25 -15.5t23 -4v-10h-71q-40 0 -67.5 33.5t-27.5 90.5v171q-13 -64 -33.5 -121.5t-53 -100.5t-78.5 -68t-112 -25
q-48 0 -89 16.5t-71 46t-46.5 70.5t-16.5 89zM283 810h215v-22h-215v22z" />
    <glyph glyph-name="Abreve" unicode="&#x102;" horiz-adv-x="876" 
d="M30 175q0 62 29.5 111.5t74 90t96.5 74t96.5 62t74 54.5t29.5 52q0 14 -7 20.5t-17 6.5q-18 0 -33.5 -16.5t-31 -36t-32.5 -36t-38 -16.5t-26 16.5t3 36.5q23 60 42.5 111t38 100t37.5 101t43 114h10l320 -845q33 -83 62 -124t75 -41v-10h-328v10q53 0 80 14t36 39
t2.5 58t-20.5 71l-124 327q6 -48 6 -120q0 -91 -21.5 -168t-62 -132.5t-99 -87t-133.5 -31.5q-43 0 -77 16t-57.5 42.5t-35.5 62t-12 74.5zM115 194q0 -71 41.5 -118.5t115.5 -47.5q63 0 109 34.5t76.5 88.5t45.5 119.5t15 126.5q0 56 -3.5 99.5t-17.5 88.5l-121 319
l-115 -306q-10 -26 -5.5 -36.5t16.5 -10.5q17 0 33 16.5t32.5 36t33.5 36t37 16.5q14 0 23.5 -9.5t9.5 -29.5q0 -33 -24 -60.5t-60.5 -54t-78.5 -54.5t-78.5 -64t-60.5 -82t-24 -108zM312 1166q16 -26 41.5 -41t59.5 -15t59.5 15t41.5 41h9q-7 -36 -37.5 -61t-72.5 -25
q-41 0 -72 25t-38 61h9z" />
    <glyph glyph-name="abreve" unicode="&#x103;" horiz-adv-x="746" 
d="M60 202q0 66 21.5 111.5t57.5 76.5t81.5 50.5t92.5 33t92.5 24t81.5 24t57.5 32.5t21.5 50q0 30 -16 52t-41 35.5t-56.5 20t-61.5 6.5q-36 0 -69.5 -6.5t-59.5 -20.5t-42 -36t-16 -53q0 -14 5 -24.5t11.5 -16.5t13.5 -7t10 2q4 -11 0 -21.5t-12 -18.5t-20 -13t-24 -5
q-32 0 -52 24t-20 56q0 37 21 65t57.5 47t87 28.5t109.5 9.5q42 0 88 -8.5t84.5 -25t63 -39.5t24.5 -53t-21.5 -47.5t-57 -29t-80.5 -20t-92.5 -20.5t-92.5 -31t-80.5 -52t-57 -83t-21.5 -123q0 -39 12 -72.5t33.5 -58t51.5 -38.5t67 -14q41 0 84 22t79 70t59 124.5
t23 185.5q0 17 -3 31.5t-14 17.5q0 5 7.5 9.5t19.5 4.5q27 0 43.5 -13t25 -35t11 -50t2.5 -58v-55.5t0.5 -43.5t0.5 -46v-65q0 -31 8 -51t20 -31.5t25 -15.5t23 -4v-10h-71q-40 0 -67.5 33.5t-27.5 90.5v171q-13 -64 -33.5 -121.5t-53 -100.5t-78.5 -68t-112 -25
q-48 0 -89 16.5t-71 46t-46.5 70.5t-16.5 89zM290 874q16 -26 41.5 -41t59.5 -15t59.5 15t41.5 41h9q-7 -36 -37.5 -61t-72.5 -25q-41 0 -72 25t-38 61h9z" />
    <glyph glyph-name="Aogonek" unicode="&#x104;" horiz-adv-x="876" 
d="M30 175q0 62 29.5 111.5t74 90t96.5 74t96.5 62t74 54.5t29.5 52q0 14 -7 20.5t-17 6.5q-18 0 -33.5 -16.5t-31 -36t-32.5 -36t-38 -16.5t-26 16.5t3 36.5q23 60 42.5 111t38 100t37.5 101t43 114h10l320 -845q33 -83 62 -124t75 -41v-10h-328v10q53 0 80 14t36 39
t2.5 58t-20.5 71l-124 327q6 -48 6 -120q0 -91 -21.5 -168t-62 -132.5t-99 -87t-133.5 -31.5q-43 0 -77 16t-57.5 42.5t-35.5 62t-12 74.5zM115 194q0 -71 41.5 -118.5t115.5 -47.5q63 0 109 34.5t76.5 88.5t45.5 119.5t15 126.5q0 56 -3.5 99.5t-17.5 88.5l-121 319
l-115 -306q-10 -26 -5.5 -36.5t16.5 -10.5q17 0 33 16.5t32.5 36t33.5 36t37 16.5q14 0 23.5 -9.5t9.5 -29.5q0 -33 -24 -60.5t-60.5 -54t-78.5 -54.5t-78.5 -64t-60.5 -82t-24 -108zM729 5v-5q-42 0 -66 -25.5t-24 -57.5q0 -26 11.5 -45.5t37.5 -19.5q12 0 20.5 9.5
t2.5 20.5l2 2q4 -2 8 -5q8 -6 8 -18q0 -19 -13 -32.5t-37 -13.5q-32 0 -50.5 23t-18.5 51q0 23 10.5 44t27 37t38 25.5t43.5 9.5z" />
    <glyph glyph-name="aogonek" unicode="&#x105;" horiz-adv-x="746" 
d="M60 202q0 66 21.5 111.5t57.5 76.5t81.5 50.5t92.5 33t92.5 24t81.5 24t57.5 32.5t21.5 50q0 30 -16 52t-41 35.5t-56.5 20t-61.5 6.5q-36 0 -69.5 -6.5t-59.5 -20.5t-42 -36t-16 -53q0 -14 5 -24.5t11.5 -16.5t13.5 -7t10 2q4 -11 0 -21.5t-12 -18.5t-20 -13t-24 -5
q-32 0 -52 24t-20 56q0 37 21 65t57.5 47t87 28.5t109.5 9.5q42 0 88 -8.5t84.5 -25t63 -39.5t24.5 -53t-21.5 -47.5t-57 -29t-80.5 -20t-92.5 -20.5t-92.5 -31t-80.5 -52t-57 -83t-21.5 -123q0 -39 12 -72.5t33.5 -58t51.5 -38.5t67 -14q41 0 84 22t79 70t59 124.5
t23 185.5q0 17 -3 31.5t-14 17.5q0 5 7.5 9.5t19.5 4.5q27 0 43.5 -13t25 -35t11 -50t2.5 -58v-55.5t0.5 -43.5t0.5 -46v-65q0 -31 8 -51t20 -31.5t25 -15.5t23 -4v-10h-71q-40 0 -67.5 33.5t-27.5 90.5v171q-13 -64 -33.5 -121.5t-53 -100.5t-78.5 -68t-112 -25
q-48 0 -89 16.5t-71 46t-46.5 70.5t-16.5 89zM661 5v-5q-42 0 -66 -25.5t-24 -57.5q0 -26 11.5 -45.5t37.5 -19.5q12 0 20.5 9.5t2.5 20.5l2 2q4 -2 8 -5q8 -6 8 -18q0 -19 -13 -32.5t-37 -13.5q-32 0 -50.5 23t-18.5 51q0 23 10.5 44t27 37t38 25.5t43.5 9.5z" />
    <glyph glyph-name="Cacute" unicode="&#x106;" horiz-adv-x="832" 
d="M505 1020q86 0 144.5 -20t94.5 -51t52 -68t16 -71q0 -52 -21 -93.5t-52.5 -76.5t-68 -64t-68 -56.5t-52.5 -54t-21 -56.5q0 -23 7.5 -37.5t22.5 -27.5q-20 -4 -36 3.5t-27.5 21.5t-17.5 32.5t-6 35.5q0 44 21 79t52 65.5t67.5 57.5t67.5 54.5t52 58t21 66.5q0 90 -61 140
t-187 50q-78 0 -143 -38.5t-112 -106t-73.5 -160.5t-26.5 -203q0 -109 28.5 -202.5t77 -161t113 -106t136.5 -38.5q42 0 76 7t62 19t50 27t38 31q38 37 59 84h11v-134q-60 -19 -130 -32.5t-166 -13.5q-93 0 -174.5 39t-141.5 108.5t-94.5 165t-34.5 207.5q0 113 34.5 208
t94.5 164.5t141.5 108.5t174.5 39zM396 1080v10h32q32 0 50.5 13.5t31 29t23 29t28.5 13.5q14 0 21 -8t7 -19q0 -15 -11 -27.5t-28.5 -21.5t-38 -14t-39.5 -5h-76z" />
    <glyph glyph-name="cacute" unicode="&#x107;" horiz-adv-x="733" 
d="M403 728q64 0 115 -10.5t87 -24.5q42 -15 75 -35v-118h-4q-21 41 -51.5 74t-67 55.5t-77 34.5t-79.5 12q-76 0 -125.5 -36.5t-78.5 -90.5t-40.5 -116.5t-10.5 -115.5q1 -69 21 -131.5t57.5 -109.5t91.5 -74.5t123 -27.5q30 0 67.5 8.5t74 29t68.5 53.5t50 81l14 -6
q-39 -90 -118.5 -145t-191.5 -55q-81 0 -144.5 29.5t-107.5 80.5t-67.5 119t-23.5 145t23.5 145t67.5 119t107.5 80.5t144.5 29.5zM302 788v10h32q32 0 50.5 13.5t31 29t23 29t28.5 13.5q14 0 21 -8t7 -19q0 -15 -11 -27.5t-28.5 -21.5t-38 -14t-39.5 -5h-76z" />
    <glyph glyph-name="Ccircumflex" unicode="&#x108;" horiz-adv-x="832" 
d="M505 1020q86 0 144.5 -20t94.5 -51t52 -68t16 -71q0 -52 -21 -93.5t-52.5 -76.5t-68 -64t-68 -56.5t-52.5 -54t-21 -56.5q0 -23 7.5 -37.5t22.5 -27.5q-20 -4 -36 3.5t-27.5 21.5t-17.5 32.5t-6 35.5q0 44 21 79t52 65.5t67.5 57.5t67.5 54.5t52 58t21 66.5q0 90 -61 140
t-187 50q-78 0 -143 -38.5t-112 -106t-73.5 -160.5t-26.5 -203q0 -109 28.5 -202.5t77 -161t113 -106t136.5 -38.5q42 0 76 7t62 19t50 27t38 31q38 37 59 84h11v-134q-60 -19 -130 -32.5t-166 -13.5q-93 0 -174.5 39t-141.5 108.5t-94.5 165t-34.5 207.5q0 113 34.5 208
t94.5 164.5t141.5 108.5t174.5 39zM490 1176l116 -86l-6 -10l-107 46l-107 -46l-6 10z" />
    <glyph glyph-name="ccircumflex" unicode="&#x109;" horiz-adv-x="733" 
d="M403 728q64 0 115 -10.5t87 -24.5q42 -15 75 -35v-118h-4q-21 41 -51.5 74t-67 55.5t-77 34.5t-79.5 12q-76 0 -125.5 -36.5t-78.5 -90.5t-40.5 -116.5t-10.5 -115.5q1 -69 21 -131.5t57.5 -109.5t91.5 -74.5t123 -27.5q30 0 67.5 8.5t74 29t68.5 53.5t50 81l14 -6
q-39 -90 -118.5 -145t-191.5 -55q-81 0 -144.5 29.5t-107.5 80.5t-67.5 119t-23.5 145t23.5 145t67.5 119t107.5 80.5t144.5 29.5zM396 884l116 -86l-6 -10l-107 46l-107 -46l-6 10z" />
    <glyph glyph-name="Cdotaccent" unicode="&#x10a;" horiz-adv-x="832" 
d="M505 1020q86 0 144.5 -20t94.5 -51t52 -68t16 -71q0 -52 -21 -93.5t-52.5 -76.5t-68 -64t-68 -56.5t-52.5 -54t-21 -56.5q0 -23 7.5 -37.5t22.5 -27.5q-20 -4 -36 3.5t-27.5 21.5t-17.5 32.5t-6 35.5q0 44 21 79t52 65.5t67.5 57.5t67.5 54.5t52 58t21 66.5q0 90 -61 140
t-187 50q-78 0 -143 -38.5t-112 -106t-73.5 -160.5t-26.5 -203q0 -109 28.5 -202.5t77 -161t113 -106t136.5 -38.5q42 0 76 7t62 19t50 27t38 31q38 37 59 84h11v-134q-60 -19 -130 -32.5t-166 -13.5q-93 0 -174.5 39t-141.5 108.5t-94.5 165t-34.5 207.5q0 113 34.5 208
t94.5 164.5t141.5 108.5t174.5 39zM450 1123q0 18 12.5 31t30.5 13t31 -13t13 -31q0 -17 -13 -30t-31 -13t-30.5 13t-12.5 30z" />
    <glyph glyph-name="cdotaccent" unicode="&#x10b;" horiz-adv-x="733" 
d="M403 728q64 0 115 -10.5t87 -24.5q42 -15 75 -35v-118h-4q-21 41 -51.5 74t-67 55.5t-77 34.5t-79.5 12q-76 0 -125.5 -36.5t-78.5 -90.5t-40.5 -116.5t-10.5 -115.5q1 -69 21 -131.5t57.5 -109.5t91.5 -74.5t123 -27.5q30 0 67.5 8.5t74 29t68.5 53.5t50 81l14 -6
q-39 -90 -118.5 -145t-191.5 -55q-81 0 -144.5 29.5t-107.5 80.5t-67.5 119t-23.5 145t23.5 145t67.5 119t107.5 80.5t144.5 29.5zM356 831q0 18 12.5 31t30.5 13t31 -13t13 -31q0 -17 -13 -30t-31 -13t-30.5 13t-12.5 30z" />
    <glyph glyph-name="Ccaron" unicode="&#x10c;" horiz-adv-x="832" 
d="M505 1020q86 0 144.5 -20t94.5 -51t52 -68t16 -71q0 -52 -21 -93.5t-52.5 -76.5t-68 -64t-68 -56.5t-52.5 -54t-21 -56.5q0 -23 7.5 -37.5t22.5 -27.5q-20 -4 -36 3.5t-27.5 21.5t-17.5 32.5t-6 35.5q0 44 21 79t52 65.5t67.5 57.5t67.5 54.5t52 58t21 66.5q0 90 -61 140
t-187 50q-78 0 -143 -38.5t-112 -106t-73.5 -160.5t-26.5 -203q0 -109 28.5 -202.5t77 -161t113 -106t136.5 -38.5q42 0 76 7t62 19t50 27t38 31q38 37 59 84h11v-134q-60 -19 -130 -32.5t-166 -13.5q-93 0 -174.5 39t-141.5 108.5t-94.5 165t-34.5 207.5q0 113 34.5 208
t94.5 164.5t141.5 108.5t174.5 39zM492 1080l-110 86l6 10l107 -46l107 46l6 -10z" />
    <glyph glyph-name="ccaron" unicode="&#x10d;" horiz-adv-x="733" 
d="M403 728q64 0 115 -10.5t87 -24.5q42 -15 75 -35v-118h-4q-21 41 -51.5 74t-67 55.5t-77 34.5t-79.5 12q-76 0 -125.5 -36.5t-78.5 -90.5t-40.5 -116.5t-10.5 -115.5q1 -69 21 -131.5t57.5 -109.5t91.5 -74.5t123 -27.5q30 0 67.5 8.5t74 29t68.5 53.5t50 81l14 -6
q-39 -90 -118.5 -145t-191.5 -55q-81 0 -144.5 29.5t-107.5 80.5t-67.5 119t-23.5 145t23.5 145t67.5 119t107.5 80.5t144.5 29.5zM398 788l-110 86l6 10l107 -46l107 46l6 -10z" />
    <glyph glyph-name="Dcaron" unicode="&#x10e;" horiz-adv-x="903" 
d="M30 10q32 0 50.5 14t27.5 46t11.5 83t2.5 125v444q0 74 -2.5 125t-11.5 83t-27.5 46t-50.5 14v10h80q79 0 146 10t133 10q116 0 201 -42.5t141.5 -114.5t84 -166t27.5 -197t-27.5 -197t-84 -166t-141.5 -114.5t-201 -42.5q-66 0 -133 10t-146 10h-80v10zM207 22
q44 -14 88 -21t93 -7q93 0 162 40.5t115 110t69 161.5t23 194t-23 194t-69 161.5t-115 110t-162 40.5q-49 0 -93 -7t-88 -21v-956zM357 1080l-110 86l6 10l107 -46l107 46l6 -10z" />
    <glyph glyph-name="dcaron" unicode="&#x10f;" horiz-adv-x="834" 
d="M403 728q79 0 132 -15t101 -45v54q0 74 -2.5 125t-11.5 83t-27.5 46t-50.5 14v10h178v-722q0 -74 2.5 -125t11.5 -83t27.5 -46t50.5 -14v-10h-178v79q-36 -43 -98 -71t-135 -28q-81 0 -144.5 29.5t-107.5 80.5t-67.5 119t-23.5 145t23.5 145t67.5 119t107.5 80.5
t144.5 29.5zM145 354q0 -82 18.5 -149t52.5 -114.5t81.5 -73t105.5 -25.5q41 0 82 14.5t75 39.5t55 59t21 74v410q-11 17 -30 39t-47.5 41.5t-67 33t-88.5 13.5q-58 0 -105.5 -25.5t-81.5 -73t-52.5 -114t-18.5 -149.5zM805 1001q18 0 32 -14.5t14 -43.5q0 -33 -10 -53.5
t-21 -31.5q-14 -13 -32 -19l-1 6q11 3 19.5 11t13.5 19.5t6.5 23.5t-1.5 23q-2 -2 -5 -4q-6 -4 -15 -4q-18 0 -31 12.5t-13 31.5q0 18 13 30.5t31 12.5z" />
    <glyph glyph-name="Dcroat" unicode="&#x110;" horiz-adv-x="903" 
d="M30 10q32 0 50.5 14t27.5 46t11.5 83t2.5 125v444q0 74 -2.5 125t-11.5 83t-27.5 46t-50.5 14v10h80q79 0 146 10t133 10q116 0 201 -42.5t141.5 -114.5t84 -166t27.5 -197t-27.5 -197t-84 -166t-141.5 -114.5t-201 -42.5q-66 0 -133 10t-146 10h-80v10zM207 22
q44 -14 88 -21t93 -7q93 0 162 40.5t115 110t69 161.5t23 194t-23 194t-69 161.5t-115 110t-162 40.5q-49 0 -93 -7t-88 -21v-956zM-20 550h426v-20h-426v20z" />
    <glyph glyph-name="dcroat" unicode="&#x111;" horiz-adv-x="834" 
d="M403 728q79 0 132 -15t101 -45v54v66h-97v22h96q-1 49 -5.5 83.5t-14.5 56t-27 31t-44 9.5v10h178v-190h32v-22h-32v-510q0 -74 2.5 -125t11.5 -83t27.5 -46t50.5 -14v-10h-178v79q-36 -43 -98 -71t-135 -28q-81 0 -144.5 29.5t-107.5 80.5t-67.5 119t-23.5 145t23.5 145
t67.5 119t107.5 80.5t144.5 29.5zM145 354q0 -82 18.5 -149t52.5 -114.5t81.5 -73t105.5 -25.5q41 0 82 14.5t75 39.5t55 59t21 74v410q-11 17 -30 39t-47.5 41.5t-67 33t-88.5 13.5q-58 0 -105.5 -25.5t-81.5 -73t-52.5 -114t-18.5 -149.5z" />
    <glyph glyph-name="Emacron" unicode="&#x112;" horiz-adv-x="776" 
d="M30 0v10q32 0 50.5 14t27.5 46t11.5 83t2.5 125v444q0 74 -2.5 125t-11.5 83t-27.5 46t-50.5 14v10h716v-135h-10v4q0 51 -94 86t-268 35h-166v-430q23 22 52 34t64 12q37 0 67 -9.5t58 -21.5t56 -21.5t61 -9.5q29 0 51.5 15.5t22.5 41.5h10q0 -45 -34 -77.5t-94 -32.5
q-46 0 -79.5 13.5t-61.5 29.5t-52 30t-51 15q-22 1 -40 -9t-30 -26v-534h128q24 0 62.5 1.5t83 6.5t90 15.5t82 27.5t59.5 42.5t23 61.5h10v-165h-716zM289 1102h215v-22h-215v22z" />
    <glyph glyph-name="emacron" unicode="&#x113;" horiz-adv-x="773" 
d="M60 354q0 77 23.5 145t67.5 119t107.5 80.5t144.5 29.5t138.5 -21.5t95 -55t55 -73.5t17.5 -78q0 -85 -47 -133t-134 -48q-60 0 -102 14t-75.5 30.5t-63.5 30.5t-67 14q-18 0 -32.5 -9.5t-16.5 -15.5l-4 1q0 31 26.5 55.5t78.5 24.5q39 0 74 -21t67 -45.5t62 -45.5
t60 -21q37 0 61.5 28.5t33.5 71.5t1 92.5t-35 92.5t-75 71.5t-120 28.5q-76 0 -125.5 -36.5t-78.5 -90.5t-40.5 -116.5t-10.5 -115.5q1 -69 21 -131.5t57.5 -109.5t91.5 -74.5t123 -27.5q30 0 67.5 8.5t74 29t68.5 53.5t50 81l14 -6q-39 -90 -118.5 -145t-191.5 -55
q-81 0 -144.5 29.5t-107.5 80.5t-67.5 119t-23.5 145zM304 810h215v-22h-215v22z" />
    <glyph glyph-name="Ebreve" unicode="&#x114;" horiz-adv-x="776" 
d="M30 0v10q32 0 50.5 14t27.5 46t11.5 83t2.5 125v444q0 74 -2.5 125t-11.5 83t-27.5 46t-50.5 14v10h716v-135h-10v4q0 51 -94 86t-268 35h-166v-430q23 22 52 34t64 12q37 0 67 -9.5t58 -21.5t56 -21.5t61 -9.5q29 0 51.5 15.5t22.5 41.5h10q0 -45 -34 -77.5t-94 -32.5
q-46 0 -79.5 13.5t-61.5 29.5t-52 30t-51 15q-22 1 -40 -9t-30 -26v-534h128q24 0 62.5 1.5t83 6.5t90 15.5t82 27.5t59.5 42.5t23 61.5h10v-165h-716zM295 1166q16 -26 41.5 -41t59.5 -15t59.5 15t41.5 41h9q-7 -36 -37.5 -61t-72.5 -25q-41 0 -72 25t-38 61h9z" />
    <glyph glyph-name="ebreve" unicode="&#x115;" horiz-adv-x="773" 
d="M60 354q0 77 23.5 145t67.5 119t107.5 80.5t144.5 29.5t138.5 -21.5t95 -55t55 -73.5t17.5 -78q0 -85 -47 -133t-134 -48q-60 0 -102 14t-75.5 30.5t-63.5 30.5t-67 14q-18 0 -32.5 -9.5t-16.5 -15.5l-4 1q0 31 26.5 55.5t78.5 24.5q39 0 74 -21t67 -45.5t62 -45.5
t60 -21q37 0 61.5 28.5t33.5 71.5t1 92.5t-35 92.5t-75 71.5t-120 28.5q-76 0 -125.5 -36.5t-78.5 -90.5t-40.5 -116.5t-10.5 -115.5q1 -69 21 -131.5t57.5 -109.5t91.5 -74.5t123 -27.5q30 0 67.5 8.5t74 29t68.5 53.5t50 81l14 -6q-39 -90 -118.5 -145t-191.5 -55
q-81 0 -144.5 29.5t-107.5 80.5t-67.5 119t-23.5 145zM310 874q16 -26 41.5 -41t59.5 -15t59.5 15t41.5 41h9q-7 -36 -37.5 -61t-72.5 -25q-41 0 -72 25t-38 61h9z" />
    <glyph glyph-name="Edotaccent" unicode="&#x116;" horiz-adv-x="776" 
d="M30 0v10q32 0 50.5 14t27.5 46t11.5 83t2.5 125v444q0 74 -2.5 125t-11.5 83t-27.5 46t-50.5 14v10h716v-135h-10v4q0 51 -94 86t-268 35h-166v-430q23 22 52 34t64 12q37 0 67 -9.5t58 -21.5t56 -21.5t61 -9.5q29 0 51.5 15.5t22.5 41.5h10q0 -45 -34 -77.5t-94 -32.5
q-46 0 -79.5 13.5t-61.5 29.5t-52 30t-51 15q-22 1 -40 -9t-30 -26v-534h128q24 0 62.5 1.5t83 6.5t90 15.5t82 27.5t59.5 42.5t23 61.5h10v-165h-716zM353 1123q0 18 12.5 31t30.5 13t31 -13t13 -31q0 -17 -13 -30t-31 -13t-30.5 13t-12.5 30z" />
    <glyph glyph-name="edotaccent" unicode="&#x117;" horiz-adv-x="773" 
d="M60 354q0 77 23.5 145t67.5 119t107.5 80.5t144.5 29.5t138.5 -21.5t95 -55t55 -73.5t17.5 -78q0 -85 -47 -133t-134 -48q-60 0 -102 14t-75.5 30.5t-63.5 30.5t-67 14q-18 0 -32.5 -9.5t-16.5 -15.5l-4 1q0 31 26.5 55.5t78.5 24.5q39 0 74 -21t67 -45.5t62 -45.5
t60 -21q37 0 61.5 28.5t33.5 71.5t1 92.5t-35 92.5t-75 71.5t-120 28.5q-76 0 -125.5 -36.5t-78.5 -90.5t-40.5 -116.5t-10.5 -115.5q1 -69 21 -131.5t57.5 -109.5t91.5 -74.5t123 -27.5q30 0 67.5 8.5t74 29t68.5 53.5t50 81l14 -6q-39 -90 -118.5 -145t-191.5 -55
q-81 0 -144.5 29.5t-107.5 80.5t-67.5 119t-23.5 145zM368 831q0 18 12.5 31t30.5 13t31 -13t13 -31q0 -17 -13 -30t-31 -13t-30.5 13t-12.5 30z" />
    <glyph glyph-name="Eogonek" unicode="&#x118;" horiz-adv-x="776" 
d="M30 0v10q32 0 50.5 14t27.5 46t11.5 83t2.5 125v444q0 74 -2.5 125t-11.5 83t-27.5 46t-50.5 14v10h716v-135h-10v4q0 51 -94 86t-268 35h-166v-430q23 22 52 34t64 12q37 0 67 -9.5t58 -21.5t56 -21.5t61 -9.5q29 0 51.5 15.5t22.5 41.5h10q0 -45 -34 -77.5t-94 -32.5
q-46 0 -79.5 13.5t-61.5 29.5t-52 30t-51 15q-22 1 -40 -9t-30 -26v-534h128q24 0 62.5 1.5t83 6.5t90 15.5t82 27.5t59.5 42.5t23 61.5h10v-165h-716zM448 5v-5q-42 0 -66 -25.5t-24 -57.5q0 -26 11.5 -45.5t37.5 -19.5q12 0 20.5 9.5t2.5 20.5l2 2q4 -2 8 -5q8 -6 8 -18
q0 -19 -13 -32.5t-37 -13.5q-32 0 -50.5 23t-18.5 51q0 23 10.5 44t27 37t38 25.5t43.5 9.5z" />
    <glyph glyph-name="eogonek" unicode="&#x119;" horiz-adv-x="773" 
d="M60 354q0 77 23.5 145t67.5 119t107.5 80.5t144.5 29.5t138.5 -21.5t95 -55t55 -73.5t17.5 -78q0 -85 -47 -133t-134 -48q-60 0 -102 14t-75.5 30.5t-63.5 30.5t-67 14q-18 0 -32.5 -9.5t-16.5 -15.5l-4 1q0 31 26.5 55.5t78.5 24.5q39 0 74 -21t67 -45.5t62 -45.5
t60 -21q37 0 61.5 28.5t33.5 71.5t1 92.5t-35 92.5t-75 71.5t-120 28.5q-76 0 -125.5 -36.5t-78.5 -90.5t-40.5 -116.5t-10.5 -115.5q1 -69 21 -131.5t57.5 -109.5t91.5 -74.5t123 -27.5q30 0 67.5 8.5t74 29t68.5 53.5t50 81l14 -6q-39 -90 -118.5 -145t-191.5 -55
q-81 0 -144.5 29.5t-107.5 80.5t-67.5 119t-23.5 145zM445 5v-5q-42 0 -66 -25.5t-24 -57.5q0 -26 11.5 -45.5t37.5 -19.5q12 0 20.5 9.5t2.5 20.5l2 2q4 -2 8 -5q8 -6 8 -18q0 -19 -13 -32.5t-37 -13.5q-32 0 -50.5 23t-18.5 51q0 23 10.5 44t27 37t38 25.5t43.5 9.5z" />
    <glyph glyph-name="Ecaron" unicode="&#x11a;" horiz-adv-x="776" 
d="M30 0v10q32 0 50.5 14t27.5 46t11.5 83t2.5 125v444q0 74 -2.5 125t-11.5 83t-27.5 46t-50.5 14v10h716v-135h-10v4q0 51 -94 86t-268 35h-166v-430q23 22 52 34t64 12q37 0 67 -9.5t58 -21.5t56 -21.5t61 -9.5q29 0 51.5 15.5t22.5 41.5h10q0 -45 -34 -77.5t-94 -32.5
q-46 0 -79.5 13.5t-61.5 29.5t-52 30t-51 15q-22 1 -40 -9t-30 -26v-534h128q24 0 62.5 1.5t83 6.5t90 15.5t82 27.5t59.5 42.5t23 61.5h10v-165h-716zM395 1080l-110 86l6 10l107 -46l107 46l6 -10z" />
    <glyph glyph-name="ecaron" unicode="&#x11b;" horiz-adv-x="773" 
d="M60 354q0 77 23.5 145t67.5 119t107.5 80.5t144.5 29.5t138.5 -21.5t95 -55t55 -73.5t17.5 -78q0 -85 -47 -133t-134 -48q-60 0 -102 14t-75.5 30.5t-63.5 30.5t-67 14q-18 0 -32.5 -9.5t-16.5 -15.5l-4 1q0 31 26.5 55.5t78.5 24.5q39 0 74 -21t67 -45.5t62 -45.5
t60 -21q37 0 61.5 28.5t33.5 71.5t1 92.5t-35 92.5t-75 71.5t-120 28.5q-76 0 -125.5 -36.5t-78.5 -90.5t-40.5 -116.5t-10.5 -115.5q1 -69 21 -131.5t57.5 -109.5t91.5 -74.5t123 -27.5q30 0 67.5 8.5t74 29t68.5 53.5t50 81l14 -6q-39 -90 -118.5 -145t-191.5 -55
q-81 0 -144.5 29.5t-107.5 80.5t-67.5 119t-23.5 145zM410 788l-110 86l6 10l107 -46l107 46l6 -10z" />
    <glyph glyph-name="Gcircumflex" unicode="&#x11c;" horiz-adv-x="921" 
d="M60 500q0 113 34.5 208t94.5 164.5t141.5 108.5t174.5 39t160 -13t125 -33v-134h-10q-20 47 -57 84q-32 32 -84.5 58t-133.5 26q-78 0 -143 -38.5t-112 -106t-73.5 -160.5t-26.5 -203q0 -109 28.5 -202.5t77 -161t113 -106t136.5 -38.5q66 0 113.5 24.5t78.5 56.5
t45.5 63.5t14.5 44.5v141q0 56 -19.5 89.5t-51 51t-72 22.5t-82.5 5q-43 0 -84 -1.5t-73 3t-51.5 19t-19.5 45.5q0 32 15.5 55.5t38 39.5t49.5 23.5t49 7.5q56 0 101 -14t86.5 -31.5t83 -31.5t89.5 -14q26 0 40.5 5t22.5 10q8 7 10 15q6 -24 -0.5 -42t-21 -30.5t-35.5 -19
t-44 -6.5q-45 0 -92 15t-93 33t-89 33t-80 15q-23 0 -44.5 -4t-38 -12.5t-26.5 -21t-10 -30.5q0 -34 38 -43.5t96 -9.5q59 0 127.5 1.5t128 -12t99 -51t39.5 -114.5v-144q-57 -95 -143.5 -146.5t-194.5 -51.5q-93 0 -174.5 39t-141.5 108.5t-94.5 165t-34.5 207.5zM511 1176
l116 -86l-6 -10l-107 46l-107 -46l-6 10z" />
    <glyph glyph-name="gcircumflex" unicode="&#x11d;" horiz-adv-x="729" 
d="M175 -64q35 0 60.5 -7t50 -15t50.5 -15t61 -7q9 0 21 2.5t22 8.5t15.5 15.5t1.5 23.5l4 1q14 -18 15 -41t-10.5 -44t-34 -35t-54.5 -14q-28 0 -50.5 7t-45 15t-48.5 15t-60 7q-17 0 -33.5 -6t-30 -17t-22 -26.5t-8.5 -33.5q0 -44 19 -80t53.5 -61.5t82 -39.5t104.5 -14
q58 0 111.5 22t94.5 61.5t65.5 93.5t24.5 118q0 39 -16 72t-45 57t-70.5 37.5t-91.5 13.5q-31 0 -52 -3t-39.5 -6t-38.5 -6t-49 -3q-30 0 -57 14t-27 44q0 37 31.5 54t78.5 28.5t102 25t102 41.5t78.5 79t31.5 137q0 51 -14.5 98t-42.5 83t-68 58t-91 22t-91.5 -22.5
t-68 -59t-42.5 -84t-15 -98.5t16.5 -93t44.5 -71.5t66 -46t80 -16.5v-9q-23 -4 -50 -4q-55 0 -99.5 19.5t-76.5 52.5t-49.5 76.5t-17.5 91.5q0 53 20.5 103t59.5 88.5t95.5 61.5t127.5 23h302v-32l-216 22q51 -13 91.5 -39.5t68 -62t42 -77.5t14.5 -87q0 -91 -37 -144.5
t-92.5 -83.5t-120 -42.5t-120 -22t-92.5 -23t-37 -44.5q0 -25 23.5 -37.5t49.5 -12.5q36 0 67 7.5t61 16.5t60.5 16.5t66.5 7.5q44 0 84.5 -16t71 -44.5t48.5 -67.5t18 -84q0 -65 -25.5 -122t-74 -99.5t-117.5 -67t-156 -24.5q-69 0 -127 14t-100 42.5t-65.5 70t-23.5 97.5
q0 33 13.5 60t35 46.5t49.5 30t57 10.5zM353 884l116 -86l-6 -10l-107 46l-107 -46l-6 10z" />
    <glyph glyph-name="Gbreve" unicode="&#x11e;" horiz-adv-x="921" 
d="M60 500q0 113 34.5 208t94.5 164.5t141.5 108.5t174.5 39t160 -13t125 -33v-134h-10q-20 47 -57 84q-32 32 -84.5 58t-133.5 26q-78 0 -143 -38.5t-112 -106t-73.5 -160.5t-26.5 -203q0 -109 28.5 -202.5t77 -161t113 -106t136.5 -38.5q66 0 113.5 24.5t78.5 56.5
t45.5 63.5t14.5 44.5v141q0 56 -19.5 89.5t-51 51t-72 22.5t-82.5 5q-43 0 -84 -1.5t-73 3t-51.5 19t-19.5 45.5q0 32 15.5 55.5t38 39.5t49.5 23.5t49 7.5q56 0 101 -14t86.5 -31.5t83 -31.5t89.5 -14q26 0 40.5 5t22.5 10q8 7 10 15q6 -24 -0.5 -42t-21 -30.5t-35.5 -19
t-44 -6.5q-45 0 -92 15t-93 33t-89 33t-80 15q-23 0 -44.5 -4t-38 -12.5t-26.5 -21t-10 -30.5q0 -34 38 -43.5t96 -9.5q59 0 127.5 1.5t128 -12t99 -51t39.5 -114.5v-144q-57 -95 -143.5 -146.5t-194.5 -51.5q-93 0 -174.5 39t-141.5 108.5t-94.5 165t-34.5 207.5zM413 1166
q16 -26 41.5 -41t59.5 -15t59.5 15t41.5 41h9q-7 -36 -37.5 -61t-72.5 -25q-41 0 -72 25t-38 61h9z" />
    <glyph glyph-name="gbreve" unicode="&#x11f;" horiz-adv-x="729" 
d="M175 -64q35 0 60.5 -7t50 -15t50.5 -15t61 -7q9 0 21 2.5t22 8.5t15.5 15.5t1.5 23.5l4 1q14 -18 15 -41t-10.5 -44t-34 -35t-54.5 -14q-28 0 -50.5 7t-45 15t-48.5 15t-60 7q-17 0 -33.5 -6t-30 -17t-22 -26.5t-8.5 -33.5q0 -44 19 -80t53.5 -61.5t82 -39.5t104.5 -14
q58 0 111.5 22t94.5 61.5t65.5 93.5t24.5 118q0 39 -16 72t-45 57t-70.5 37.5t-91.5 13.5q-31 0 -52 -3t-39.5 -6t-38.5 -6t-49 -3q-30 0 -57 14t-27 44q0 37 31.5 54t78.5 28.5t102 25t102 41.5t78.5 79t31.5 137q0 51 -14.5 98t-42.5 83t-68 58t-91 22t-91.5 -22.5
t-68 -59t-42.5 -84t-15 -98.5t16.5 -93t44.5 -71.5t66 -46t80 -16.5v-9q-23 -4 -50 -4q-55 0 -99.5 19.5t-76.5 52.5t-49.5 76.5t-17.5 91.5q0 53 20.5 103t59.5 88.5t95.5 61.5t127.5 23h302v-32l-216 22q51 -13 91.5 -39.5t68 -62t42 -77.5t14.5 -87q0 -91 -37 -144.5
t-92.5 -83.5t-120 -42.5t-120 -22t-92.5 -23t-37 -44.5q0 -25 23.5 -37.5t49.5 -12.5q36 0 67 7.5t61 16.5t60.5 16.5t66.5 7.5q44 0 84.5 -16t71 -44.5t48.5 -67.5t18 -84q0 -65 -25.5 -122t-74 -99.5t-117.5 -67t-156 -24.5q-69 0 -127 14t-100 42.5t-65.5 70t-23.5 97.5
q0 33 13.5 60t35 46.5t49.5 30t57 10.5zM255 874q16 -26 41.5 -41t59.5 -15t59.5 15t41.5 41h9q-7 -36 -37.5 -61t-72.5 -25q-41 0 -72 25t-38 61h9z" />
    <glyph glyph-name="Gdotaccent" unicode="&#x120;" horiz-adv-x="921" 
d="M60 500q0 113 34.5 208t94.5 164.5t141.5 108.5t174.5 39t160 -13t125 -33v-134h-10q-20 47 -57 84q-32 32 -84.5 58t-133.5 26q-78 0 -143 -38.5t-112 -106t-73.5 -160.5t-26.5 -203q0 -109 28.5 -202.5t77 -161t113 -106t136.5 -38.5q66 0 113.5 24.5t78.5 56.5
t45.5 63.5t14.5 44.5v141q0 56 -19.5 89.5t-51 51t-72 22.5t-82.5 5q-43 0 -84 -1.5t-73 3t-51.5 19t-19.5 45.5q0 32 15.5 55.5t38 39.5t49.5 23.5t49 7.5q56 0 101 -14t86.5 -31.5t83 -31.5t89.5 -14q26 0 40.5 5t22.5 10q8 7 10 15q6 -24 -0.5 -42t-21 -30.5t-35.5 -19
t-44 -6.5q-45 0 -92 15t-93 33t-89 33t-80 15q-23 0 -44.5 -4t-38 -12.5t-26.5 -21t-10 -30.5q0 -34 38 -43.5t96 -9.5q59 0 127.5 1.5t128 -12t99 -51t39.5 -114.5v-144q-57 -95 -143.5 -146.5t-194.5 -51.5q-93 0 -174.5 39t-141.5 108.5t-94.5 165t-34.5 207.5zM471 1123
q0 18 12.5 31t30.5 13t31 -13t13 -31q0 -17 -13 -30t-31 -13t-30.5 13t-12.5 30z" />
    <glyph glyph-name="gdotaccent" unicode="&#x121;" horiz-adv-x="729" 
d="M175 -64q35 0 60.5 -7t50 -15t50.5 -15t61 -7q9 0 21 2.5t22 8.5t15.5 15.5t1.5 23.5l4 1q14 -18 15 -41t-10.5 -44t-34 -35t-54.5 -14q-28 0 -50.5 7t-45 15t-48.5 15t-60 7q-17 0 -33.5 -6t-30 -17t-22 -26.5t-8.5 -33.5q0 -44 19 -80t53.5 -61.5t82 -39.5t104.5 -14
q58 0 111.5 22t94.5 61.5t65.5 93.5t24.5 118q0 39 -16 72t-45 57t-70.5 37.5t-91.5 13.5q-31 0 -52 -3t-39.5 -6t-38.5 -6t-49 -3q-30 0 -57 14t-27 44q0 37 31.5 54t78.5 28.5t102 25t102 41.5t78.5 79t31.5 137q0 51 -14.5 98t-42.5 83t-68 58t-91 22t-91.5 -22.5
t-68 -59t-42.5 -84t-15 -98.5t16.5 -93t44.5 -71.5t66 -46t80 -16.5v-9q-23 -4 -50 -4q-55 0 -99.5 19.5t-76.5 52.5t-49.5 76.5t-17.5 91.5q0 53 20.5 103t59.5 88.5t95.5 61.5t127.5 23h302v-32l-216 22q51 -13 91.5 -39.5t68 -62t42 -77.5t14.5 -87q0 -91 -37 -144.5
t-92.5 -83.5t-120 -42.5t-120 -22t-92.5 -23t-37 -44.5q0 -25 23.5 -37.5t49.5 -12.5q36 0 67 7.5t61 16.5t60.5 16.5t66.5 7.5q44 0 84.5 -16t71 -44.5t48.5 -67.5t18 -84q0 -65 -25.5 -122t-74 -99.5t-117.5 -67t-156 -24.5q-69 0 -127 14t-100 42.5t-65.5 70t-23.5 97.5
q0 33 13.5 60t35 46.5t49.5 30t57 10.5zM313 831q0 18 12.5 31t30.5 13t31 -13t13 -31q0 -17 -13 -30t-31 -13t-30.5 13t-12.5 30z" />
    <glyph glyph-name="uni0122" unicode="&#x122;" horiz-adv-x="921" 
d="M60 500q0 113 34.5 208t94.5 164.5t141.5 108.5t174.5 39t160 -13t125 -33v-134h-10q-20 47 -57 84q-32 32 -84.5 58t-133.5 26q-78 0 -143 -38.5t-112 -106t-73.5 -160.5t-26.5 -203q0 -109 28.5 -202.5t77 -161t113 -106t136.5 -38.5q66 0 113.5 24.5t78.5 56.5
t45.5 63.5t14.5 44.5v141q0 56 -19.5 89.5t-51 51t-72 22.5t-82.5 5q-43 0 -84 -1.5t-73 3t-51.5 19t-19.5 45.5q0 32 15.5 55.5t38 39.5t49.5 23.5t49 7.5q56 0 101 -14t86.5 -31.5t83 -31.5t89.5 -14q26 0 40.5 5t22.5 10q8 7 10 15q6 -24 -0.5 -42t-21 -30.5t-35.5 -19
t-44 -6.5q-45 0 -92 15t-93 33t-89 33t-80 15q-23 0 -44.5 -4t-38 -12.5t-26.5 -21t-10 -30.5q0 -34 38 -43.5t96 -9.5q59 0 127.5 1.5t128 -12t99 -51t39.5 -114.5v-144q-57 -95 -143.5 -146.5t-194.5 -51.5q-93 0 -174.5 39t-141.5 108.5t-94.5 165t-34.5 207.5zM506 -40
q18 0 32 -14.5t14 -43.5q0 -33 -10 -53.5t-21 -31.5q-14 -13 -32 -19l-1 6q11 3 19.5 11t13.5 19.5t6.5 23.5t-1.5 23q-2 -2 -5 -4q-6 -4 -15 -4q-18 0 -31 12.5t-13 31.5q0 18 13 30.5t31 12.5z" />
    <glyph glyph-name="uni0123" unicode="&#x123;" horiz-adv-x="729" 
d="M175 -64q35 0 60.5 -7t50 -15t50.5 -15t61 -7q9 0 21 2.5t22 8.5t15.5 15.5t1.5 23.5l4 1q14 -18 15 -41t-10.5 -44t-34 -35t-54.5 -14q-28 0 -50.5 7t-45 15t-48.5 15t-60 7q-17 0 -33.5 -6t-30 -17t-22 -26.5t-8.5 -33.5q0 -44 19 -80t53.5 -61.5t82 -39.5t104.5 -14
q58 0 111.5 22t94.5 61.5t65.5 93.5t24.5 118q0 39 -16 72t-45 57t-70.5 37.5t-91.5 13.5q-31 0 -52 -3t-39.5 -6t-38.5 -6t-49 -3q-30 0 -57 14t-27 44q0 37 31.5 54t78.5 28.5t102 25t102 41.5t78.5 79t31.5 137q0 51 -14.5 98t-42.5 83t-68 58t-91 22t-91.5 -22.5
t-68 -59t-42.5 -84t-15 -98.5t16.5 -93t44.5 -71.5t66 -46t80 -16.5v-9q-23 -4 -50 -4q-55 0 -99.5 19.5t-76.5 52.5t-49.5 76.5t-17.5 91.5q0 53 20.5 103t59.5 88.5t95.5 61.5t127.5 23h302v-32l-216 22q51 -13 91.5 -39.5t68 -62t42 -77.5t14.5 -87q0 -91 -37 -144.5
t-92.5 -83.5t-120 -42.5t-120 -22t-92.5 -23t-37 -44.5q0 -25 23.5 -37.5t49.5 -12.5q36 0 67 7.5t61 16.5t60.5 16.5t66.5 7.5q44 0 84.5 -16t71 -44.5t48.5 -67.5t18 -84q0 -65 -25.5 -122t-74 -99.5t-117.5 -67t-156 -24.5q-69 0 -127 14t-100 42.5t-65.5 70t-23.5 97.5
q0 33 13.5 60t35 46.5t49.5 30t57 10.5zM383 951l1 -7q-10 -2 -19 -10.5t-14.5 -19.5t-7 -23.5t2.5 -23.5q2 2 5 4q6 4 15 4q18 0 31 -12.5t13 -30.5t-13 -31t-31 -13t-32.5 15t-14.5 44q0 33 10 53.5t22 31.5q14 13 32 19z" />
    <glyph glyph-name="Hcircumflex" unicode="&#x124;" horiz-adv-x="916" 
d="M300 1000v-10q-32 0 -50.5 -14t-27.5 -46t-11.5 -83t-2.5 -125v-175q9 20 40 39.5t76 19.5q37 0 71.5 -9.5t67.5 -21.5t65.5 -21.5t65.5 -9.5q29 0 51.5 15.5t22.5 41.5h10q0 -45 -34 -77.5t-94 -32.5q-46 0 -84 14t-71 30.5t-61.5 30t-55.5 13.5q-39 0 -54.5 -26.5
t-15.5 -61.5v-213q0 -74 2.5 -125t11.5 -83t27.5 -46t50.5 -14v-10h-270v10q32 0 50.5 14t27.5 46t11.5 83t2.5 125v444q0 74 -2.5 125t-11.5 83t-27.5 46t-50.5 14v10h270zM616 10q32 0 50.5 14t27.5 46t11.5 83t2.5 125v444q0 74 -2.5 125t-11.5 83t-27.5 46t-50.5 14v10
h270v-10q-32 0 -50.5 -14t-27.5 -46t-11.5 -83t-2.5 -125v-444q0 -74 2.5 -125t11.5 -83t27.5 -46t50.5 -14v-10h-270v10zM450 1176l116 -86l-6 -10l-107 46l-107 -46l-6 10z" />
    <glyph glyph-name="hcircumflex" unicode="&#x125;" horiz-adv-x="787" 
d="M30 0v10q32 0 50.5 14t27.5 46t11.5 83t2.5 125v444q0 74 -2.5 125t-11.5 83t-27.5 46t-50.5 14v10h178v-289q14 0 40.5 2.5t56.5 6t58.5 6t44.5 2.5q33 0 79 -5.5t88 -27.5t71 -66.5t29 -123.5v-227q0 -74 2.5 -125t11.5 -83t27.5 -46t50.5 -14v-10h-270v10
q32 0 50.5 14t27.5 46t11.5 83t2.5 125v114q-1 42 -1 92q0 84 -25.5 130.5t-61.5 68.5t-74 26.5t-64 4.5q-38 0 -78.5 -8t-76.5 -21v-407q0 -74 2.5 -125t11.5 -83t27.5 -46t50.5 -14v-10h-270zM135 1176l116 -86l-6 -10l-107 46l-107 -46l-6 10z" />
    <glyph glyph-name="Hbar" unicode="&#x126;" horiz-adv-x="916" 
d="M30 0v10q32 0 50.5 14t27.5 46t11.5 83t2.5 125v408h-75v22h75v14q0 74 -2.5 125t-11.5 83t-27.5 46t-50.5 14v10h270v-10q-32 0 -50.5 -14t-27.5 -46t-11.5 -83t-2.5 -125v-14h500v14q0 74 -2.5 125t-11.5 83t-27.5 46t-50.5 14v10h270v-10q-32 0 -50.5 -14t-27.5 -46
t-11.5 -83t-2.5 -125v-14h76v-22h-76v-408q0 -74 2.5 -125t11.5 -83t27.5 -46t50.5 -14v-10h-270v10q32 0 50.5 14t27.5 46t11.5 83t2.5 125v408h-500v-139q9 20 40 39.5t76 19.5q37 0 71.5 -9.5t67.5 -21.5t65.5 -21.5t65.5 -9.5q29 0 51.5 15.5t22.5 41.5h10
q0 -45 -34 -77.5t-94 -32.5q-46 0 -84 14t-71 30.5t-61.5 30t-55.5 13.5q-39 0 -54.5 -26.5t-15.5 -61.5v-213q0 -74 2.5 -125t11.5 -83t27.5 -46t50.5 -14v-10h-270z" />
    <glyph glyph-name="hbar" unicode="&#x127;" horiz-adv-x="787" 
d="M30 10q32 0 50.5 14t27.5 46t11.5 83t2.5 125v444v66h-92v22h91q-1 49 -5.5 83.5t-14.5 56t-27 31t-44 9.5v10h178v-190h37v-22h-37v-77q14 0 40.5 2.5t56.5 6t58.5 6t44.5 2.5q33 0 79 -5.5t88 -27.5t71 -66.5t29 -123.5v-227q0 -74 2.5 -125t11.5 -83t27.5 -46
t50.5 -14v-10h-270v10q32 0 50.5 14t27.5 46t11.5 83t2.5 125v114q-1 42 -1 92q0 84 -25.5 130.5t-61.5 68.5t-74 26.5t-64 4.5q-38 0 -78.5 -8t-76.5 -21v-407q0 -74 2.5 -125t11.5 -83t27.5 -46t50.5 -14v-10h-270v10z" />
    <glyph glyph-name="Itilde" unicode="&#x128;" 
d="M30 10q32 0 50.5 14t27.5 46t11.5 83t2.5 125v444q0 74 -2.5 125t-11.5 83t-27.5 46t-50.5 14v10h270v-10q-32 0 -50.5 -14t-27.5 -46t-11.5 -83t-2.5 -125v-444q0 -74 2.5 -125t11.5 -83t27.5 -46t50.5 -14v-10h-270v10zM44 1095q3 11 19.5 27t46.5 16q18 0 32 -4.5
t27.5 -9.5t27 -9.5t30.5 -4.5t26.5 3t14.5 7q6 4 8 10l6 -3q-6 -21 -24.5 -34t-45.5 -13q-16 0 -29 4.5t-26.5 10t-28.5 10t-36 4.5q-31 0 -43 -17z" />
    <glyph glyph-name="itilde" unicode="&#x129;" 
d="M30 708h178v-430q0 -74 2.5 -125t11.5 -83t27.5 -46t50.5 -14v-10h-270v10q32 0 50.5 14t27.5 46t11.5 83t2.5 125v152q0 74 -2.5 125t-11.5 83t-27.5 46t-50.5 14v10zM37 803q3 11 19.5 27t46.5 16q18 0 32 -4.5t27.5 -9.5t27 -9.5t30.5 -4.5t26.5 3t14.5 7q6 4 8 10
l6 -3q-6 -21 -24.5 -34t-45.5 -13q-16 0 -29 4.5t-26.5 10t-28.5 10t-36 4.5q-31 0 -43 -17z" />
    <glyph glyph-name="Imacron" unicode="&#x12a;" 
d="M30 10q32 0 50.5 14t27.5 46t11.5 83t2.5 125v444q0 74 -2.5 125t-11.5 83t-27.5 46t-50.5 14v10h270v-10q-32 0 -50.5 -14t-27.5 -46t-11.5 -83t-2.5 -125v-444q0 -74 2.5 -125t11.5 -83t27.5 -46t50.5 -14v-10h-270v10zM55 1102h215v-22h-215v22z" />
    <glyph glyph-name="imacron" unicode="&#x12b;" 
d="M30 708h178v-430q0 -74 2.5 -125t11.5 -83t27.5 -46t50.5 -14v-10h-270v10q32 0 50.5 14t27.5 46t11.5 83t2.5 125v152q0 74 -2.5 125t-11.5 83t-27.5 46t-50.5 14v10zM49 810h215v-22h-215v22z" />
    <glyph glyph-name="Ibreve" unicode="&#x12c;" 
d="M30 10q32 0 50.5 14t27.5 46t11.5 83t2.5 125v444q0 74 -2.5 125t-11.5 83t-27.5 46t-50.5 14v10h270v-10q-32 0 -50.5 -14t-27.5 -46t-11.5 -83t-2.5 -125v-444q0 -74 2.5 -125t11.5 -83t27.5 -46t50.5 -14v-10h-270v10zM62 1166q16 -26 41.5 -41t59.5 -15t59.5 15
t41.5 41h9q-7 -36 -37.5 -61t-72.5 -25q-41 0 -72 25t-38 61h9z" />
    <glyph glyph-name="ibreve" unicode="&#x12d;" 
d="M30 708h178v-430q0 -74 2.5 -125t11.5 -83t27.5 -46t50.5 -14v-10h-270v10q32 0 50.5 14t27.5 46t11.5 83t2.5 125v152q0 74 -2.5 125t-11.5 83t-27.5 46t-50.5 14v10zM55 874q16 -26 41.5 -41t59.5 -15t59.5 15t41.5 41h9q-7 -36 -37.5 -61t-72.5 -25q-41 0 -72 25
t-38 61h9z" />
    <glyph glyph-name="Iogonek" unicode="&#x12e;" 
d="M30 10q32 0 50.5 14t27.5 46t11.5 83t2.5 125v444q0 74 -2.5 125t-11.5 83t-27.5 46t-50.5 14v10h270v-10q-32 0 -50.5 -14t-27.5 -46t-11.5 -83t-2.5 -125v-444q0 -74 2.5 -125t11.5 -83t27.5 -46t50.5 -14v-10h-270v10zM171 5v-5q-42 0 -66 -25.5t-24 -57.5
q0 -26 11.5 -45.5t37.5 -19.5q12 0 20.5 9.5t2.5 20.5l2 2q4 -2 8 -5q8 -6 8 -18q0 -19 -13 -32.5t-37 -13.5q-32 0 -50.5 23t-18.5 51q0 23 10.5 44t27 37t38 25.5t43.5 9.5z" />
    <glyph glyph-name="iogonek" unicode="&#x12f;" horiz-adv-x="320" 
d="M30 0v10q32 0 50.5 14t27.5 46t11.5 83t2.5 125v152q0 74 -2.5 125t-11.5 83t-27.5 46t-50.5 14v10h178v-430q0 -74 2.5 -125t11.5 -83t27.5 -46t50.5 -14v-10h-270zM160 906q28 0 47.5 -19.5t19.5 -47.5t-19.5 -47.5t-47.5 -19.5t-47.5 19.5t-19.5 47.5t19.5 47.5
t47.5 19.5zM174 5v-5q-42 0 -66 -25.5t-24 -57.5q0 -26 11.5 -45.5t37.5 -19.5q12 0 20.5 9.5t2.5 20.5l2 2q4 -2 8 -5q8 -6 8 -18q0 -19 -13 -32.5t-37 -13.5q-32 0 -50.5 23t-18.5 51q0 23 10.5 44t27 37t38 25.5t43.5 9.5z" />
    <glyph glyph-name="Idotaccent" unicode="&#x130;" 
d="M30 10q32 0 50.5 14t27.5 46t11.5 83t2.5 125v444q0 74 -2.5 125t-11.5 83t-27.5 46t-50.5 14v10h270v-10q-32 0 -50.5 -14t-27.5 -46t-11.5 -83t-2.5 -125v-444q0 -74 2.5 -125t11.5 -83t27.5 -46t50.5 -14v-10h-270v10zM120 1123q0 18 12.5 31t30.5 13t31 -13t13 -31
q0 -17 -13 -30t-31 -13t-30.5 13t-12.5 30z" />
    <glyph glyph-name="dotlessi" unicode="&#x131;" 
d="M30 708h178v-430q0 -74 2.5 -125t11.5 -83t27.5 -46t50.5 -14v-10h-270v10q32 0 50.5 14t27.5 46t11.5 83t2.5 125v152q0 74 -2.5 125t-11.5 83t-27.5 46t-50.5 14v10z" />
    <glyph glyph-name="IJ" unicode="&#x132;" horiz-adv-x="647" 
d="M30 10q32 0 50.5 14t27.5 46t11.5 83t2.5 125v444q0 74 -2.5 125t-11.5 83t-27.5 46t-50.5 14v10h270v-10q-32 0 -50.5 -14t-27.5 -46t-11.5 -83t-2.5 -125v-444q0 -74 2.5 -125t11.5 -83t27.5 -46t50.5 -14v-10h-270v10zM282 -196q3 0 6 -1h10q37 0 65 20t47 55t29 83.5
t10 105.5v655q0 74 -2.5 125t-11.5 83t-27.5 46t-50.5 14v10h270v-10q-32 0 -50.5 -14t-27.5 -46t-11.5 -83t-2.5 -125v-653q0 -54 -16 -104t-45.5 -89t-70 -62.5t-88.5 -23.5q-12 0 -19 1t-16 3z" />
    <glyph glyph-name="ij" unicode="&#x133;" horiz-adv-x="607" 
d="M30 0v10q32 0 50.5 14t27.5 46t11.5 83t2.5 125v152q0 74 -2.5 125t-11.5 83t-27.5 46t-50.5 14v10h178v-430q0 -74 2.5 -125t11.5 -83t27.5 -46t50.5 -14v-10h-270zM160 906q28 0 47.5 -19.5t19.5 -47.5t-19.5 -47.5t-47.5 -19.5t-47.5 19.5t-19.5 47.5t19.5 47.5
t47.5 19.5zM277 -404q23 -18 58 -18q34 0 54.5 19.5t31 48t13.5 61.5t3 60v663q0 74 -2.5 125t-11.5 83t-27.5 46t-50.5 14v10h178v-926q0 -38 -11 -77t-33.5 -70.5t-55.5 -51t-77 -19.5q-26 0 -44 6t-32 16zM480 772q-28 0 -47.5 19.5t-19.5 47.5t19.5 47.5t47.5 19.5
t47.5 -19.5t19.5 -47.5t-19.5 -47.5t-47.5 -19.5z" />
    <glyph glyph-name="Jcircumflex" unicode="&#x134;" horiz-adv-x="317" 
d="M-48 -196q3 0 6 -1h10q37 0 65 20t47 55t29 83.5t10 105.5v655q0 74 -2.5 125t-11.5 83t-27.5 46t-50.5 14v10h270v-10q-32 0 -50.5 -14t-27.5 -46t-11.5 -83t-2.5 -125v-653q0 -54 -16 -104t-45.5 -89t-70 -62.5t-88.5 -23.5q-12 0 -19 1t-16 3zM161 1176l116 -86
l-6 -10l-107 46l-107 -46l-6 10z" />
    <glyph glyph-name="jcircumflex" unicode="&#x135;" horiz-adv-x="287" 
d="M-43 -404q23 -18 58 -18q34 0 54.5 19.5t31 48t13.5 61.5t3 60v663q0 74 -2.5 125t-11.5 83t-27.5 46t-50.5 14v10h178v-926q0 -38 -11 -77t-33.5 -70.5t-55.5 -51t-77 -19.5q-26 0 -44 6t-32 16zM148 884l116 -86l-6 -10l-107 46l-107 -46l-6 10z" />
    <glyph glyph-name="uni0136" unicode="&#x136;" horiz-adv-x="845" 
d="M247 500q0 23 29.5 42t74 40.5t96.5 48.5t96.5 64.5t74 88.5t29.5 121q0 28 -9 55.5t-26 39.5h99q14 -13 22 -39t8 -54q0 -77 -36 -133t-89.5 -95.5t-116.5 -66.5t-116.5 -46.5t-89.5 -34.5t-36 -31q0 -21 29.5 -30.5t72.5 -23t90.5 -39.5t83.5 -80q35 -52 70.5 -108.5
t73 -102.5t76.5 -76t82 -30v-10h-153q-17 0 -33.5 13.5t-40.5 47.5t-61.5 92t-96.5 147q-42 62 -78.5 93t-64.5 47.5t-44 27.5t-16 32zM30 1000h269v-10q-32 0 -50.5 -14t-27.5 -46t-11.5 -83t-2.5 -125v-444q0 -74 2.5 -125t11.5 -83t27.5 -46t50.5 -14v-10h-269v10
q32 0 50.5 14t27.5 46t11.5 83t2.5 125v444q0 74 -2.5 125t-11.5 83t-27.5 46t-50.5 14v10zM167 -21q18 0 32 -14.5t14 -43.5q0 -33 -10 -53.5t-21 -31.5q-14 -13 -32 -19l-1 6q11 3 19.5 11t13.5 19.5t6.5 23.5t-1.5 23q-2 -2 -5 -4q-6 -4 -15 -4q-18 0 -31 12.5t-13 31.5
q0 18 13 30.5t31 12.5z" />
    <glyph glyph-name="uni0137" unicode="&#x137;" horiz-adv-x="700" 
d="M30 10q32 0 50.5 14t27.5 46t11.5 83t2.5 125v444q0 74 -2.5 125t-11.5 83t-27.5 46t-50.5 14v10h178v-722q0 -74 2.5 -125t11.5 -83t27.5 -46t50.5 -14v-10h-270v10zM435 248q-31 56 -66 84t-65 44.5t-50 28.5t-20 35t21.5 37t54 25t70 21.5t70 26.5t54 40t21.5 62
q0 20 -10.5 33t-36.5 13v10h120q11 0 14 -8t3 -18q0 -49 -27.5 -81.5t-68.5 -53.5t-89.5 -33.5t-89.5 -23t-68.5 -21.5t-27.5 -29q0 -22 28.5 -32t70.5 -25.5t89 -44t84 -88.5q15 -25 24 -48t15 -45.5t12.5 -46t16.5 -48.5q11 -25 30 -38.5t56 -13.5v-10h-115
q-18 0 -29.5 10.5t-20 26t-13.5 34.5t-10 36q-11 44 -22 79.5t-25 61.5zM171 -21q18 0 32 -14.5t14 -43.5q0 -33 -10 -53.5t-21 -31.5q-14 -13 -32 -19l-1 6q11 3 19.5 11t13.5 19.5t6.5 23.5t-1.5 23q-2 -2 -5 -4q-6 -4 -15 -4q-18 0 -31 12.5t-13 31.5q0 18 13 30.5
t31 12.5z" />
    <glyph glyph-name="kgreenlandic" unicode="&#x138;" horiz-adv-x="700" 
d="M30 10q32 0 50.5 14t27.5 46t11.5 83t2.5 125v444q0 74 -2.5 125t-11.5 83t-27.5 46t-50.5 14v10h178v-722q0 -74 2.5 -125t11.5 -83t27.5 -46t50.5 -14v-10h-270v10zM435 248q-31 56 -66 84t-65 44.5t-50 28.5t-20 35t21.5 37t54 25t70 21.5t70 26.5t54 40t21.5 62
q0 20 -10.5 33t-36.5 13v10h120q11 0 14 -8t3 -18q0 -49 -27.5 -81.5t-68.5 -53.5t-89.5 -33.5t-89.5 -23t-68.5 -21.5t-27.5 -29q0 -22 28.5 -32t70.5 -25.5t89 -44t84 -88.5q15 -25 24 -48t15 -45.5t12.5 -46t16.5 -48.5q11 -25 30 -38.5t56 -13.5v-10h-115
q-18 0 -29.5 10.5t-20 26t-13.5 34.5t-10 36q-11 44 -22 79.5t-25 61.5z" />
    <glyph glyph-name="Lacute" unicode="&#x139;" horiz-adv-x="775" 
d="M30 10q32 0 50.5 14t27.5 46t11.5 83t2.5 125v444q0 74 -2.5 125t-11.5 83t-27.5 46t-50.5 14v10h270v-10q-32 0 -50.5 -14t-27.5 -46t-11.5 -83t-2.5 -125v-712h127q24 0 62.5 1.5t83 6.5t90 15.5t82 27.5t59.5 42.5t23 61.5h10v-165h-715v10zM65 1080v10h32
q32 0 50.5 13.5t31 29t23 29t28.5 13.5q14 0 21 -8t7 -19q0 -15 -11 -27.5t-28.5 -21.5t-38 -14t-39.5 -5h-76z" />
    <glyph glyph-name="lacute" unicode="&#x13a;" 
d="M30 1000h178v-722q0 -74 2.5 -125t11.5 -83t27.5 -46t50.5 -14v-10h-270v10q32 0 50.5 14t27.5 46t11.5 83t2.5 125v444q0 74 -2.5 125t-11.5 83t-27.5 46t-50.5 14v10zM54 1080v10h32q32 0 50.5 13.5t31 29t23 29t28.5 13.5q14 0 21 -8t7 -19q0 -15 -11 -27.5
t-28.5 -21.5t-38 -14t-39.5 -5h-76z" />
    <glyph glyph-name="uni013B" unicode="&#x13b;" horiz-adv-x="775" 
d="M30 10q32 0 50.5 14t27.5 46t11.5 83t2.5 125v444q0 74 -2.5 125t-11.5 83t-27.5 46t-50.5 14v10h270v-10q-32 0 -50.5 -14t-27.5 -46t-11.5 -83t-2.5 -125v-712h127q24 0 62.5 1.5t83 6.5t90 15.5t82 27.5t59.5 42.5t23 61.5h10v-165h-715v10zM153 -21q18 0 32 -14.5
t14 -43.5q0 -33 -10 -53.5t-21 -31.5q-14 -13 -32 -19l-1 6q11 3 19.5 11t13.5 19.5t6.5 23.5t-1.5 23q-2 -2 -5 -4q-6 -4 -15 -4q-18 0 -31 12.5t-13 31.5q0 18 13 30.5t31 12.5z" />
    <glyph glyph-name="uni013C" unicode="&#x13c;" 
d="M30 1000h178v-722q0 -74 2.5 -125t11.5 -83t27.5 -46t50.5 -14v-10h-270v10q32 0 50.5 14t27.5 46t11.5 83t2.5 125v444q0 74 -2.5 125t-11.5 83t-27.5 46t-50.5 14v10zM170 -42q18 0 32 -14.5t14 -43.5q0 -33 -10 -53.5t-21 -31.5q-14 -13 -32 -19l-1 6q11 3 19.5 11
t13.5 19.5t6.5 23.5t-1.5 23q-2 -2 -5 -4q-6 -4 -15 -4q-18 0 -31 12.5t-13 31.5q0 18 13 30.5t31 12.5z" />
    <glyph glyph-name="Lcaron" unicode="&#x13d;" horiz-adv-x="775" 
d="M30 10q32 0 50.5 14t27.5 46t11.5 83t2.5 125v444q0 74 -2.5 125t-11.5 83t-27.5 46t-50.5 14v10h270v-10q-32 0 -50.5 -14t-27.5 -46t-11.5 -83t-2.5 -125v-712h127q24 0 62.5 1.5t83 6.5t90 15.5t82 27.5t59.5 42.5t23 61.5h10v-165h-715v10zM376 1000q18 0 32 -14.5
t14 -43.5q0 -33 -10 -53.5t-21 -31.5q-14 -13 -32 -19l-1 6q11 3 19.5 11t13.5 19.5t6.5 23.5t-1.5 23q-2 -2 -5 -4q-6 -4 -15 -4q-18 0 -31 12.5t-13 31.5q0 18 13 30.5t31 12.5z" />
    <glyph glyph-name="lcaron" unicode="&#x13e;" 
d="M30 10q32 0 50.5 14t27.5 46t11.5 83t2.5 125v444q0 74 -2.5 125t-11.5 83t-27.5 46t-50.5 14v10h178v-722q0 -74 2.5 -125t11.5 -83t27.5 -46t50.5 -14v-10h-270v10zM298 1000q18 0 32.5 -14.5t14.5 -43.5q0 -33 -10 -53.5t-22 -31.5q-14 -13 -32 -19v6q11 3 19.5 11
t13.5 19.5t6.5 24t-2.5 22.5q-2 -2 -5 -4q-6 -4 -15 -4q-18 0 -30.5 12.5t-12.5 31.5q0 18 12.5 30.5t30.5 12.5z" />
    <glyph glyph-name="Ldot" unicode="&#x13f;" horiz-adv-x="775" 
d="M30 10q32 0 50.5 14t27.5 46t11.5 83t2.5 125v444q0 74 -2.5 125t-11.5 83t-27.5 46t-50.5 14v10h270v-10q-32 0 -50.5 -14t-27.5 -46t-11.5 -83t-2.5 -125v-712h127q24 0 62.5 1.5t83 6.5t90 15.5t82 27.5t59.5 42.5t23 61.5h10v-165h-715v10zM321 793q0 28 19.5 47.5
t47.5 19.5t47.5 -19.5t19.5 -47.5t-19.5 -47.5t-47.5 -19.5t-47.5 19.5t-19.5 47.5z" />
    <glyph glyph-name="ldot" unicode="&#x140;" horiz-adv-x="401" 
d="M30 1000h178v-722q0 -74 2.5 -125t11.5 -83t27.5 -46t50.5 -14v-10h-270v10q32 0 50.5 14t27.5 46t11.5 83t2.5 125v444q0 74 -2.5 125t-11.5 83t-27.5 46t-50.5 14v10zM252 501q0 28 19.5 47.5t47.5 19.5t47.5 -19.5t19.5 -47.5t-19.5 -47.5t-47.5 -19.5t-47.5 19.5
t-19.5 47.5z" />
    <glyph glyph-name="Lslash" unicode="&#x141;" horiz-adv-x="775" 
d="M30 1000h270v-10q-32 0 -50.5 -14t-27.5 -46t-11.5 -83t-2.5 -125v-220h117v-11h-117v-481h127q24 0 62.5 1.5t83 6.5t90 15.5t82 27.5t59.5 42.5t23 61.5h10v-165h-715v10q32 0 50.5 14t27.5 46t11.5 83t2.5 125v213h-61v11h61v220q0 74 -2.5 125t-11.5 83t-27.5 46
t-50.5 14v10z" />
    <glyph glyph-name="lslash" unicode="&#x142;" 
d="M30 0v10q32 0 50.5 14t27.5 46t11.5 83t2.5 125v213h-51v11h51v220q0 74 -2.5 125t-11.5 83t-27.5 46t-50.5 14v10h178v-498h43v-11h-43v-213q0 -74 2.5 -125t11.5 -83t27.5 -46t50.5 -14v-10h-270z" />
    <glyph glyph-name="Nacute" unicode="&#x143;" horiz-adv-x="897" 
d="M205 1000l560 -854v436q0 109 -14 186.5t-37.5 126.5t-54 72t-62.5 23v10h270v-10q-32 0 -50.5 -14t-27.5 -46t-11.5 -83t-2.5 -125v-742h-10l-633 964v-526q0 -109 14 -186.5t37.5 -126.5t54 -72t62.5 -23v-10h-270v10q32 0 50.5 14t27.5 46t11.5 83t2.5 125v444
q0 74 -2.5 125t-11.5 83t-27.5 46t-50.5 14v10h175zM343 1080v10h32q32 0 50.5 13.5t31 29t23 29t28.5 13.5q14 0 21 -8t7 -19q0 -15 -11 -27.5t-28.5 -21.5t-38 -14t-39.5 -5h-76z" />
    <glyph glyph-name="nacute" unicode="&#x144;" horiz-adv-x="787" 
d="M30 0v10q32 0 50.5 14t27.5 46t11.5 83t2.5 125v152q0 74 -2.5 125t-11.5 83t-27.5 46t-50.5 14v10h114q31 0 68 3t73.5 7t69 7t53.5 3q33 0 79 -5.5t88 -27.5t71 -66.5t29 -123.5v-227q0 -74 2.5 -125t11.5 -83t27.5 -46t50.5 -14v-10h-270v10q32 0 50.5 14t27.5 46
t11.5 83t2.5 125v114q-1 42 -1 92q0 84 -25.5 130.5t-61.5 68.5t-74 26.5t-64 4.5q-38 0 -78.5 -8t-76.5 -21v-407q0 -74 2.5 -125t11.5 -83t27.5 -46t50.5 -14v-10h-270zM279 788v10h32q32 0 50.5 13.5t31 29t23 29t28.5 13.5q14 0 21 -8t7 -19q0 -15 -11 -27.5
t-28.5 -21.5t-38 -14t-39.5 -5h-76z" />
    <glyph glyph-name="uni0145" unicode="&#x145;" horiz-adv-x="897" 
d="M205 1000l560 -854v436q0 109 -14 186.5t-37.5 126.5t-54 72t-62.5 23v10h270v-10q-32 0 -50.5 -14t-27.5 -46t-11.5 -83t-2.5 -125v-742h-10l-633 964v-526q0 -109 14 -186.5t37.5 -126.5t54 -72t62.5 -23v-10h-270v10q32 0 50.5 14t27.5 46t11.5 83t2.5 125v444
q0 74 -2.5 125t-11.5 83t-27.5 46t-50.5 14v10h175zM163 -21q18 0 32 -14.5t14 -43.5q0 -33 -10 -53.5t-21 -31.5q-14 -13 -32 -19l-1 6q11 3 19.5 11t13.5 19.5t6.5 23.5t-1.5 23q-2 -2 -5 -4q-6 -4 -15 -4q-18 0 -31 12.5t-13 31.5q0 18 13 30.5t31 12.5z" />
    <glyph glyph-name="uni0146" unicode="&#x146;" horiz-adv-x="787" 
d="M30 0v10q32 0 50.5 14t27.5 46t11.5 83t2.5 125v152q0 74 -2.5 125t-11.5 83t-27.5 46t-50.5 14v10h114q31 0 68 3t73.5 7t69 7t53.5 3q33 0 79 -5.5t88 -27.5t71 -66.5t29 -123.5v-227q0 -74 2.5 -125t11.5 -83t27.5 -46t50.5 -14v-10h-270v10q32 0 50.5 14t27.5 46
t11.5 83t2.5 125v114q-1 42 -1 92q0 84 -25.5 130.5t-61.5 68.5t-74 26.5t-64 4.5q-38 0 -78.5 -8t-76.5 -21v-407q0 -74 2.5 -125t11.5 -83t27.5 -46t50.5 -14v-10h-270zM173 -21q18 0 32 -14.5t14 -43.5q0 -33 -10 -53.5t-21 -31.5q-14 -13 -32 -19l-1 6q11 3 19.5 11
t13.5 19.5t6.5 23.5t-1.5 23q-2 -2 -5 -4q-6 -4 -15 -4q-18 0 -31 12.5t-13 31.5q0 18 13 30.5t31 12.5z" />
    <glyph glyph-name="Ncaron" unicode="&#x147;" horiz-adv-x="897" 
d="M205 1000l560 -854v436q0 109 -14 186.5t-37.5 126.5t-54 72t-62.5 23v10h270v-10q-32 0 -50.5 -14t-27.5 -46t-11.5 -83t-2.5 -125v-742h-10l-633 964v-526q0 -109 14 -186.5t37.5 -126.5t54 -72t62.5 -23v-10h-270v10q32 0 50.5 14t27.5 46t11.5 83t2.5 125v444
q0 74 -2.5 125t-11.5 83t-27.5 46t-50.5 14v10h175zM439 1080l-110 86l6 10l107 -46l107 46l6 -10z" />
    <glyph glyph-name="ncaron" unicode="&#x148;" horiz-adv-x="787" 
d="M30 0v10q32 0 50.5 14t27.5 46t11.5 83t2.5 125v152q0 74 -2.5 125t-11.5 83t-27.5 46t-50.5 14v10h114q31 0 68 3t73.5 7t69 7t53.5 3q33 0 79 -5.5t88 -27.5t71 -66.5t29 -123.5v-227q0 -74 2.5 -125t11.5 -83t27.5 -46t50.5 -14v-10h-270v10q32 0 50.5 14t27.5 46
t11.5 83t2.5 125v114q-1 42 -1 92q0 84 -25.5 130.5t-61.5 68.5t-74 26.5t-64 4.5q-38 0 -78.5 -8t-76.5 -21v-407q0 -74 2.5 -125t11.5 -83t27.5 -46t50.5 -14v-10h-270zM375 788l-110 86l6 10l107 -46l107 46l6 -10z" />
    <glyph glyph-name="napostrophe" unicode="&#x149;" horiz-adv-x="787" 
d="M30 0v10q32 0 50.5 14t27.5 46t11.5 83t2.5 125v152q0 74 -2.5 125t-11.5 83t-27.5 46t-50.5 14v10h114q31 0 68 3t73.5 7t69 7t53.5 3q33 0 79 -5.5t88 -27.5t71 -66.5t29 -123.5v-227q0 -74 2.5 -125t11.5 -83t27.5 -46t50.5 -14v-10h-270v10q32 0 50.5 14t27.5 46
t11.5 83t2.5 125v114q-1 42 -1 92q0 84 -25.5 130.5t-61.5 68.5t-74 26.5t-64 4.5q-38 0 -78.5 -8t-76.5 -21v-407q0 -74 2.5 -125t11.5 -83t27.5 -46t50.5 -14v-10h-270zM-50 708q18 0 32 -14.5t14 -43.5q0 -33 -10 -53.5t-21 -31.5q-14 -13 -32 -19l-1 6q11 3 19.5 11
t13.5 19.5t6.5 23.5t-1.5 23q-2 -2 -5 -4q-6 -4 -15 -4q-18 0 -31 12.5t-13 31.5q0 18 13 30.5t31 12.5z" />
    <glyph glyph-name="Eng" unicode="&#x14a;" horiz-adv-x="963" 
d="M30 10q32 0 50.5 14t27.5 46t11.5 83t2.5 125v444q0 74 -2.5 125t-11.5 83t-27.5 46t-50.5 14v10h175l560 -854v576q0 74 -2.5 125t-11.5 83t-27.5 46t-50.5 14v10h270v-10q-32 0 -50.5 -14t-27.5 -46t-11.5 -83t-2.5 -125v-653q0 -54 -16 -104t-45.5 -89t-70 -62.5
t-88.5 -23.5q-12 0 -19 1t-16 3l2 10q3 0 6 -1h10q60 0 97 51t49 134l-628 956v-526q0 -109 14 -186.5t37.5 -126.5t54 -72t62.5 -23v-10h-270v10z" />
    <glyph glyph-name="eng" unicode="&#x14b;" horiz-adv-x="787" 
d="M30 698v10h114q31 0 68 3t73.5 7t69 7t53.5 3q33 0 79.5 -5.5t88.5 -27.5t71 -66.5t28 -123.5l-1 -104v-619q0 -38 -11 -77t-33.5 -70.5t-55.5 -51t-77 -19.5q-26 0 -44 6t-32 16l7 10q23 -18 58 -18q34 0 54.5 19.5t31 48t13.5 61.5t3 60v663v54q0 84 -25.5 130.5
t-61.5 68.5t-74 26.5t-64 4.5q-38 0 -78.5 -8t-76.5 -21v-407q0 -74 2.5 -125t11.5 -83t27.5 -46t50.5 -14v-10h-270v10q32 0 50.5 14t27.5 46t11.5 83t2.5 125v152q0 74 -2.5 125t-11.5 83t-27.5 46t-50.5 14z" />
    <glyph glyph-name="Omacron" unicode="&#x14c;" horiz-adv-x="1010" 
d="M60 500q0 113 34.5 208t94.5 164.5t141.5 108.5t174.5 39t174.5 -39t141.5 -108.5t94.5 -164.5t34.5 -208q0 -112 -34.5 -207.5t-94.5 -165t-141.5 -108.5t-174.5 -39t-174.5 39t-141.5 108.5t-94.5 165t-34.5 207.5zM150 500q0 -109 28.5 -202.5t77 -161t113 -106
t136.5 -38.5t136.5 38.5t113 106t77 161t28.5 202.5q0 110 -26.5 203t-73.5 160.5t-112 106t-143 38.5t-143 -38.5t-112 -106t-73.5 -160.5t-26.5 -203zM397 1102h215v-22h-215v22z" />
    <glyph glyph-name="omacron" unicode="&#x14d;" horiz-adv-x="808" 
d="M403 728q81 0 145 -29.5t108.5 -80.5t68 -119t23.5 -145t-23.5 -145t-68 -119t-108.5 -80.5t-145 -29.5t-144.5 29.5t-107.5 80.5t-67.5 119t-23.5 145t23.5 145t67.5 119t107.5 80.5t144.5 29.5zM145 354q0 -82 18.5 -149t52.5 -114.5t81.5 -73t105.5 -25.5t106 25.5
t82 73t53 114.5t19 149q0 83 -19 149.5t-53 114t-82 73t-106 25.5t-105.5 -25.5t-81.5 -73t-52.5 -114t-18.5 -149.5zM296 810h215v-22h-215v22z" />
    <glyph glyph-name="Obreve" unicode="&#x14e;" horiz-adv-x="1010" 
d="M60 500q0 113 34.5 208t94.5 164.5t141.5 108.5t174.5 39t174.5 -39t141.5 -108.5t94.5 -164.5t34.5 -208q0 -112 -34.5 -207.5t-94.5 -165t-141.5 -108.5t-174.5 -39t-174.5 39t-141.5 108.5t-94.5 165t-34.5 207.5zM150 500q0 -109 28.5 -202.5t77 -161t113 -106
t136.5 -38.5t136.5 38.5t113 106t77 161t28.5 202.5q0 110 -26.5 203t-73.5 160.5t-112 106t-143 38.5t-143 -38.5t-112 -106t-73.5 -160.5t-26.5 -203zM404 1166q16 -26 41.5 -41t59.5 -15t59.5 15t41.5 41h9q-7 -36 -37.5 -61t-72.5 -25q-41 0 -72 25t-38 61h9z" />
    <glyph glyph-name="obreve" unicode="&#x14f;" horiz-adv-x="808" 
d="M403 728q81 0 145 -29.5t108.5 -80.5t68 -119t23.5 -145t-23.5 -145t-68 -119t-108.5 -80.5t-145 -29.5t-144.5 29.5t-107.5 80.5t-67.5 119t-23.5 145t23.5 145t67.5 119t107.5 80.5t144.5 29.5zM145 354q0 -82 18.5 -149t52.5 -114.5t81.5 -73t105.5 -25.5t106 25.5
t82 73t53 114.5t19 149q0 83 -19 149.5t-53 114t-82 73t-106 25.5t-105.5 -25.5t-81.5 -73t-52.5 -114t-18.5 -149.5zM302 874q16 -26 41.5 -41t59.5 -15t59.5 15t41.5 41h9q-7 -36 -37.5 -61t-72.5 -25q-41 0 -72 25t-38 61h9z" />
    <glyph glyph-name="Ohungarumlaut" unicode="&#x150;" horiz-adv-x="1010" 
d="M60 500q0 113 34.5 208t94.5 164.5t141.5 108.5t174.5 39t174.5 -39t141.5 -108.5t94.5 -164.5t34.5 -208q0 -112 -34.5 -207.5t-94.5 -165t-141.5 -108.5t-174.5 -39t-174.5 39t-141.5 108.5t-94.5 165t-34.5 207.5zM150 500q0 -109 28.5 -202.5t77 -161t113 -106
t136.5 -38.5t136.5 38.5t113 106t77 161t28.5 202.5q0 110 -26.5 203t-73.5 160.5t-112 106t-143 38.5t-143 -38.5t-112 -106t-73.5 -160.5t-26.5 -203zM544 1088q20 0 27.5 15t12 33.5t10.5 33.5t24 15q21 0 21 -23q0 -12 -8.5 -26.5t-21.5 -26.5t-29.5 -20.5t-32.5 -8.5
h-14v8h11zM443 1088q20 0 27.5 15t12 33.5t10.5 33.5t24 15q21 0 21 -23q0 -12 -8.5 -26.5t-21.5 -26.5t-29.5 -20.5t-32.5 -8.5h-14v8h11z" />
    <glyph glyph-name="ohungarumlaut" unicode="&#x151;" horiz-adv-x="808" 
d="M403 728q81 0 145 -29.5t108.5 -80.5t68 -119t23.5 -145t-23.5 -145t-68 -119t-108.5 -80.5t-145 -29.5t-144.5 29.5t-107.5 80.5t-67.5 119t-23.5 145t23.5 145t67.5 119t107.5 80.5t144.5 29.5zM145 354q0 -82 18.5 -149t52.5 -114.5t81.5 -73t105.5 -25.5t106 25.5
t82 73t53 114.5t19 149q0 83 -19 149.5t-53 114t-82 73t-106 25.5t-105.5 -25.5t-81.5 -73t-52.5 -114t-18.5 -149.5zM443 796q20 0 27.5 15t12 33.5t10.5 33.5t24 15q21 0 21 -23q0 -12 -8.5 -26.5t-21.5 -26.5t-29.5 -20.5t-32.5 -8.5h-14v8h11zM342 796q20 0 27.5 15
t12 33.5t10.5 33.5t24 15q21 0 21 -23q0 -12 -8.5 -26.5t-21.5 -26.5t-29.5 -20.5t-32.5 -8.5h-14v8h11z" />
    <glyph glyph-name="OE" unicode="&#x152;" horiz-adv-x="1197" 
d="M30 500q0 113 32 205t88.5 157.5t133.5 101.5t167 36h716v-135h-10v4q0 51 -94 86t-268 35h-166v-430q23 22 52 34t64 12q37 0 67 -9.5t58 -21.5t56 -21.5t61 -9.5q29 0 51.5 15.5t22.5 41.5h10q0 -45 -34 -77.5t-94 -32.5q-46 0 -79.5 13.5t-61.5 29.5t-52 30t-51 15
q-22 1 -40 -9t-30 -26v-534h128q24 0 62.5 1.5t83 6.5t90 15.5t82 27.5t59.5 42.5t23 61.5h10v-165h-716q-90 0 -167 36t-133.5 101.5t-88.5 158t-32 204.5zM117 500q0 -109 26 -199.5t71 -155t106 -100t131 -35.5q32 0 50.5 14t27.5 46t11.5 83t2.5 125v444q0 74 -2.5 125
t-11.5 83t-27.5 46t-50.5 14q-70 0 -131 -35.5t-106 -100t-71 -154.5t-26 -200z" />
    <glyph glyph-name="oe" unicode="&#x153;" horiz-adv-x="1354" 
d="M373 728q60 0 111.5 -17t92 -47t70.5 -72t47 -93q17 51 46.5 93t70 72t92 47t111.5 17q81 0 136 -24.5t89.5 -61.5t49.5 -79t15 -78q0 -48 -19.5 -80t-49 -51t-65 -27t-68.5 -8q-42 0 -80.5 13t-73.5 29t-66.5 29t-60.5 13q-18 0 -27.5 -7t-11.5 -13l-4 1q0 31 27.5 51
t62.5 20q31 0 62.5 -18.5t65.5 -40.5t72 -40.5t83 -18.5q51 0 79.5 31t28.5 86q0 40 -17 83t-52.5 79t-90 59.5t-129.5 23.5q-34 0 -78.5 -12t-84 -40.5t-66.5 -76.5t-27 -119q0 -99 32 -176.5t83.5 -131t115.5 -82t127 -28.5q30 0 64 6t66.5 22.5t61 46.5t46.5 78l14 -6
q-39 -90 -118.5 -145t-191.5 -55q-60 0 -111.5 17t-92 47.5t-70 72.5t-46.5 92q-17 -50 -47 -92t-70.5 -72.5t-92 -47.5t-111.5 -17q-81 0 -144.5 29.5t-107.5 80.5t-67.5 119t-23.5 145t23.5 145t67.5 119t107.5 80.5t144.5 29.5zM373 -8q58 0 106 25.5t82 73t53 114.5
t19 149q0 83 -19 149.5t-53 114t-82 73t-106 25.5t-105.5 -25.5t-81.5 -73t-52.5 -114t-18.5 -149.5q0 -82 18.5 -149t52.5 -114.5t81.5 -73t105.5 -25.5zM293 490q0 55 27.5 96t81.5 55l3 -10q-8 0 -18.5 -5t-19.5 -15t-15 -24.5t-6 -34.5q0 -40 15 -77t33 -74t33 -75.5
t15 -82.5q0 -51 -27.5 -91t-81.5 -54l-3 10q8 0 18.5 5t19.5 15t15 25t6 34q0 38 -15 75t-33 74.5t-33 76t-15 77.5z" />
    <glyph glyph-name="Racute" unicode="&#x154;" horiz-adv-x="872" 
d="M30 990v10h120q41 0 76.5 3t70 7t71 7t79.5 3q80 0 142 -21t104 -58.5t64 -89t22 -112.5q0 -51 -20 -98.5t-57.5 -83.5t-90.5 -57.5t-118 -21.5q-35 0 -65 10t-54.5 22t-44.5 22t-36 10q-9 0 -19 -4.5t-10 -21.5q0 -24 34 -41.5t81 -38t96.5 -49.5t80.5 -76
q30 -46 62.5 -99t68 -98t74 -74.5t81.5 -29.5v-10h-153q-17 0 -33.5 13.5t-40.5 47.5t-61.5 92t-96.5 147q-36 55 -72.5 86t-65.5 52t-47 38t-18 42q0 18 10.5 26t24.5 8q22 0 42.5 -9t43.5 -19.5t50 -19.5t62 -9q47 0 85 21t65 55.5t41.5 78t14.5 88.5q0 62 -21 112
t-60.5 84.5t-95.5 53t-126 18.5q-56 0 -96.5 -7.5t-86.5 -24.5v-696q0 -74 2.5 -125t11.5 -83t27.5 -46t50.5 -14v-10h-269v10q32 0 50.5 14t27.5 46t11.5 83t2.5 125v444q0 74 -2.5 125t-11.5 83t-27.5 46t-50.5 14zM262 1080v10h32q32 0 50.5 13.5t31 29t23 29t28.5 13.5
q14 0 21 -8t7 -19q0 -15 -11 -27.5t-28.5 -21.5t-38 -14t-39.5 -5h-76z" />
    <glyph glyph-name="racute" unicode="&#x155;" horiz-adv-x="676" 
d="M146 708q87 0 179 10t176 10q67 0 111 -32t44 -90q0 -40 -21.5 -68.5t-64.5 -28.5q-21 0 -38 12.5t-17 33.5q21 1 37.5 22.5t16.5 52.5q0 35 -26.5 59.5t-80.5 24.5q-23 0 -57.5 -2t-71 -5.5t-70.5 -9t-55 -12.5v-407q0 -74 2.5 -125t11.5 -83t27.5 -46t50.5 -14v-10
h-270v10q32 0 50.5 14t27.5 46t11.5 83t2.5 125v152q0 74 -2.5 125t-11.5 83t-27.5 46t-50.5 14v10h116zM242 788v10h32q32 0 50.5 13.5t31 29t23 29t28.5 13.5q14 0 21 -8t7 -19q0 -15 -11 -27.5t-28.5 -21.5t-38 -14t-39.5 -5h-76z" />
    <glyph glyph-name="uni0156" unicode="&#x156;" horiz-adv-x="872" 
d="M30 990v10h120q41 0 76.5 3t70 7t71 7t79.5 3q80 0 142 -21t104 -58.5t64 -89t22 -112.5q0 -51 -20 -98.5t-57.5 -83.5t-90.5 -57.5t-118 -21.5q-35 0 -65 10t-54.5 22t-44.5 22t-36 10q-9 0 -19 -4.5t-10 -21.5q0 -24 34 -41.5t81 -38t96.5 -49.5t80.5 -76
q30 -46 62.5 -99t68 -98t74 -74.5t81.5 -29.5v-10h-153q-17 0 -33.5 13.5t-40.5 47.5t-61.5 92t-96.5 147q-36 55 -72.5 86t-65.5 52t-47 38t-18 42q0 18 10.5 26t24.5 8q22 0 42.5 -9t43.5 -19.5t50 -19.5t62 -9q47 0 85 21t65 55.5t41.5 78t14.5 88.5q0 62 -21 112
t-60.5 84.5t-95.5 53t-126 18.5q-56 0 -96.5 -7.5t-86.5 -24.5v-696q0 -74 2.5 -125t11.5 -83t27.5 -46t50.5 -14v-10h-269v10q32 0 50.5 14t27.5 46t11.5 83t2.5 125v444q0 74 -2.5 125t-11.5 83t-27.5 46t-50.5 14zM163 -21q18 0 32 -14.5t14 -43.5q0 -33 -10 -53.5
t-21 -31.5q-14 -13 -32 -19l-1 6q11 3 19.5 11t13.5 19.5t6.5 23.5t-1.5 23q-2 -2 -5 -4q-6 -4 -15 -4q-18 0 -31 12.5t-13 31.5q0 18 13 30.5t31 12.5z" />
    <glyph glyph-name="uni0157" unicode="&#x157;" horiz-adv-x="676" 
d="M146 708q87 0 179 10t176 10q67 0 111 -32t44 -90q0 -40 -21.5 -68.5t-64.5 -28.5q-21 0 -38 12.5t-17 33.5q21 1 37.5 22.5t16.5 52.5q0 35 -26.5 59.5t-80.5 24.5q-23 0 -57.5 -2t-71 -5.5t-70.5 -9t-55 -12.5v-407q0 -74 2.5 -125t11.5 -83t27.5 -46t50.5 -14v-10
h-270v10q32 0 50.5 14t27.5 46t11.5 83t2.5 125v152q0 74 -2.5 125t-11.5 83t-27.5 46t-50.5 14v10h116zM176 -21q18 0 32 -14.5t14 -43.5q0 -33 -10 -53.5t-21 -31.5q-14 -13 -32 -19l-1 6q11 3 19.5 11t13.5 19.5t6.5 23.5t-1.5 23q-2 -2 -5 -4q-6 -4 -15 -4
q-18 0 -31 12.5t-13 31.5q0 18 13 30.5t31 12.5z" />
    <glyph glyph-name="Rcaron" unicode="&#x158;" horiz-adv-x="872" 
d="M30 990v10h120q41 0 76.5 3t70 7t71 7t79.5 3q80 0 142 -21t104 -58.5t64 -89t22 -112.5q0 -51 -20 -98.5t-57.5 -83.5t-90.5 -57.5t-118 -21.5q-35 0 -65 10t-54.5 22t-44.5 22t-36 10q-9 0 -19 -4.5t-10 -21.5q0 -24 34 -41.5t81 -38t96.5 -49.5t80.5 -76
q30 -46 62.5 -99t68 -98t74 -74.5t81.5 -29.5v-10h-153q-17 0 -33.5 13.5t-40.5 47.5t-61.5 92t-96.5 147q-36 55 -72.5 86t-65.5 52t-47 38t-18 42q0 18 10.5 26t24.5 8q22 0 42.5 -9t43.5 -19.5t50 -19.5t62 -9q47 0 85 21t65 55.5t41.5 78t14.5 88.5q0 62 -21 112
t-60.5 84.5t-95.5 53t-126 18.5q-56 0 -96.5 -7.5t-86.5 -24.5v-696q0 -74 2.5 -125t11.5 -83t27.5 -46t50.5 -14v-10h-269v10q32 0 50.5 14t27.5 46t11.5 83t2.5 125v444q0 74 -2.5 125t-11.5 83t-27.5 46t-50.5 14zM358 1080l-110 86l6 10l107 -46l107 46l6 -10z" />
    <glyph glyph-name="rcaron" unicode="&#x159;" horiz-adv-x="676" 
d="M146 708q87 0 179 10t176 10q67 0 111 -32t44 -90q0 -40 -21.5 -68.5t-64.5 -28.5q-21 0 -38 12.5t-17 33.5q21 1 37.5 22.5t16.5 52.5q0 35 -26.5 59.5t-80.5 24.5q-23 0 -57.5 -2t-71 -5.5t-70.5 -9t-55 -12.5v-407q0 -74 2.5 -125t11.5 -83t27.5 -46t50.5 -14v-10
h-270v10q32 0 50.5 14t27.5 46t11.5 83t2.5 125v152q0 74 -2.5 125t-11.5 83t-27.5 46t-50.5 14v10h116zM338 788l-110 86l6 10l107 -46l107 46l6 -10z" />
    <glyph glyph-name="Sacute" unicode="&#x15a;" horiz-adv-x="822" 
d="M60 760q0 52 23.5 99t69 83t112 57t153.5 21q93 0 160 -13t125 -33v-134h-10q-20 47 -57 84q-32 32 -84.5 58t-133.5 26q-70 0 -123.5 -19.5t-90 -51t-55.5 -71.5t-19 -82q0 -51 27 -87t71.5 -62t101.5 -46t116 -40t116 -43.5t101.5 -57t71.5 -79.5t27 -112
q0 -52 -26 -102t-75 -89t-118 -62.5t-156 -23.5q-49 0 -95.5 11.5t-87.5 29t-76.5 39t-63.5 42.5v134h10q40 -67 95 -119q24 -22 53 -43.5t63 -38t73.5 -27t84.5 -10.5q55 0 102.5 18.5t83 49t55.5 69.5t20 81q0 56 -27.5 96t-73 69.5t-103.5 52t-118 44t-118 45.5
t-103.5 56t-73 76t-27.5 105zM315 1080v10h32q32 0 50.5 13.5t31 29t23 29t28.5 13.5q14 0 21 -8t7 -19q0 -15 -11 -27.5t-28.5 -21.5t-38 -14t-39.5 -5h-76z" />
    <glyph glyph-name="sacute" unicode="&#x15b;" horiz-adv-x="670" 
d="M70 163q0 -18 15.5 -47.5t46.5 -58t76 -48.5t104 -19q41 1 80 13t69.5 35t49 56.5t18.5 76.5q0 53 -33.5 82t-84.5 48.5t-109.5 35t-109.5 40.5t-84.5 66t-33.5 111q0 35 15.5 66.5t46.5 55.5t77 38t107 14q64 0 110.5 -10.5t76.5 -24.5q36 -15 61 -35v-118h-4
q-29 87 -91 132.5t-143 45.5q-47 0 -84 -12t-62.5 -32.5t-38.5 -46.5t-13 -54q0 -52 35.5 -81.5t88.5 -49.5t115 -37t115 -43t88.5 -67.5t35.5 -110.5q0 -55 -25 -94t-66 -63.5t-95 -35.5t-112 -11q-157 0 -252 61v122h10zM233 788v10h32q32 0 50.5 13.5t31 29t23 29
t28.5 13.5q14 0 21 -8t7 -19q0 -15 -11 -27.5t-28.5 -21.5t-38 -14t-39.5 -5h-76z" />
    <glyph glyph-name="Scircumflex" unicode="&#x15c;" horiz-adv-x="822" 
d="M60 760q0 52 23.5 99t69 83t112 57t153.5 21q93 0 160 -13t125 -33v-134h-10q-20 47 -57 84q-32 32 -84.5 58t-133.5 26q-70 0 -123.5 -19.5t-90 -51t-55.5 -71.5t-19 -82q0 -51 27 -87t71.5 -62t101.5 -46t116 -40t116 -43.5t101.5 -57t71.5 -79.5t27 -112
q0 -52 -26 -102t-75 -89t-118 -62.5t-156 -23.5q-49 0 -95.5 11.5t-87.5 29t-76.5 39t-63.5 42.5v134h10q40 -67 95 -119q24 -22 53 -43.5t63 -38t73.5 -27t84.5 -10.5q55 0 102.5 18.5t83 49t55.5 69.5t20 81q0 56 -27.5 96t-73 69.5t-103.5 52t-118 44t-118 45.5
t-103.5 56t-73 76t-27.5 105zM411 1176l116 -86l-6 -10l-107 46l-107 -46l-6 10z" />
    <glyph glyph-name="scircumflex" unicode="&#x15d;" horiz-adv-x="670" 
d="M70 163q0 -18 15.5 -47.5t46.5 -58t76 -48.5t104 -19q41 1 80 13t69.5 35t49 56.5t18.5 76.5q0 53 -33.5 82t-84.5 48.5t-109.5 35t-109.5 40.5t-84.5 66t-33.5 111q0 35 15.5 66.5t46.5 55.5t77 38t107 14q64 0 110.5 -10.5t76.5 -24.5q36 -15 61 -35v-118h-4
q-29 87 -91 132.5t-143 45.5q-47 0 -84 -12t-62.5 -32.5t-38.5 -46.5t-13 -54q0 -52 35.5 -81.5t88.5 -49.5t115 -37t115 -43t88.5 -67.5t35.5 -110.5q0 -55 -25 -94t-66 -63.5t-95 -35.5t-112 -11q-157 0 -252 61v122h10zM327 884l116 -86l-6 -10l-107 46l-107 -46l-6 10z
" />
    <glyph glyph-name="Scedilla" unicode="&#x15e;" horiz-adv-x="822" 
d="M60 760q0 52 23.5 99t69 83t112 57t153.5 21q93 0 160 -13t125 -33v-134h-10q-20 47 -57 84q-32 32 -84.5 58t-133.5 26q-70 0 -123.5 -19.5t-90 -51t-55.5 -71.5t-19 -82q0 -51 27 -87t71.5 -62t101.5 -46t116 -40t116 -43.5t101.5 -57t71.5 -79.5t27 -112
q0 -52 -26 -102t-75 -89t-118 -62.5t-156 -23.5q-49 0 -95.5 11.5t-87.5 29t-76.5 39t-63.5 42.5v134h10q40 -67 95 -119q24 -22 53 -43.5t63 -38t73.5 -27t84.5 -10.5q55 0 102.5 18.5t83 49t55.5 69.5t20 81q0 56 -27.5 96t-73 69.5t-103.5 52t-118 44t-118 45.5
t-103.5 56t-73 76t-27.5 105zM334 -196l4 8q8 -6 23 -6q28 0 44 18t20 39.5t-5 39.5t-30 18q-11 0 -19.5 -4.5t-14.5 -9.5l-8 12l38 70h10l-38 -70q19 14 41 14q35 0 50.5 -22t12 -48t-27 -48t-67.5 -22q-20 0 -33 11z" />
    <glyph glyph-name="scedilla" unicode="&#x15f;" horiz-adv-x="670" 
d="M70 163q0 -18 15.5 -47.5t46.5 -58t76 -48.5t104 -19q41 1 80 13t69.5 35t49 56.5t18.5 76.5q0 53 -33.5 82t-84.5 48.5t-109.5 35t-109.5 40.5t-84.5 66t-33.5 111q0 35 15.5 66.5t46.5 55.5t77 38t107 14q64 0 110.5 -10.5t76.5 -24.5q36 -15 61 -35v-118h-4
q-29 87 -91 132.5t-143 45.5q-47 0 -84 -12t-62.5 -32.5t-38.5 -46.5t-13 -54q0 -52 35.5 -81.5t88.5 -49.5t115 -37t115 -43t88.5 -67.5t35.5 -110.5q0 -55 -25 -94t-66 -63.5t-95 -35.5t-112 -11q-157 0 -252 61v122h10zM259 -196l4 8q8 -6 23 -6q28 0 44 18t20 39.5
t-5 39.5t-30 18q-11 0 -19.5 -4.5t-14.5 -9.5l-8 12l38 70h10l-38 -70q19 14 41 14q35 0 50.5 -22t12 -48t-27 -48t-67.5 -22q-20 0 -33 11z" />
    <glyph glyph-name="Scaron" unicode="&#x160;" horiz-adv-x="822" 
d="M60 760q0 52 23.5 99t69 83t112 57t153.5 21q93 0 160 -13t125 -33v-134h-10q-20 47 -57 84q-32 32 -84.5 58t-133.5 26q-70 0 -123.5 -19.5t-90 -51t-55.5 -71.5t-19 -82q0 -51 27 -87t71.5 -62t101.5 -46t116 -40t116 -43.5t101.5 -57t71.5 -79.5t27 -112
q0 -52 -26 -102t-75 -89t-118 -62.5t-156 -23.5q-49 0 -95.5 11.5t-87.5 29t-76.5 39t-63.5 42.5v134h10q40 -67 95 -119q24 -22 53 -43.5t63 -38t73.5 -27t84.5 -10.5q55 0 102.5 18.5t83 49t55.5 69.5t20 81q0 56 -27.5 96t-73 69.5t-103.5 52t-118 44t-118 45.5
t-103.5 56t-73 76t-27.5 105zM413 1080l-110 86l6 10l107 -46l107 46l6 -10z" />
    <glyph glyph-name="scaron" unicode="&#x161;" horiz-adv-x="670" 
d="M70 163q0 -18 15.5 -47.5t46.5 -58t76 -48.5t104 -19q41 1 80 13t69.5 35t49 56.5t18.5 76.5q0 53 -33.5 82t-84.5 48.5t-109.5 35t-109.5 40.5t-84.5 66t-33.5 111q0 35 15.5 66.5t46.5 55.5t77 38t107 14q64 0 110.5 -10.5t76.5 -24.5q36 -15 61 -35v-118h-4
q-29 87 -91 132.5t-143 45.5q-47 0 -84 -12t-62.5 -32.5t-38.5 -46.5t-13 -54q0 -52 35.5 -81.5t88.5 -49.5t115 -37t115 -43t88.5 -67.5t35.5 -110.5q0 -55 -25 -94t-66 -63.5t-95 -35.5t-112 -11q-157 0 -252 61v122h10zM329 788l-110 86l6 10l107 -46l107 46l6 -10z" />
    <glyph glyph-name="uni0162" unicode="&#x162;" horiz-adv-x="759" 
d="M30 865v135h699v-135h-10q0 2 0.5 1.5t0.5 2.5q0 25 -22.5 47t-62 38.5t-94 26t-119.5 9.5v-712q0 -74 1 -125t8.5 -83t25 -46t49.5 -14v-10h-261v10q32 0 50.5 14t27.5 46t11.5 83t2.5 125v712q-64 0 -119 -9.5t-94.5 -26t-62 -38.5t-22.5 -47q0 -3 0.5 -2.5t0.5 -1.5
h-10zM379 -21q18 0 32 -14.5t14 -43.5q0 -33 -10 -53.5t-21 -31.5q-14 -13 -32 -19l-1 6q11 3 19.5 11t13.5 19.5t6.5 23.5t-1.5 23q-2 -2 -5 -4q-6 -4 -15 -4q-18 0 -31 12.5t-13 31.5q0 18 13 30.5t31 12.5z" />
    <glyph glyph-name="uni0163" unicode="&#x163;" horiz-adv-x="318" 
d="M20 708q42 0 70.5 13t47 34.5t29 48t15 53.5t5.5 51.5t1 41.5h10v-242h76v-10h-76v-480q0 -58 -0.5 -98.5t2 -65t9.5 -35.5t21 -11q12 0 22.5 7.5t18.5 16.5q9 10 17 23l10 -5q-20 -32 -46 -51t-64 -19q-43 0 -59.5 31t-16.5 81v606h-92v10zM190 -41q18 0 32 -14.5
t14 -43.5q0 -33 -10 -53.5t-21 -31.5q-14 -13 -32 -19l-1 6q11 3 19.5 11t13.5 19.5t6.5 23.5t-1.5 23q-2 -2 -5 -4q-6 -4 -15 -4q-18 0 -31 12.5t-13 31.5q0 18 13 30.5t31 12.5z" />
    <glyph glyph-name="Tcaron" unicode="&#x164;" horiz-adv-x="759" 
d="M30 865v135h699v-135h-10q0 2 0.5 1.5t0.5 2.5q0 25 -22.5 47t-62 38.5t-94 26t-119.5 9.5v-712q0 -74 1 -125t8.5 -83t25 -46t49.5 -14v-10h-261v10q32 0 50.5 14t27.5 46t11.5 83t2.5 125v712q-64 0 -119 -9.5t-94.5 -26t-62 -38.5t-22.5 -47q0 -3 0.5 -2.5t0.5 -1.5
h-10zM379 1080l-110 86l6 10l107 -46l107 46l6 -10z" />
    <glyph glyph-name="tcaron" unicode="&#x165;" horiz-adv-x="318" 
d="M20 708q42 0 70.5 13t47 34.5t29 48t15 53.5t5.5 51.5t1 41.5h10v-242h76v-10h-76v-480q0 -58 -0.5 -98.5t2 -65t9.5 -35.5t21 -11q12 0 22.5 7.5t18.5 16.5q9 10 17 23l10 -5q-20 -32 -46 -51t-64 -19q-43 0 -59.5 31t-16.5 81v606h-92v10zM284 951q18 0 32 -14.5
t14 -43.5q0 -33 -10 -53.5t-21 -31.5q-14 -13 -32 -19l-1 6q11 3 19.5 11t13.5 19.5t6.5 23.5t-1.5 23q-2 -2 -5 -4q-6 -4 -15 -4q-18 0 -31 12.5t-13 31.5q0 18 13 30.5t31 12.5z" />
    <glyph glyph-name="Tbar" unicode="&#x166;" horiz-adv-x="759" 
d="M729 1000v-135h-10q0 2 0.5 1.5t0.5 2.5q0 25 -22.5 47t-62 38.5t-94 26t-119.5 9.5v-240h139v-22h-139v-450q0 -74 1 -125t8.5 -83t25 -46t49.5 -14v-10h-261v10q32 0 50.5 14t27.5 46t11.5 83t2.5 125v450h-131v22h131v240q-64 0 -119 -9.5t-94.5 -26t-62 -38.5
t-22.5 -47q0 -3 0.5 -2.5t0.5 -1.5h-10v135h699z" />
    <glyph glyph-name="tbar" unicode="&#x167;" horiz-adv-x="318" 
d="M20 698v10q42 0 70.5 13t47 34.5t29 48t15 53.5t5.5 51.5t1 41.5h10v-242h76v-10h-76v-69h72v-22h-72v-389q0 -58 -0.5 -98.5t2 -65t9.5 -35.5t21 -11q12 0 22.5 7.5t18.5 16.5q9 10 17 23l10 -5q-20 -32 -46 -51t-64 -19q-43 0 -59.5 31t-16.5 81v515h-90v22h90v69h-92z
" />
    <glyph glyph-name="Utilde" unicode="&#x168;" horiz-adv-x="916" 
d="M30 1000h270v-10q-32 0 -50.5 -14t-27.5 -46t-11.5 -83t-2.5 -125v-444q0 -73 19.5 -127t53.5 -90t80 -53.5t99 -17.5t98.5 18t78.5 54t52 90t19 126v444q0 74 -2.5 125t-11.5 83t-27.5 46t-50.5 14v10h270v-10q-32 0 -50.5 -14t-27.5 -46t-11.5 -83t-2.5 -125v-444
q0 -75 -26.5 -131t-71.5 -93t-106 -55.5t-130 -18.5t-130.5 18t-107.5 55t-73 93t-27 132v444q0 74 -2.5 125t-11.5 83t-27.5 46t-50.5 14v10zM340 1095q3 11 19.5 27t46.5 16q18 0 32 -4.5t27.5 -9.5t27 -9.5t30.5 -4.5t26.5 3t14.5 7q6 4 8 10l6 -3q-6 -21 -24.5 -34
t-45.5 -13q-16 0 -29 4.5t-26.5 10t-28.5 10t-36 4.5q-31 0 -43 -17z" />
    <glyph glyph-name="utilde" unicode="&#x169;" horiz-adv-x="777" 
d="M198 708v-29.5v-58.5t0.5 -78t0.5 -87v-231q0 -84 25.5 -130.5t61.5 -68.5t74.5 -26.5t63.5 -4.5q38 0 78.5 8t76.5 21v407q0 74 -2.5 125t-11.5 83t-27.5 46t-50.5 14v10h178v-430q0 -74 2.5 -125t11.5 -83t27.5 -46t50.5 -14v-10h-114q-31 0 -68 -3t-73.5 -7t-69 -7
t-53.5 -3q-33 0 -79 5.5t-88 27.5t-71 66.5t-29 123.5v227q0 74 -2.5 125t-11.5 83t-27.5 46t-50.5 14v10h178zM249 803q3 11 19.5 27t46.5 16q18 0 32 -4.5t27.5 -9.5t27 -9.5t30.5 -4.5t26.5 3t14.5 7q6 4 8 10l6 -3q-6 -21 -24.5 -34t-45.5 -13q-16 0 -29 4.5t-26.5 10
t-28.5 10t-36 4.5q-31 0 -43 -17z" />
    <glyph glyph-name="Umacron" unicode="&#x16a;" horiz-adv-x="916" 
d="M30 1000h270v-10q-32 0 -50.5 -14t-27.5 -46t-11.5 -83t-2.5 -125v-444q0 -73 19.5 -127t53.5 -90t80 -53.5t99 -17.5t98.5 18t78.5 54t52 90t19 126v444q0 74 -2.5 125t-11.5 83t-27.5 46t-50.5 14v10h270v-10q-32 0 -50.5 -14t-27.5 -46t-11.5 -83t-2.5 -125v-444
q0 -75 -26.5 -131t-71.5 -93t-106 -55.5t-130 -18.5t-130.5 18t-107.5 55t-73 93t-27 132v444q0 74 -2.5 125t-11.5 83t-27.5 46t-50.5 14v10zM351 1102h215v-22h-215v22z" />
    <glyph glyph-name="umacron" unicode="&#x16b;" horiz-adv-x="777" 
d="M198 708v-29.5v-58.5t0.5 -78t0.5 -87v-231q0 -84 25.5 -130.5t61.5 -68.5t74.5 -26.5t63.5 -4.5q38 0 78.5 8t76.5 21v407q0 74 -2.5 125t-11.5 83t-27.5 46t-50.5 14v10h178v-430q0 -74 2.5 -125t11.5 -83t27.5 -46t50.5 -14v-10h-114q-31 0 -68 -3t-73.5 -7t-69 -7
t-53.5 -3q-33 0 -79 5.5t-88 27.5t-71 66.5t-29 123.5v227q0 74 -2.5 125t-11.5 83t-27.5 46t-50.5 14v10h178zM260 810h215v-22h-215v22z" />
    <glyph glyph-name="Ubreve" unicode="&#x16c;" horiz-adv-x="916" 
d="M30 1000h270v-10q-32 0 -50.5 -14t-27.5 -46t-11.5 -83t-2.5 -125v-444q0 -73 19.5 -127t53.5 -90t80 -53.5t99 -17.5t98.5 18t78.5 54t52 90t19 126v444q0 74 -2.5 125t-11.5 83t-27.5 46t-50.5 14v10h270v-10q-32 0 -50.5 -14t-27.5 -46t-11.5 -83t-2.5 -125v-444
q0 -75 -26.5 -131t-71.5 -93t-106 -55.5t-130 -18.5t-130.5 18t-107.5 55t-73 93t-27 132v444q0 74 -2.5 125t-11.5 83t-27.5 46t-50.5 14v10zM358 1166q16 -26 41.5 -41t59.5 -15t59.5 15t41.5 41h9q-7 -36 -37.5 -61t-72.5 -25q-41 0 -72 25t-38 61h9z" />
    <glyph glyph-name="ubreve" unicode="&#x16d;" horiz-adv-x="777" 
d="M198 708v-29.5v-58.5t0.5 -78t0.5 -87v-231q0 -84 25.5 -130.5t61.5 -68.5t74.5 -26.5t63.5 -4.5q38 0 78.5 8t76.5 21v407q0 74 -2.5 125t-11.5 83t-27.5 46t-50.5 14v10h178v-430q0 -74 2.5 -125t11.5 -83t27.5 -46t50.5 -14v-10h-114q-31 0 -68 -3t-73.5 -7t-69 -7
t-53.5 -3q-33 0 -79 5.5t-88 27.5t-71 66.5t-29 123.5v227q0 74 -2.5 125t-11.5 83t-27.5 46t-50.5 14v10h178zM267 874q16 -26 41.5 -41t59.5 -15t59.5 15t41.5 41h9q-7 -36 -37.5 -61t-72.5 -25q-41 0 -72 25t-38 61h9z" />
    <glyph glyph-name="Uring" unicode="&#x16e;" horiz-adv-x="916" 
d="M30 1000h270v-10q-32 0 -50.5 -14t-27.5 -46t-11.5 -83t-2.5 -125v-444q0 -73 19.5 -127t53.5 -90t80 -53.5t99 -17.5t98.5 18t78.5 54t52 90t19 126v444q0 74 -2.5 125t-11.5 83t-27.5 46t-50.5 14v10h270v-10q-32 0 -50.5 -14t-27.5 -46t-11.5 -83t-2.5 -125v-444
q0 -75 -26.5 -131t-71.5 -93t-106 -55.5t-130 -18.5t-130.5 18t-107.5 55t-73 93t-27 132v444q0 74 -2.5 125t-11.5 83t-27.5 46t-50.5 14v10zM459 1209q26 0 45 -19t19 -45q0 -27 -19 -46t-45 -19q-27 0 -46 19t-19 46q0 26 19 45t46 19zM405 1145q0 -23 15.5 -38.5
t38.5 -15.5t38.5 15.5t15.5 38.5q0 22 -15.5 37.5t-38.5 15.5t-38.5 -15.5t-15.5 -37.5z" />
    <glyph glyph-name="uring" unicode="&#x16f;" horiz-adv-x="777" 
d="M198 708v-29.5v-58.5t0.5 -78t0.5 -87v-231q0 -84 25.5 -130.5t61.5 -68.5t74.5 -26.5t63.5 -4.5q38 0 78.5 8t76.5 21v407q0 74 -2.5 125t-11.5 83t-27.5 46t-50.5 14v10h178v-430q0 -74 2.5 -125t11.5 -83t27.5 -46t50.5 -14v-10h-114q-31 0 -68 -3t-73.5 -7t-69 -7
t-53.5 -3q-33 0 -79 5.5t-88 27.5t-71 66.5t-29 123.5v227q0 74 -2.5 125t-11.5 83t-27.5 46t-50.5 14v10h178zM368 917q26 0 45 -19t19 -45q0 -27 -19 -46t-45 -19q-27 0 -46 19t-19 46q0 26 19 45t46 19zM314 853q0 -23 15.5 -38.5t38.5 -15.5t38.5 15.5t15.5 38.5
q0 22 -15.5 37.5t-38.5 15.5t-38.5 -15.5t-15.5 -37.5z" />
    <glyph glyph-name="Uhungarumlaut" unicode="&#x170;" horiz-adv-x="916" 
d="M30 1000h270v-10q-32 0 -50.5 -14t-27.5 -46t-11.5 -83t-2.5 -125v-444q0 -73 19.5 -127t53.5 -90t80 -53.5t99 -17.5t98.5 18t78.5 54t52 90t19 126v444q0 74 -2.5 125t-11.5 83t-27.5 46t-50.5 14v10h270v-10q-32 0 -50.5 -14t-27.5 -46t-11.5 -83t-2.5 -125v-444
q0 -75 -26.5 -131t-71.5 -93t-106 -55.5t-130 -18.5t-130.5 18t-107.5 55t-73 93t-27 132v444q0 74 -2.5 125t-11.5 83t-27.5 46t-50.5 14v10zM498 1088q20 0 27.5 15t12 33.5t10.5 33.5t24 15q21 0 21 -23q0 -12 -8.5 -26.5t-21.5 -26.5t-29.5 -20.5t-32.5 -8.5h-14v8h11z
M397 1088q20 0 27.5 15t12 33.5t10.5 33.5t24 15q21 0 21 -23q0 -12 -8.5 -26.5t-21.5 -26.5t-29.5 -20.5t-32.5 -8.5h-14v8h11z" />
    <glyph glyph-name="uhungarumlaut" unicode="&#x171;" horiz-adv-x="777" 
d="M198 708v-29.5v-58.5t0.5 -78t0.5 -87v-231q0 -84 25.5 -130.5t61.5 -68.5t74.5 -26.5t63.5 -4.5q38 0 78.5 8t76.5 21v407q0 74 -2.5 125t-11.5 83t-27.5 46t-50.5 14v10h178v-430q0 -74 2.5 -125t11.5 -83t27.5 -46t50.5 -14v-10h-114q-31 0 -68 -3t-73.5 -7t-69 -7
t-53.5 -3q-33 0 -79 5.5t-88 27.5t-71 66.5t-29 123.5v227q0 74 -2.5 125t-11.5 83t-27.5 46t-50.5 14v10h178zM407 796q20 0 27.5 15t12 33.5t10.5 33.5t24 15q21 0 21 -23q0 -12 -8.5 -26.5t-21.5 -26.5t-29.5 -20.5t-32.5 -8.5h-14v8h11zM306 796q20 0 27.5 15t12 33.5
t10.5 33.5t24 15q21 0 21 -23q0 -12 -8.5 -26.5t-21.5 -26.5t-29.5 -20.5t-32.5 -8.5h-14v8h11z" />
    <glyph glyph-name="Uogonek" unicode="&#x172;" horiz-adv-x="916" 
d="M30 1000h270v-10q-32 0 -50.5 -14t-27.5 -46t-11.5 -83t-2.5 -125v-444q0 -73 19.5 -127t53.5 -90t80 -53.5t99 -17.5t98.5 18t78.5 54t52 90t19 126v444q0 74 -2.5 125t-11.5 83t-27.5 46t-50.5 14v10h270v-10q-32 0 -50.5 -14t-27.5 -46t-11.5 -83t-2.5 -125v-444
q0 -75 -26.5 -131t-71.5 -93t-106 -55.5t-130 -18.5t-130.5 18t-107.5 55t-73 93t-27 132v444q0 74 -2.5 125t-11.5 83t-27.5 46t-50.5 14v10zM466 -15v-5q-42 0 -66 -25.5t-24 -57.5q0 -26 11.5 -45.5t37.5 -19.5q12 0 20.5 9.5t2.5 20.5l2 2q4 -2 8 -5q8 -6 8 -18
q0 -19 -13 -32.5t-37 -13.5q-32 0 -50.5 23t-18.5 51q0 23 10.5 44t27 37t38 25.5t43.5 9.5z" />
    <glyph glyph-name="uogonek" unicode="&#x173;" horiz-adv-x="777" 
d="M198 708v-29.5v-58.5t0.5 -78t0.5 -87v-231q0 -84 25.5 -130.5t61.5 -68.5t74.5 -26.5t63.5 -4.5q38 0 78.5 8t76.5 21v407q0 74 -2.5 125t-11.5 83t-27.5 46t-50.5 14v10h178v-430q0 -74 2.5 -125t11.5 -83t27.5 -46t50.5 -14v-10h-114q-31 0 -68 -3t-73.5 -7t-69 -7
t-53.5 -3q-33 0 -79 5.5t-88 27.5t-71 66.5t-29 123.5v227q0 74 -2.5 125t-11.5 83t-27.5 46t-50.5 14v10h178zM649 5v-5q-42 0 -66 -25.5t-24 -57.5q0 -26 11.5 -45.5t37.5 -19.5q12 0 20.5 9.5t2.5 20.5l2 2q4 -2 8 -5q8 -6 8 -18q0 -19 -13 -32.5t-37 -13.5
q-32 0 -50.5 23t-18.5 51q0 23 10.5 44t27 37t38 25.5t43.5 9.5z" />
    <glyph glyph-name="Wcircumflex" unicode="&#x174;" horiz-adv-x="1340" 
d="M0 1000h328v-10q-53 0 -80 -14t-36 -39t-2.5 -58t20.5 -71l270 -712q39 111 80 220.5t82 221.5l-109 287q-33 83 -62 124t-75 41v10h508v-10q-46 0 -75.5 -40.5t-61.5 -124.5l-74 -195l203 -534q63 178 130 354t124 355q10 30 13.5 62.5t-7 60t-38.5 45t-81 17.5v10h283
v-10q-46 0 -75.5 -40.5t-61.5 -124.5l-320 -845h-10l-203 536l-203 -536h-10l-320 845q-33 83 -62 124t-75 41v10zM646 808l58 -152q13 37 25.5 74t24.5 75q8 26 15.5 58t4.5 60t-21.5 47t-62.5 19q-36 0 -52 -16t-18.5 -42t6 -58.5t20.5 -64.5zM681 1176l116 -86l-6 -10
l-107 46l-107 -46l-6 10z" />
    <glyph glyph-name="wcircumflex" unicode="&#x175;" horiz-adv-x="1123" 
d="M123 708q34 0 54.5 -25.5t29.5 -54.5q20 -64 36.5 -120t33.5 -112t35.5 -116t42.5 -133q14 -42 32.5 -63t40.5 -24q38 117 69.5 216.5t58.5 193.5q-9 27 -19 66t-25.5 75t-38.5 61.5t-58 25.5h-24v10h123q34 0 54.5 -25.5t29.5 -54.5q20 -64 36.5 -120t33.5 -112
t35.5 -116t42.5 -133q14 -42 32.5 -63t40.5 -24q38 121 70.5 223t60.5 198q9 30 15 67.5t1.5 71t-23.5 56t-61 22.5h-22v10h263v-10h-17q-26 0 -48 -22t-39.5 -52.5t-30 -64t-19.5 -56.5q-37 -118 -75.5 -244t-87.5 -279q-26 -3 -53 14q-23 14 -48.5 48.5t-48.5 104.5
q-29 90 -52 162.5t-43 141.5q-32 -106 -67.5 -220.5t-78.5 -250.5q-26 -3 -53 14q-23 14 -48.5 48.5t-48.5 104.5q-19 62 -35.5 114.5t-31.5 101t-29.5 95t-29.5 97.5q-7 23 -16 48t-22 46t-31.5 35t-45.5 14h-24v10h123zM496 884l116 -86l-6 -10l-107 46l-107 -46l-6 10z
" />
    <glyph glyph-name="Ycircumflex" unicode="&#x176;" horiz-adv-x="818" 
d="M0 990v10h278v-10h-22q-21 0 -37.5 -11.5t-16.5 -41.5q0 -17 14 -51.5t36.5 -79.5t50 -95.5t55 -100t52 -93t39.5 -73.5q17 33 41.5 78t50.5 95t52 101.5t46.5 96t33.5 78.5t13 51q0 27 -17.5 36.5t-38.5 9.5h-26v10h214v-10q-28 0 -49 -14.5t-41 -45t-43.5 -77.5
t-57.5 -112q-23 -43 -48.5 -89t-49.5 -88.5t-44 -79t-33 -61.5v-145q0 -74 2.5 -125t11.5 -83t27.5 -46t50.5 -14v-10h-270v10q32 0 50.5 14t27.5 46t11.5 83t2.5 125v145q-13 25 -33 61.5t-44 79t-49.5 88.5t-48.5 89q-34 65 -57.5 112t-43.5 77.5t-40.5 45t-49.5 14.5z
M442 1176l116 -86l-6 -10l-107 46l-107 -46l-6 10z" />
    <glyph glyph-name="ycircumflex" unicode="&#x177;" horiz-adv-x="732" 
d="M123 708q34 0 54.5 -25.5t29.5 -54.5q20 -64 36.5 -120t33.5 -112t35.5 -116t42.5 -133q14 -42 32.5 -63t40.5 -24q38 121 70.5 223t60.5 198q9 30 15 67.5t1.5 71t-23.5 56t-61 22.5h-22v10h263v-10h-17q-26 0 -48 -22t-39.5 -52.5t-30 -64t-19.5 -56.5
q-37 -118 -75.5 -244t-87.5 -279q-7 -19 -20.5 -56t-31.5 -81t-39.5 -89.5t-45 -83t-47.5 -61.5t-46 -24h-135v10q46 0 99.5 37t104 94t90.5 125t59 129q-10 0 -26 6t-35.5 23.5t-39.5 50.5t-37 87q-19 62 -35.5 114.5t-31.5 101t-29.5 95t-29.5 97.5q-7 23 -16 48t-22 46
t-31.5 35t-45.5 14h-24v10h123zM348 884l116 -86l-6 -10l-107 46l-107 -46l-6 10z" />
    <glyph glyph-name="Ydieresis" unicode="&#x178;" horiz-adv-x="818" 
d="M0 990v10h278v-10h-22q-21 0 -37.5 -11.5t-16.5 -41.5q0 -17 14 -51.5t36.5 -79.5t50 -95.5t55 -100t52 -93t39.5 -73.5q17 33 41.5 78t50.5 95t52 101.5t46.5 96t33.5 78.5t13 51q0 27 -17.5 36.5t-38.5 9.5h-26v10h214v-10q-28 0 -49 -14.5t-41 -45t-43.5 -77.5
t-57.5 -112q-23 -43 -48.5 -89t-49.5 -88.5t-44 -79t-33 -61.5v-145q0 -74 2.5 -125t11.5 -83t27.5 -46t50.5 -14v-10h-270v10q32 0 50.5 14t27.5 46t11.5 83t2.5 125v145q-13 25 -33 61.5t-44 79t-49.5 88.5t-48.5 89q-34 65 -57.5 112t-43.5 77.5t-40.5 45t-49.5 14.5z
M361 1110q0 12 8.5 20.5t21.5 8.5q12 0 20.5 -8.5t8.5 -20.5q0 -13 -8.5 -21.5t-20.5 -8.5q-13 0 -21.5 8.5t-8.5 21.5zM494 1139q13 0 21.5 -8.5t8.5 -20.5q0 -13 -8.5 -21.5t-21.5 -8.5q-12 0 -20.5 8.5t-8.5 21.5q0 12 8.5 20.5t20.5 8.5z" />
    <glyph glyph-name="Zacute" unicode="&#x179;" horiz-adv-x="789" 
d="M656 990h-285q-64 0 -118.5 -9.5t-94 -26t-61.5 -38.5t-22 -47v-4h-10v135h694l-626 -990h143q24 0 66 1.5t91.5 6.5t101 15.5t93 27.5t68 42.5t26.5 61.5h10v-165h-702zM292 1080v10h32q32 0 50.5 13.5t31 29t23 29t28.5 13.5q14 0 21 -8t7 -19q0 -15 -11 -27.5
t-28.5 -21.5t-38 -14t-39.5 -5h-76z" />
    <glyph glyph-name="zacute" unicode="&#x17a;" horiz-adv-x="619" 
d="M478 698h-139q-121 0 -190.5 -38.5t-83.5 -105.5h-10v154h534l-448 -698h155q121 0 190.5 38.5t83.5 105.5h10v-154h-550zM213 788v10h32q32 0 50.5 13.5t31 29t23 29t28.5 13.5q14 0 21 -8t7 -19q0 -15 -11 -27.5t-28.5 -21.5t-38 -14t-39.5 -5h-76z" />
    <glyph glyph-name="Zdotaccent" unicode="&#x17b;" horiz-adv-x="789" 
d="M656 990h-285q-64 0 -118.5 -9.5t-94 -26t-61.5 -38.5t-22 -47v-4h-10v135h694l-626 -990h143q24 0 66 1.5t91.5 6.5t101 15.5t93 27.5t68 42.5t26.5 61.5h10v-165h-702zM346 1123q0 18 12.5 31t30.5 13t31 -13t13 -31q0 -17 -13 -30t-31 -13t-30.5 13t-12.5 30z" />
    <glyph glyph-name="zdotaccent" unicode="&#x17c;" horiz-adv-x="619" 
d="M478 698h-139q-121 0 -190.5 -38.5t-83.5 -105.5h-10v154h534l-448 -698h155q121 0 190.5 38.5t83.5 105.5h10v-154h-550zM267 831q0 18 12.5 31t30.5 13t31 -13t13 -31q0 -17 -13 -30t-31 -13t-30.5 13t-12.5 30z" />
    <glyph glyph-name="Zcaron" unicode="&#x17d;" horiz-adv-x="789" 
d="M656 990h-285q-64 0 -118.5 -9.5t-94 -26t-61.5 -38.5t-22 -47v-4h-10v135h694l-626 -990h143q24 0 66 1.5t91.5 6.5t101 15.5t93 27.5t68 42.5t26.5 61.5h10v-165h-702zM388 1080l-110 86l6 10l107 -46l107 46l6 -10z" />
    <glyph glyph-name="zcaron" unicode="&#x17e;" horiz-adv-x="619" 
d="M478 698h-139q-121 0 -190.5 -38.5t-83.5 -105.5h-10v154h534l-448 -698h155q121 0 190.5 38.5t83.5 105.5h10v-154h-550zM310 788l-110 86l6 10l107 -46l107 46l6 -10z" />
    <glyph glyph-name="uni0237" unicode="&#x237;" horiz-adv-x="313" 
d="M37 -404q23 -18 58 -18q34 0 54.5 19.5t31 48t13.5 61.5t3 60v663q0 74 -2.5 125t-11.5 83t-27.5 46t-50.5 14v10h178v-926q0 -38 -11 -77t-33.5 -70.5t-55.5 -51t-77 -19.5q-26 0 -44 6t-32 16z" />
    <glyph glyph-name="circumflex" unicode="&#x2c6;" horiz-adv-x="286" 
d="M140 1176l116 -86l-6 -10l-107 46l-107 -46l-6 10z" />
    <glyph glyph-name="caron" unicode="&#x2c7;" horiz-adv-x="286" 
d="M140 1080l-110 86l6 10l107 -46l107 46l6 -10z" />
    <glyph glyph-name="breve" unicode="&#x2d8;" horiz-adv-x="340" 
d="M69 1166q16 -26 41.5 -41t59.5 -15t59.5 15t41.5 41h9q-7 -36 -37.5 -61t-72.5 -25q-41 0 -72 25t-38 61h9z" />
    <glyph glyph-name="dotaccent" unicode="&#x2d9;" horiz-adv-x="206" 
d="M60 1123q0 18 12.5 31t30.5 13t31 -13t13 -31q0 -17 -13 -30t-31 -13t-30.5 13t-12.5 30z" />
    <glyph glyph-name="ring" unicode="&#x2da;" horiz-adv-x="249" 
d="M125 1209q26 0 45 -19t19 -45q0 -27 -19 -46t-45 -19q-27 0 -46 19t-19 46q0 26 19 45t46 19zM71 1145q0 -23 15.5 -38.5t38.5 -15.5t38.5 15.5t15.5 38.5q0 22 -15.5 37.5t-38.5 15.5t-38.5 -15.5t-15.5 -37.5z" />
    <glyph glyph-name="ogonek" unicode="&#x2db;" horiz-adv-x="239" 
d="M179 5v-5q-42 0 -66 -25.5t-24 -57.5q0 -26 11.5 -45.5t37.5 -19.5q12 0 20.5 9.5t2.5 20.5l2 2q4 -2 8 -5q8 -6 8 -18q0 -19 -13 -32.5t-37 -13.5q-32 0 -50.5 23t-18.5 51q0 23 10.5 44t27 37t38 25.5t43.5 9.5z" />
    <glyph glyph-name="tilde" unicode="&#x2dc;" horiz-adv-x="358" 
d="M60 1095q3 11 19.5 27t46.5 16q18 0 32 -4.5t27.5 -9.5t27 -9.5t30.5 -4.5t26.5 3t14.5 7q6 4 8 10l6 -3q-6 -21 -24.5 -34t-45.5 -13q-16 0 -29 4.5t-26.5 10t-28.5 10t-36 4.5q-31 0 -43 -17z" />
    <glyph glyph-name="hungarumlaut" unicode="&#x2dd;" horiz-adv-x="327" 
d="M172 1088q20 0 27.5 15t12 33.5t10.5 33.5t24 15q21 0 21 -23q0 -12 -8.5 -26.5t-21.5 -26.5t-29.5 -20.5t-32.5 -8.5h-14v8h11zM71 1088q20 0 27.5 15t12 33.5t10.5 33.5t24 15q21 0 21 -23q0 -12 -8.5 -26.5t-21.5 -26.5t-29.5 -20.5t-32.5 -8.5h-14v8h11z" />
    <glyph glyph-name="uni0326" unicode="&#x326;" horiz-adv-x="210" 
d="M104 -41q18 0 32 -14.5t14 -43.5q0 -33 -10 -53.5t-21 -31.5q-14 -13 -32 -19l-1 6q11 3 19.5 11t13.5 19.5t6.5 23.5t-1.5 23q-2 -2 -5 -4q-6 -4 -15 -4q-18 0 -31 12.5t-13 31.5q0 18 13 30.5t31 12.5z" />
    <glyph glyph-name="endash" unicode="&#x2013;" horiz-adv-x="620" 
d="M60 502h500v-11h-500v11z" />
    <glyph glyph-name="emdash" unicode="&#x2014;" horiz-adv-x="921" 
d="M60 502h801v-11h-801v11z" />
    <glyph glyph-name="quoteleft" unicode="&#x2018;" horiz-adv-x="259" 
d="M158 1020l1 -10q-16 -4 -29 -17t-21.5 -30t-11 -36.5t3.5 -35.5q3 4 7 7q10 6 24 6q28 0 47.5 -19.5t19.5 -47.5t-19.5 -47.5t-47.5 -19.5t-50 22.5t-22 67.5q0 51 15.5 82.5t33.5 48.5q22 20 49 29z" />
    <glyph glyph-name="quoteright" unicode="&#x2019;" horiz-adv-x="259" 
d="M127 1020q28 0 50 -22.5t22 -67.5q0 -51 -15 -82t-34 -49q-22 -20 -49 -29l-1 10q16 4 29.5 17t21.5 30t10.5 36.5t-3.5 35.5q-3 -4 -7 -6q-9 -7 -24 -7q-28 0 -47.5 19.5t-19.5 47.5t19.5 47.5t47.5 19.5z" />
    <glyph glyph-name="quotesinglbase" unicode="&#x201a;" horiz-adv-x="259" 
d="M127 134q28 0 50 -22.5t22 -67.5q0 -51 -15 -82.5t-34 -48.5q-22 -20 -49 -29l-1 10q16 4 29.5 17t21.5 30t10.5 36.5t-3.5 35.5q-3 -4 -7 -6q-9 -7 -24 -7q-28 0 -47.5 19.5t-19.5 47.5t19.5 47.5t47.5 19.5z" />
    <glyph glyph-name="quotedblleft" unicode="&#x201c;" horiz-adv-x="440" 
d="M339 1020l1 -10q-16 -4 -29 -17t-21.5 -30t-11 -36.5t3.5 -35.5q3 4 7 7q10 6 24 6q28 0 47.5 -19.5t19.5 -47.5t-19.5 -47.5t-47.5 -19.5t-50 22.5t-22 67.5q0 51 15.5 82.5t33.5 48.5q22 20 49 29zM60 860q0 51 15.5 82.5t33.5 48.5q22 20 49 29l1 -10q-16 -4 -29 -17
t-21.5 -30t-11 -36.5t3.5 -35.5q3 4 7 7q10 6 24 6q28 0 47.5 -19.5t19.5 -47.5t-19.5 -47.5t-47.5 -19.5t-50 22.5t-22 67.5z" />
    <glyph glyph-name="quotedblright" unicode="&#x201d;" horiz-adv-x="440" 
d="M60 953q0 28 19.5 47.5t47.5 19.5t50 -22.5t22 -67.5q0 -51 -15 -82t-34 -49q-22 -20 -49 -29l-1 10q16 4 29.5 17t21.5 30t10.5 36.5t-3.5 35.5q-3 -4 -7 -6q-9 -7 -24 -7q-28 0 -47.5 19.5t-19.5 47.5zM308 1020q28 0 50 -22.5t22 -67.5q0 -51 -15 -82t-34 -49
q-22 -20 -49 -29l-1 10q16 4 29.5 17t21.5 30t10.5 36.5t-3.5 35.5q-3 -4 -7 -6q-9 -7 -24 -7q-28 0 -47.5 19.5t-19.5 47.5t19.5 47.5t47.5 19.5z" />
    <glyph glyph-name="quotedblbase" unicode="&#x201e;" horiz-adv-x="440" 
d="M308 134q28 0 50 -22.5t22 -67.5q0 -51 -15 -82.5t-34 -48.5q-22 -20 -49 -29l-1 10q16 4 29.5 17t21.5 30t10.5 36.5t-3.5 35.5q-3 -4 -7 -6q-9 -7 -24 -7q-28 0 -47.5 19.5t-19.5 47.5t19.5 47.5t47.5 19.5zM60 67q0 28 19.5 47.5t47.5 19.5t50 -22.5t22 -67.5
q0 -51 -15 -82.5t-34 -48.5q-22 -20 -49 -29l-1 10q16 4 29.5 17t21.5 30t10.5 36.5t-3.5 35.5q-3 -4 -7 -6q-9 -7 -24 -7q-28 0 -47.5 19.5t-19.5 47.5z" />
    <glyph glyph-name="dagger" unicode="&#x2020;" horiz-adv-x="620" 
d="M108 765q14 0 37.5 -5t51 -11.5t56 -12t53.5 -5.5q0 25 -5.5 60.5t-12 71t-11.5 65.5t-5 44q0 20 9.5 34t28.5 14t28.5 -14t9.5 -34q0 -14 -5 -44t-11.5 -65.5t-12 -71t-5.5 -60.5q25 0 53.5 5.5t56 12t51 11.5t37.5 5q20 0 34 -9.5t14 -28.5t-14 -28.5t-34 -9.5
q-14 0 -37.5 5t-51 11.5t-56 12t-53.5 5.5q0 -16 2.5 -71.5t6.5 -129.5t8.5 -157t8 -155t6 -122.5t2.5 -59.5q0 -20 -9.5 -34t-28.5 -14t-28.5 14t-9.5 34q0 9 2.5 59.5t6 122.5t8 155t8.5 157t6.5 129.5t2.5 71.5q-25 0 -53.5 -5.5t-56 -12t-51 -11.5t-37.5 -5
q-20 0 -34 9.5t-14 28.5t14 28.5t34 9.5z" />
    <glyph glyph-name="daggerdbl" unicode="&#x2021;" horiz-adv-x="620" 
d="M60 273q0 19 14 28.5t34 9.5q14 0 37.5 -5t51 -11.5t56 -12t53.5 -5.5q0 33 -4 60t-9 52.5t-9 52.5t-4 60q0 32 4 58.5t9 52t9 52t4 58.5q-25 0 -53.5 -5.5t-56 -12t-51 -11.5t-37.5 -5q-20 0 -34 9.5t-14 28.5t14 28.5t34 9.5q14 0 37.5 -5t51 -11.5t56 -12t53.5 -5.5
q0 25 -5.5 60.5t-12 71t-11.5 65.5t-5 44q0 20 9.5 34t28.5 14t28.5 -14t9.5 -34q0 -14 -5 -44t-11.5 -65.5t-12 -71t-5.5 -60.5q25 0 53.5 5.5t56 12t51 11.5t37.5 5q20 0 34 -9.5t14 -28.5t-14 -28.5t-34 -9.5q-14 0 -37.5 5t-51 11.5t-56 12t-53.5 5.5q0 -32 4 -58.5
t9 -52t9 -52t4 -58.5q0 -33 -4 -60t-9 -52.5t-9 -52.5t-4 -60q25 0 53.5 5.5t56 12t51 11.5t37.5 5q20 0 34 -9.5t14 -28.5t-14 -28.5t-34 -9.5q-14 0 -37.5 5t-51 11.5t-56 12t-53.5 5.5q0 -25 5.5 -60.5t12 -71t11.5 -65.5t5 -44q0 -20 -9.5 -34t-28.5 -14t-28.5 14
t-9.5 34q0 14 5 44t11.5 65.5t12 71t5.5 60.5q-25 0 -53.5 -5.5t-56 -12t-51 -11.5t-37.5 -5q-20 0 -34 9.5t-14 28.5z" />
    <glyph glyph-name="bullet" unicode="&#x2022;" horiz-adv-x="266" 
d="M60 500q0 30 21.5 51.5t51.5 21.5t51.5 -21.5t21.5 -51.5t-21.5 -51.5t-51.5 -21.5t-51.5 21.5t-21.5 51.5z" />
    <glyph glyph-name="ellipsis" unicode="&#x2026;" horiz-adv-x="762" 
d="M60 67q0 28 19.5 47.5t47.5 19.5t47.5 -19.5t19.5 -47.5t-19.5 -47.5t-47.5 -19.5t-47.5 19.5t-19.5 47.5zM314 67q0 28 19.5 47.5t47.5 19.5t47.5 -19.5t19.5 -47.5t-19.5 -47.5t-47.5 -19.5t-47.5 19.5t-19.5 47.5zM568 67q0 28 19.5 47.5t47.5 19.5t47.5 -19.5
t19.5 -47.5t-19.5 -47.5t-47.5 -19.5t-47.5 19.5t-19.5 47.5z" />
    <glyph glyph-name="perthousand" unicode="&#x2030;" horiz-adv-x="1383" 
d="M255 1020q128 0 204 -68.5t76 -201.5q0 -78 -18 -143.5t-39.5 -124.5t-39.5 -115t-18 -117q0 -98 43 -166.5t136 -85.5q-55 28 -89 94.5t-34 156.5q0 59 15 108.5t41 85.5t61.5 56t77.5 20t77.5 -20t61.5 -56t41 -85.5t15 -108.5q0 -58 -15 -107.5t-41 -85.5t-61.5 -56
t-77.5 -20q-34 0 -82.5 10.5t-93 40.5t-75.5 82.5t-31 136.5q0 78 18 143.5t39.5 124.5t39.5 115t18 117q0 48 -10.5 90t-32 75t-55 55.5t-78.5 31.5q55 -29 88.5 -95.5t33.5 -156.5q0 -58 -15 -107.5t-41 -85.5t-61.5 -56t-77.5 -20t-77.5 20t-61.5 56t-41 85.5t-15 107.5
q0 59 15 108.5t41 85.5t61.5 56t77.5 20zM1128 519q42 0 77.5 -20t61.5 -56t41 -85.5t15 -108.5q0 -58 -15 -107.5t-41 -85.5t-61.5 -56t-77.5 -20t-77.5 20t-61.5 56t-41 85.5t-15 107.5q0 59 15 108.5t41 85.5t61.5 56t77.5 20zM549 250q0 -27 4 -71t17 -86t37 -72.5
t63 -30.5q25 0 47.5 19t39 53.5t26 82t9.5 105.5t-9.5 106t-26 82t-39 52.5t-47.5 18.5t-47.5 -18.5t-38.5 -52.5t-25.5 -82t-9.5 -106zM254 491q25 0 47.5 19t39 53.5t26 82t9.5 105.5q0 25 -5 68.5t-18.5 86t-37.5 73.5t-61 31q-25 0 -47.5 -18.5t-38.5 -52.5t-25.5 -82
t-9.5 -106t9.5 -105.5t25.5 -82t38.5 -53.5t47.5 -19zM1127 -10q25 0 47.5 19t39 53.5t26 82t9.5 105.5t-9.5 106t-26 82t-39 52.5t-47.5 18.5t-47.5 -18.5t-39 -52.5t-26 -82t-9.5 -106t9.5 -105.5t26 -82t39 -53.5t47.5 -19z" />
    <glyph glyph-name="guilsinglleft" unicode="&#x2039;" horiz-adv-x="270" 
d="M68 507q37 28 57.5 52.5t32.5 43t19.5 29.5t19.5 11q13 0 13 -15q0 -13 -18.5 -32.5t-42.5 -39t-48 -35.5t-35 -21q11 -5 35 -21t48 -35.5t42.5 -39t18.5 -32.5q0 -14 -13 -14q-12 0 -19.5 11t-19 29.5t-32 43t-58.5 51.5q-3 2 -5.5 3.5t-2.5 3.5t2.5 3.5t5.5 3.5z" />
    <glyph glyph-name="guilsinglright" unicode="&#x203a;" horiz-adv-x="270" 
d="M60 372q0 13 18.5 32.5t42.5 39t48 35.5t35 21q-11 5 -35 21t-48 35.5t-42.5 39t-18.5 32.5q0 15 13 15q12 0 19.5 -11t19 -29.5t32 -43.5t58.5 -52q2 -2 5 -3.5t3 -3.5t-3 -3.5t-5 -3.5q-33 -33 -53 -58t-32.5 -42.5t-22 -26t-21.5 -8.5q-13 0 -13 14z" />
    <glyph glyph-name="fraction" unicode="&#x2044;" horiz-adv-x="454" 
d="M384 1020h10l-324 -1040h-10z" />
    <glyph glyph-name="uni2074" unicode="&#x2074;" horiz-adv-x="535" 
d="M60 629q48 53 81 101.5t56 94t40.5 89t33.5 86.5h90q-39 -56 -70.5 -100t-63 -83.5t-66 -80t-77.5 -89.5q22 12 48.5 28.5t58.5 16.5q27 0 52 -7t48 -15.5t45.5 -15.5t44.5 -7q26 0 49 4.5t29 18.5t-9.5 19.5t-36.5 9.5t-39.5 11.5t-18.5 26.5v179h64v-198
q0 -9 7.5 -12.5t16 -7.5t16 -10t7.5 -20q0 -19 -13.5 -36.5t-33.5 -25.5q1 -56 11.5 -78.5t44.5 -22.5v-5h-176v5q32 0 42.5 20.5t12.5 70.5q-31 0 -54.5 7.5t-46.5 16.5t-48.5 16.5t-60.5 7.5q-29 0 -48 -6t-36 -14v5z" />
    <glyph glyph-name="Euro" unicode="&#x20ac;" horiz-adv-x="834" 
d="M489 -20q-90 0 -168.5 39t-136 108.5t-91 165t-33.5 207.5q0 113 33.5 208t91 164.5t136 108.5t168.5 39q93 0 160 -13t125 -33v-134h-10q-20 47 -57 84q-32 32 -84.5 58t-133.5 26q-61 0 -116 -29.5t-99.5 -82t-76 -126t-43.5 -162.5q9 13 23.5 26.5t33.5 25t42.5 18.5
t50.5 7q46 0 79.5 -9.5t62.5 -20.5t58.5 -20.5t68.5 -9.5q26 0 45 6.5t32 16t22 21.5t15 22h10q-3 -12 -15 -33t-33 -42t-51.5 -36t-71.5 -15q-50 0 -87 12.5t-68 27t-60 27t-62 12.5q-39 0 -61.5 -16.5t-35.5 -37.5q-2 -22 -3.5 -44.5t-1.5 -45.5q0 -28 2 -54.5t5 -52.5
q9 13 23.5 26.5t33.5 25t42.5 18.5t50.5 7q46 0 79.5 -9.5t62.5 -20.5t58.5 -20.5t68.5 -9.5q26 0 45 6.5t32 16t22 21.5t15 22h10q-3 -12 -15 -33t-33 -42t-51.5 -36t-71.5 -15q-50 0 -87 12.5t-68 27t-60 27t-62 12.5q-36 0 -58 -14t-35 -34q14 -86 45 -157.5t75 -123
t98.5 -80t114.5 -28.5q81 0 133.5 26t84.5 58q37 37 57 84h10v-134q-58 -20 -125 -33t-160 -13zM152 375q1 2 2 3t2 3q-1 3 -1 6t-1 6q-9 -13 -12 -24zM142 584l10 6q2 12 2 18q-9 -13 -12 -24z" />
    <glyph glyph-name="trademark" unicode="&#x2122;" horiz-adv-x="1030" 
d="M506 639v222q0 74 -7 104t-39 30v5h80l192 -403l150 403h88v-5q-32 0 -39 -30t-7 -104v-222q0 -74 7 -104t39 -30v-5h-135v5q32 0 39 30t7 104v344q-40 -108 -79.5 -215.5t-86.5 -231.5h-4q-30 63 -54 115t-47 101.5t-46.5 100t-52.5 111.5v-278q0 -54 7 -89.5t19 -55.5
t27 -28t31 -8v-5h-135v5q32 0 39 30t7 104zM410 1000v-67h-5q0 20 -18.5 32t-43 19t-49.5 9t-38 2v-356q0 -74 5 -104t37 -30v-5h-130v5q32 0 39 30t7 104v356q-13 0 -38 -2t-49.5 -9t-43 -19t-18.5 -32h-5v67h350z" />
    <glyph glyph-name="minus" unicode="&#x2212;" horiz-adv-x="620" 
d="M108 538q14 0 38 -5.5t52.5 -11.5t57.5 -11.5t54 -5.5t54 5.5t57.5 11.5t52.5 11.5t38 5.5q20 0 34 -9.5t14 -28.5t-14 -28.5t-34 -9.5q-14 0 -38 5.5t-52.5 11.5t-57.5 11.5t-54 5.5t-54 -5.5t-57.5 -11.5t-52.5 -11.5t-38 -5.5q-20 0 -34 9.5t-14 28.5t14 28.5t34 9.5z
" />
    <glyph glyph-name="approxequal" unicode="&#x2248;" horiz-adv-x="607" 
d="M60 551q3 8 14.5 20t29.5 23t43 19t55 8q41 0 70 -6.5t54.5 -14t51.5 -14t60 -6.5q44 0 67 13.5t34 27.5l8 -3q-3 -8 -13.5 -23t-28.5 -29.5t-45 -25t-63 -10.5q-44 0 -76.5 8.5t-59.5 19t-52.5 19t-54.5 8.5q-35 0 -54.5 -11.5t-30.5 -26.5zM60 404q3 8 14.5 20t29.5 23
t43 19t55 8q41 0 70 -6.5t54.5 -14.5t51.5 -14.5t60 -6.5q44 0 67 14t34 28l8 -3q-3 -8 -13.5 -23t-28.5 -29.5t-45 -25t-63 -10.5q-44 0 -76.5 8.5t-59.5 19t-52.5 19t-54.5 8.5q-35 0 -54.5 -11.5t-30.5 -26.5z" />
    <glyph glyph-name="notequal" unicode="&#x2260;" horiz-adv-x="620" 
d="M108 615q14 0 38 -5.5t52.5 -11.5t57.5 -11.5t54 -5.5t54 5.5t57.5 11.5t52.5 11.5t38 5.5q20 0 34 -9.5t14 -28.5t-14 -28.5t-34 -9.5q-14 0 -38 5.5t-52.5 11.5t-57.5 11.5t-54 5.5t-54 -5.5t-57.5 -11.5t-52.5 -11.5t-38 -5.5q-20 0 -34 9.5t-14 28.5t14 28.5t34 9.5z
M108 463q14 0 38 -5.5t52.5 -11.5t57.5 -11.5t54 -5.5t54 5.5t57.5 11.5t52.5 11.5t38 5.5q20 0 34 -9.5t14 -28.5t-14 -28.5t-34 -9.5q-14 0 -38 5.5t-52.5 11.5t-57.5 11.5t-54 5.5t-54 -5.5t-57.5 -11.5t-52.5 -11.5t-38 -5.5q-20 0 -34 9.5t-14 28.5t14 28.5t34 9.5z
M467 1020h10l-324 -1040h-10z" />
    <glyph glyph-name="lessequal" unicode="&#x2264;" horiz-adv-x="620" 
d="M89 351q72 28 134 60.5t113 60.5t91.5 47t68.5 19q25 0 33 -10.5t8 -19.5q0 -12 -5.5 -20.5t-12.5 -13.5q-9 -6 -19 -9l-411 -125l411 -125q10 -3 19 -9q7 -5 12.5 -13t5.5 -21q0 -10 -8 -20t-33 -10q-28 0 -68 19t-91 47t-113 60.5t-135 60.5q-6 2 -11.5 4.5t-5.5 6.5
t5.5 6.5t11.5 4.5zM108 105q14 0 38 -5.5t52.5 -11.5t57.5 -11.5t54 -5.5t54 5.5t57.5 11.5t52.5 11.5t38 5.5q20 0 34 -9.5t14 -28.5t-14 -28.5t-34 -9.5q-14 0 -38 5.5t-52.5 11.5t-57.5 11.5t-54 5.5t-54 -5.5t-57.5 -11.5t-52.5 -11.5t-38 -5.5q-20 0 -34 9.5t-14 28.5
t14 28.5t34 9.5z" />
    <glyph glyph-name="greaterequal" unicode="&#x2265;" horiz-adv-x="620" 
d="M83 172q0 13 5.5 21t13.5 13q8 6 18 9l411 125l-411 125q-10 3 -18 9q-8 5 -13.5 13.5t-5.5 20.5q0 9 8.5 19.5t33.5 10.5q28 0 67.5 -19t90.5 -47t113 -60.5t135 -60.5q6 -2 11.5 -4.5t5.5 -6.5t-5.5 -6.5t-11.5 -4.5q-73 -27 -135 -60t-113 -61t-90.5 -47t-67.5 -19
q-25 0 -33.5 10t-8.5 20zM60 67q0 19 14 28.5t34 9.5q14 0 38 -5.5t52.5 -11.5t57.5 -11.5t54 -5.5t54 5.5t57.5 11.5t52.5 11.5t38 5.5q20 0 34 -9.5t14 -28.5t-14 -28.5t-34 -9.5q-14 0 -38 5.5t-52.5 11.5t-57.5 11.5t-54 5.5t-54 -5.5t-57.5 -11.5t-52.5 -11.5t-38 -5.5
q-20 0 -34 9.5t-14 28.5z" />
    <glyph glyph-name="A.001" horiz-adv-x="876" 
d="M-116 645h9q0 -18 12 -42t39 -45.5t70 -36.5t106 -15q29 0 55.5 8t50.5 21h-1q46 121 91 240.5t93 244.5h10l320 -845q33 -83 62 -124t75 -41v-10h-328v10q53 0 80 14t36 39t2.5 58t-20.5 71l-124 327q6 -48 6 -120q0 -91 -21.5 -168t-62 -132.5t-99 -87t-133.5 -31.5
q-43 0 -77 16t-57.5 42.5t-35.5 62t-12 74.5q0 62 29.5 111.5t74 90t96.5 74t96.5 62t74 54.5t29.5 52q0 14 -7 20.5t-17 6.5q-18 0 -50.5 -31t-79 -68.5t-105.5 -68.5t-131 -31q-42 0 -74 14t-54 35t-33.5 45.5t-11.5 46.5q0 16 2.5 26.5t5.5 17.5q4 8 9 13zM272 28
q63 0 109 34.5t76.5 88.5t45.5 119.5t15 126.5q0 56 -3.5 99.5t-17.5 88.5l-121 319l-137 -361q29 17 53.5 36.5t46 36.5t39 28.5t30.5 11.5q14 0 23.5 -9.5t9.5 -29.5q0 -33 -24 -60.5t-60.5 -54t-78.5 -54.5t-78.5 -64t-60.5 -82t-24 -108q0 -71 41.5 -118.5t115.5 -47.5z
" />
    <glyph glyph-name="C.001" horiz-adv-x="832" 
d="M489 1020q93 0 160 -13t125 -33v-134h-10q-20 47 -57 84q-32 32 -84.5 58t-133.5 26q-70 0 -132 -38.5t-108.5 -106t-74 -160.5t-27.5 -203q0 -109 27.5 -202.5t74 -161t108.5 -106t132 -38.5q81 0 133.5 26t84.5 58q37 37 57 84h10v-134q-58 -20 -125 -33t-160 -13
q-90 0 -168.5 39t-136 108.5t-91 165t-33.5 207.5q0 113 33.5 208t91 164.5t136 108.5t168.5 39z" />
    <glyph glyph-name="e.001" horiz-adv-x="773" 
d="M403 728q81 0 136 -24.5t89.5 -61.5t49.5 -79t15 -78q0 -32 -13.5 -48.5t-30.5 -24.5q-20 -8 -45 -8h-457q-1 -12 -1.5 -24.5t-0.5 -25.5q0 -82 18.5 -149t52.5 -114.5t81.5 -73t105.5 -25.5q44 0 89 12t85 36.5t72 61t50 84.5l14 -6q-39 -90 -118.5 -145t-191.5 -55
q-81 0 -144.5 29.5t-107.5 80.5t-67.5 119t-23.5 145t23.5 145t67.5 119t107.5 80.5t144.5 29.5zM532 422q22 -1 40 5q15 5 27.5 17.5t12.5 37.5q0 39 -11 80t-35.5 75.5t-64.5 56.5t-98 22q-52 0 -95.5 -20.5t-76.5 -58.5t-54 -92.5t-29 -122.5h384z" />
    <glyph glyph-name="ampersand.001" horiz-adv-x="920" 
d="M230 528q-55 69 -88 132.5t-33 126.5q0 50 22 92.5t59.5 74t88 49t106.5 17.5q50 0 98.5 -12t87.5 -36.5t65 -61t29 -86.5q5 -75 -25.5 -118.5t-81.5 -70.5t-113.5 -44.5t-121.5 -41.5q8 -9 16.5 -18.5t16.5 -18.5q57 -62 102.5 -111.5t87 -94.5t83 -89.5t90.5 -95.5
q45 43 70.5 100t25.5 125q0 39 -11 64t-28.5 39.5t-40 20t-45.5 5.5q-19 0 -34.5 -3t-31 -6.5t-32 -6.5t-38.5 -3q-21 0 -37.5 9t-26.5 22.5t-13 30t4 31.5q15 -25 42 -25q25 0 42.5 5t33 10.5t33 10.5t42.5 5q43 0 73 -17t49 -45t27.5 -64t8.5 -75q0 -53 -25 -118.5
t-79 -123.5q18 -19 37.5 -39t41.5 -43q7 -8 26 -14.5t28 -6.5v-9h-119q-19 0 -34.5 11t-29.5 26q-5 5 -8.5 9t-8.5 9q-50 -34 -114 -54.5t-146 -20.5q-66 0 -127.5 19t-109 54.5t-76 87.5t-28.5 118q0 61 13.5 105t36.5 75.5t54 52.5t66 36zM578 827q0 45 -17 79t-44.5 56.5
t-62 34t-69.5 11.5q-57 0 -98.5 -15.5t-68.5 -41.5t-40 -60t-13 -71q0 -33 13 -66.5t34.5 -66.5t48 -65.5t53.5 -62.5q49 16 96.5 33t84.5 45.5t60 73t23 116.5zM245 510q-47 -31 -76.5 -79.5t-29.5 -128.5q0 -54 25.5 -104.5t69.5 -89t104.5 -62t130.5 -23.5q99 0 180 46
q-102 110 -190 205t-172 188q-22 24 -42 48z" />
    </font>
</defs>
</svg>
